<svg width="217" height="217" viewBox="0 0 217 217" fill="none" xmlns="http://www.w3.org/2000/svg">
<path d="M152.186 121.335C152.142 121.333 152.098 121.321 152.061 121.298C113.495 97.6753 79.4785 96.2691 57.7379 99.2772C34.1572 102.517 19.5023 111.46 19.3583 111.564C19.3326 111.581 19.3037 111.592 19.2734 111.597C19.2431 111.602 19.2121 111.602 19.1821 111.595C19.1522 111.588 19.1239 111.575 19.0991 111.558C19.0743 111.54 19.0534 111.517 19.0377 111.491C19.0045 111.441 18.9932 111.379 19.0063 111.32C19.0193 111.261 19.0557 111.21 19.1074 111.177C19.2561 111.091 33.976 102.076 57.6728 98.8403C71.7372 96.9332 86.0281 97.3408 99.9554 100.046C117.644 103.437 135.268 110.463 152.349 120.925C152.375 120.94 152.398 120.961 152.416 120.985C152.434 121.01 152.447 121.037 152.454 121.067C152.461 121.096 152.462 121.126 152.457 121.156C152.451 121.186 152.44 121.214 152.423 121.239C152.397 121.276 152.361 121.305 152.319 121.322C152.277 121.339 152.231 121.343 152.186 121.335Z" fill="#263238"/>
<path d="M88.9436 115.444C84.9524 112.232 96.8426 99.8536 96.8426 99.8536C91.6386 98.9434 92.3448 99.1255 92.3448 99.1255C92.3448 99.1255 78.8144 111.904 78.675 119.185C78.5356 126.466 99.3005 133.247 99.3005 133.247L107.093 129.898L113.9 127.427C113.9 127.427 92.9396 118.657 88.9436 115.444Z" fill="#187259"/>
<path d="M99.3003 133.467H99.226C98.3711 133.189 78.317 126.532 78.4425 119.187C78.5772 112.151 90.7695 100.315 92.0798 99.0679C92.103 98.9724 92.1262 98.9132 92.3911 98.9223C92.8557 98.9223 93.9709 99.1407 96.8656 99.6459C96.9062 99.6545 96.9437 99.6735 96.9744 99.7008C97.0052 99.7281 97.028 99.7629 97.0407 99.8016C97.0534 99.8403 97.0555 99.8816 97.0468 99.9214C97.0381 99.9611 97.0189 99.998 96.9911 100.028C96.9028 100.119 88.0653 109.38 88.3533 113.781C88.3586 114.067 88.4264 114.35 88.5522 114.609C88.678 114.868 88.8589 115.097 89.0828 115.282C93.0044 118.44 113.769 127.114 113.978 127.223C114.022 127.241 114.058 127.27 114.084 127.309C114.11 127.347 114.123 127.392 114.122 127.437C114.12 127.483 114.104 127.527 114.077 127.564C114.05 127.601 114.012 127.63 113.969 127.647L107.176 130.109L99.4119 133.449C99.3771 133.465 99.3385 133.471 99.3003 133.467ZM92.4329 99.3364C91.4293 100.301 79.0419 112.333 78.9071 119.169C78.7724 126.004 97.8507 132.498 99.291 132.98L106.999 129.667L113.272 127.392C109.903 125.977 92.4608 118.559 88.7994 115.614C88.5262 115.391 88.3049 115.113 88.1503 114.799C87.9956 114.485 87.9112 114.143 87.9026 113.794C87.6238 109.612 94.8026 101.689 96.3731 100.01C93.5899 99.523 92.7117 99.3865 92.4422 99.3501L92.4329 99.3364Z" fill="#263238"/>
<path d="M77.8756 147.232C77.8445 147.232 77.8135 147.227 77.7848 147.215C77.756 147.203 77.73 147.186 77.7084 147.164C77.6866 147.143 77.6693 147.117 77.6575 147.09C77.6457 147.062 77.6396 147.032 77.6396 147.002C77.6396 146.972 77.6457 146.942 77.6575 146.915C77.6693 146.887 77.6866 146.862 77.7084 146.841C77.8338 146.727 90.4907 135.104 113.063 127.395C126.478 122.843 140.577 120.52 154.774 120.524H155.113C173.035 120.524 191.606 124.055 210.318 131.022C210.376 131.043 210.423 131.086 210.448 131.141C210.474 131.196 210.476 131.259 210.455 131.316C210.433 131.373 210.389 131.419 210.333 131.444C210.277 131.469 210.213 131.471 210.155 131.45C167.645 115.623 133.991 120.742 113.24 127.809C90.7509 135.482 78.1544 147.045 78.029 147.164C77.9889 147.205 77.9339 147.23 77.8756 147.232Z" fill="#263238"/>
<path d="M212.32 190.633C212.257 190.633 212.197 190.608 212.152 190.565C211.915 190.323 187.824 166.245 148.32 152.739C106.836 138.563 40.1692 149.767 12.6437 168.498C12.5925 168.532 12.5295 168.546 12.4686 168.534C12.4076 168.523 12.3536 168.489 12.3184 168.439C12.2833 168.389 12.2699 168.327 12.2813 168.267C12.2926 168.208 12.3277 168.155 12.3788 168.12C26.4018 158.564 50.2984 150.937 76.3045 147.665C103.519 144.238 129.831 145.935 148.487 152.311C188.102 165.849 212.259 190.005 212.501 190.246C212.523 190.267 212.54 190.292 212.552 190.32C212.563 190.348 212.57 190.378 212.57 190.408C212.57 190.438 212.563 190.467 212.552 190.495C212.54 190.523 212.523 190.548 212.501 190.569C212.477 190.591 212.448 190.609 212.417 190.619C212.386 190.63 212.353 190.635 212.32 190.633Z" fill="#263238"/>
<path d="M58.7879 179.256C53.9277 180.931 49.6158 182.373 45.7778 183.62C59.5406 189.923 76.9554 194.119 98.8866 196.385C103.728 196.886 108.254 197.236 112.496 197.446C140.486 177.422 153.296 154.213 153.296 154.213C154.249 154.518 137.708 147.387 119.047 146.759C119.034 146.764 95.6945 166.555 58.7879 179.256Z" fill="#187259"/>
<path d="M75.747 216.999C75.6997 217 75.6532 216.987 75.6141 216.961C75.5749 216.935 75.5451 216.897 75.5287 216.854C75.5175 216.826 75.5121 216.796 75.5128 216.765C75.5135 216.735 75.5204 216.706 75.5329 216.678C75.5454 216.651 75.5634 216.626 75.5858 216.605C75.6082 216.584 75.6346 216.568 75.6634 216.558C103.361 206.546 122.936 190.113 134.478 178.077C146.02 166.04 152.069 155.864 152.962 154.313C150.964 153.48 136.086 147.587 119.117 146.995C117.667 148.196 94.4071 167.241 58.8665 179.469C22.7173 191.906 16.6351 191.756 8.94058 191.529C7.92301 191.501 6.87292 191.474 5.7206 191.474C5.65899 191.474 5.5999 191.45 5.55633 191.407C5.51276 191.365 5.48828 191.307 5.48828 191.247C5.48828 191.186 5.51276 191.128 5.55633 191.086C5.5999 191.043 5.65899 191.019 5.7206 191.019C6.87757 191.019 7.93231 191.046 8.97311 191.074C16.6258 191.283 22.6662 191.447 58.7364 179.037C95.1784 166.5 118.675 146.79 118.903 146.595C118.948 146.556 119.006 146.535 119.066 146.535C136.09 147.113 151.191 152.957 153.305 153.99H153.375C153.491 154.049 153.556 154.09 153.561 154.108C153.579 154.148 153.584 154.192 153.577 154.235C153.569 154.277 153.549 154.317 153.519 154.349C153.503 154.368 153.482 154.382 153.459 154.39C152.831 155.491 146.768 165.922 134.845 178.354C123.266 190.432 103.635 206.933 75.8353 216.954L75.747 216.999Z" fill="#263238"/>
<path d="M164.778 158.899C173.476 162.344 183.257 153.989 182.56 145.087C181.886 136.441 170.828 131.758 163.886 128.9C145.472 121.323 133.466 122.629 133.466 122.629C133.466 122.629 152.14 119.235 171.622 121.583C188.484 123.617 206.034 133.61 213.171 149.219C217.009 157.611 217.162 166.931 216.423 175.946C215.596 186.144 212.316 190.39 212.316 190.39C212.316 190.39 188.823 171.878 164.778 158.899Z" fill="#187259"/>
<path d="M212.32 190.632C212.268 190.631 212.217 190.614 212.176 190.582C211.939 190.395 188.419 171.924 164.666 159.113C164.615 159.085 164.577 159.039 164.559 158.984C164.542 158.929 164.546 158.869 164.571 158.818C164.597 158.766 164.641 158.725 164.696 158.704C164.751 158.683 164.811 158.683 164.866 158.704C168.583 160.178 172.765 159.541 176.389 156.961C180.399 154.085 182.676 149.548 182.332 145.129C181.654 136.478 170.502 131.864 163.797 129.115C145.676 121.647 133.595 122.844 133.489 122.858C133.429 122.863 133.369 122.846 133.321 122.809C133.274 122.773 133.242 122.72 133.233 122.662C133.225 122.604 133.24 122.544 133.276 122.497C133.311 122.449 133.364 122.417 133.424 122.407C133.609 122.371 152.358 119.03 171.65 121.36C180.386 122.45 188.764 125.438 196.169 130.107C204.035 135.113 209.988 141.684 213.384 149.111C217.492 158.099 217.292 168.174 216.637 175.96C215.81 186.108 212.617 190.35 212.483 190.523C212.464 190.548 212.44 190.568 212.413 190.584C212.386 190.6 212.356 190.61 212.325 190.614L212.32 190.632ZM166.739 159.728C188.735 171.865 210.006 188.311 212.274 190.072C212.896 189.135 215.484 184.766 216.2 175.942C216.832 168.206 217.032 158.217 212.947 149.325C206.442 135.076 189.803 124.023 171.594 121.825C157.227 120.091 143.153 121.515 136.894 122.357C141.745 122.498 151.424 123.536 163.983 128.705C170.758 131.495 182.104 136.169 182.797 145.088C183.154 149.675 180.808 154.367 176.668 157.33C173.573 159.528 170.037 160.356 166.739 159.714V159.728Z" fill="#263238"/>
<path d="M133.795 125.96C133.613 125.96 133.438 125.89 133.307 125.765C133.177 125.64 133.102 125.47 133.098 125.291L131.305 37.8714C131.301 37.6904 131.371 37.5153 131.499 37.3848C131.627 37.2542 131.803 37.1788 131.988 37.1752C132.173 37.1716 132.351 37.24 132.485 37.3655C132.618 37.4909 132.695 37.6631 132.699 37.8441L134.492 125.264C134.495 125.354 134.479 125.443 134.446 125.527C134.413 125.611 134.363 125.687 134.299 125.752C134.236 125.817 134.16 125.869 134.076 125.904C133.992 125.94 133.901 125.959 133.809 125.96H133.795Z" fill="#263238"/>
<path d="M143.874 48.9587L152.214 53.6005L149.371 57.5779L151.447 62.7293L140.347 59.3208L143.874 48.9587Z" fill="#187259"/>
<path d="M151.452 62.9577C151.429 62.9621 151.406 62.9621 151.383 62.9577L140.301 59.54C140.272 59.5311 140.245 59.5165 140.221 59.4969C140.198 59.4773 140.179 59.4533 140.166 59.4263C140.153 59.3986 140.146 59.3683 140.146 59.3375C140.146 59.3068 140.153 59.2765 140.166 59.2488L143.693 48.8867C143.704 48.8553 143.722 48.8264 143.745 48.8021C143.768 48.7778 143.796 48.7586 143.828 48.7457C143.859 48.7323 143.893 48.7253 143.927 48.7253C143.962 48.7253 143.996 48.7323 144.027 48.7457L152.368 53.3874C152.396 53.4036 152.42 53.4253 152.439 53.4511C152.459 53.477 152.472 53.5064 152.479 53.5376C152.486 53.5681 152.486 53.5996 152.48 53.6302C152.473 53.6608 152.461 53.6897 152.442 53.7151L149.654 57.5923L151.685 62.6346C151.7 62.6743 151.704 62.7176 151.696 62.7594C151.688 62.8012 151.668 62.84 151.638 62.8712C151.616 62.8989 151.588 62.9211 151.556 62.9362C151.524 62.9512 151.488 62.9585 151.452 62.9577ZM140.649 59.176L151.057 62.3615L149.162 57.6515C149.148 57.6166 149.143 57.579 149.147 57.5418C149.151 57.5046 149.164 57.4689 149.185 57.4376L151.884 53.665L144.018 49.2918L140.649 59.176Z" fill="#263238"/>
<path d="M143.456 58.1786L140.347 59.3208L143.874 48.9587L143.456 58.1786Z" fill="#263238"/>
<path d="M140.347 59.5702C140.31 59.571 140.273 59.5628 140.24 59.5465C140.207 59.5302 140.178 59.5062 140.156 59.4766C140.135 59.447 140.121 59.4127 140.116 59.3766C140.111 59.3406 140.116 59.3039 140.128 59.2698L143.655 48.9078C143.661 48.8779 143.672 48.8494 143.689 48.8238C143.706 48.7983 143.727 48.7762 143.753 48.7589C143.778 48.7415 143.807 48.7293 143.837 48.7228C143.867 48.7164 143.899 48.7158 143.929 48.7212C143.96 48.7266 143.989 48.7378 144.015 48.7542C144.041 48.7706 144.064 48.7919 144.081 48.8168C144.099 48.8417 144.111 48.8698 144.118 48.8995C144.125 48.9292 144.125 48.9598 144.12 48.9897L143.702 58.2141C143.7 58.2581 143.685 58.3006 143.658 58.3362C143.632 58.3719 143.595 58.399 143.553 58.4143L140.444 59.5565C140.413 59.567 140.38 59.5716 140.347 59.5702ZM143.553 50.5733L140.709 58.9422L143.218 58.032L143.553 50.5733Z" fill="#263238"/>
<path d="M132.332 39.2563L144.459 44.3122L143.456 58.1784L132.634 54.3421L132.332 39.2563Z" fill="#187259"/>
<path d="M143.456 58.4061H143.377L132.55 54.5653C132.507 54.5486 132.469 54.52 132.442 54.4828C132.415 54.4457 132.399 54.4016 132.397 54.3559L132.1 39.2702C132.099 39.2325 132.108 39.1954 132.126 39.162C132.144 39.1286 132.17 39.1001 132.202 39.0791C132.236 39.0611 132.274 39.0518 132.313 39.0518C132.352 39.0518 132.391 39.0611 132.425 39.0791L144.552 44.0985C144.598 44.1162 144.636 44.1481 144.661 44.1892C144.686 44.2303 144.697 44.2784 144.691 44.3261L143.688 58.2059C143.686 58.2407 143.676 58.2746 143.659 58.3047C143.641 58.3349 143.616 58.3603 143.586 58.3788C143.546 58.4007 143.501 58.4102 143.456 58.4061ZM132.866 54.1785L143.251 57.8646L144.222 44.458L132.574 39.6069L132.866 54.1785Z" fill="#263238"/>
<path d="M88.3812 101.179C88.2579 101.179 88.1397 101.131 88.0526 101.046C87.9655 100.96 87.9165 100.845 87.9165 100.724L86.8664 64.0402C86.8627 63.9195 86.9081 63.8023 86.9927 63.7144C87.0772 63.6265 87.1939 63.5751 87.3171 63.5715C87.4404 63.5679 87.56 63.6123 87.6498 63.6951C87.7395 63.7779 87.792 63.8922 87.7957 64.0129L88.8365 100.71C88.8365 100.831 88.7876 100.947 88.7004 101.032C88.6133 101.117 88.4951 101.165 88.3719 101.165L88.3812 101.179Z" fill="#263238"/>
<path d="M92.3679 68.6501L95.9782 71.012L94.7051 72.2498L96.0293 74.2021L90.9229 73.0098L92.3679 68.6501Z" fill="#187259"/>
<path d="M96.0338 74.4286H95.9781L90.867 73.2409C90.8358 73.2336 90.8065 73.2201 90.7809 73.2012C90.7553 73.1823 90.734 73.1585 90.7183 73.1311C90.7026 73.1037 90.6928 73.0735 90.6896 73.0423C90.6864 73.0111 90.6899 72.9795 90.6997 72.9496L92.1448 68.5855C92.1556 68.5524 92.1743 68.5224 92.1994 68.4979C92.2244 68.4734 92.2551 68.455 92.2888 68.4444C92.3225 68.4332 92.3583 68.4295 92.3936 68.4334C92.429 68.4373 92.463 68.4489 92.4932 68.4672L96.0989 70.829C96.127 70.848 96.1505 70.8728 96.1679 70.9016C96.1853 70.9304 96.1962 70.9626 96.1997 70.9958C96.2032 71.0291 96.1994 71.0628 96.1884 71.0944C96.1774 71.1261 96.1595 71.1551 96.136 71.1794L95.0023 72.2852L96.2197 74.1055C96.2457 74.1432 96.2595 74.1875 96.2595 74.233C96.2595 74.2784 96.2457 74.3228 96.2197 74.3604C96.1958 74.3845 96.1667 74.4031 96.1346 74.4149C96.1024 74.4267 96.068 74.4314 96.0338 74.4286ZM91.2248 72.845L95.5134 73.8461L94.5144 72.3763C94.4834 72.3322 94.4692 72.2789 94.4743 72.2257C94.4794 72.1724 94.5035 72.1226 94.5423 72.085L95.611 71.0429L92.4979 69.0041L91.2248 72.845Z" fill="#263238"/>
<path d="M92.2239 72.5228L90.9229 73.0098L92.3679 68.6501L92.2239 72.5228Z" fill="#263238"/>
<path d="M90.9229 73.2226C90.8644 73.2239 90.8076 73.2027 90.7649 73.1634C90.7334 73.1333 90.7111 73.0953 90.7004 73.0535C90.6898 73.0117 90.6912 72.9678 90.7045 72.9268L92.1496 68.5626C92.1676 68.5113 92.2037 68.468 92.2514 68.4404C92.2991 68.4129 92.3552 68.403 92.4098 68.4124C92.4651 68.4213 92.5152 68.4499 92.5504 68.4928C92.5855 68.5356 92.6033 68.5896 92.6003 68.6445L92.4562 72.5172C92.4553 72.562 92.4407 72.6055 92.4142 72.6421C92.3876 72.6786 92.3505 72.7064 92.3076 72.722L91.0066 73.2089C90.9796 73.2178 90.9514 73.2224 90.9229 73.2226ZM92.0752 70.2555L91.2946 72.6128L92.0009 72.3488L92.0752 70.2555Z" fill="#263238"/>
<path d="M87.4941 64.6138L92.6424 66.8027L92.2242 72.523L87.6661 70.9439L87.4941 64.6138Z" fill="#187259"/>
<path d="M92.2239 72.7684C92.1993 72.7728 92.1741 72.7728 92.1495 72.7684L87.5914 71.1893C87.5472 71.1751 87.5087 71.1477 87.4812 71.111C87.4537 71.0743 87.4386 71.0301 87.438 70.9845L87.2615 64.6499C87.2597 64.612 87.2682 64.5744 87.2862 64.5408C87.3041 64.5072 87.3309 64.4789 87.3637 64.4588C87.3977 64.44 87.4361 64.4302 87.4752 64.4302C87.5143 64.4302 87.5527 64.44 87.5867 64.4588L92.735 66.6477C92.7796 66.6651 92.8174 66.6963 92.8425 66.7365C92.8676 66.7767 92.8788 66.8237 92.8744 66.8706L92.4562 72.5909C92.454 72.6262 92.4437 72.6605 92.426 72.6913C92.4083 72.722 92.3837 72.7484 92.354 72.7684C92.3113 72.7796 92.2665 72.7796 92.2239 72.7684ZM87.898 70.8025L92.0148 72.2269L92.4004 66.9662L87.754 64.9821L87.898 70.8025Z" fill="#263238"/>
<path d="M119.675 105.811C119.614 105.81 119.557 105.786 119.513 105.745C119.47 105.703 119.445 105.647 119.442 105.588L118.676 81.7968C118.675 81.7372 118.697 81.6795 118.739 81.6361C118.781 81.5927 118.838 81.5671 118.899 81.5647C118.93 81.5622 118.961 81.566 118.99 81.5758C119.019 81.5857 119.046 81.6014 119.069 81.6219C119.091 81.6424 119.11 81.6674 119.122 81.6951C119.134 81.7229 119.141 81.7529 119.14 81.7832L119.907 105.574C119.908 105.604 119.904 105.634 119.893 105.662C119.883 105.69 119.866 105.716 119.846 105.738C119.825 105.76 119.8 105.778 119.772 105.79C119.745 105.803 119.715 105.81 119.684 105.811H119.675Z" fill="#263238"/>
<path d="M122.611 85.1948L125.265 86.9332L124.331 87.8434L125.306 89.2768L121.547 88.4031L122.611 85.1948Z" fill="#187259"/>
<path d="M125.307 89.5102H125.255L121.492 88.6364C121.43 88.6196 121.377 88.5806 121.343 88.5272C121.331 88.4984 121.324 88.4675 121.324 88.4362C121.324 88.4049 121.331 88.374 121.343 88.3452L122.407 85.1324C122.419 85.0985 122.438 85.0678 122.464 85.0425C122.49 85.0173 122.521 84.9982 122.556 84.9867C122.59 84.9756 122.626 84.9722 122.661 84.9769C122.697 84.9817 122.731 84.9944 122.76 85.014L125.413 86.7524C125.443 86.7705 125.468 86.7952 125.485 86.8245C125.503 86.8538 125.514 86.8868 125.516 86.9208C125.518 86.9539 125.514 86.9871 125.503 87.0185C125.491 87.0498 125.474 87.0785 125.451 87.1028L124.651 87.881L125.52 89.1643C125.546 89.202 125.56 89.2463 125.56 89.2917C125.56 89.3372 125.546 89.3815 125.52 89.4192C125.496 89.4518 125.464 89.4775 125.426 89.4935C125.389 89.5095 125.347 89.5153 125.307 89.5102ZM121.845 88.2405L124.786 88.9231L124.136 87.972C124.106 87.9272 124.093 87.8738 124.099 87.8207C124.105 87.7677 124.129 87.7183 124.168 87.6808L124.902 86.9663L122.737 85.551L121.845 88.2405Z" fill="#263238"/>
<path d="M122.505 88.0436L121.547 88.4031L122.611 85.1948L122.505 88.0436Z" fill="#187259"/>
<path d="M121.548 88.6317C121.487 88.6311 121.429 88.6084 121.385 88.5679C121.354 88.5389 121.331 88.5016 121.321 88.4605C121.31 88.4194 121.311 88.3762 121.325 88.3359L122.389 85.123C122.399 85.0627 122.434 85.0089 122.485 84.9735C122.536 84.9381 122.599 84.9239 122.661 84.9342C122.722 84.9444 122.777 84.9782 122.813 85.0282C122.85 85.0781 122.864 85.14 122.854 85.2004L122.747 88.0537C122.745 88.0982 122.729 88.1412 122.703 88.1775C122.677 88.2138 122.64 88.2419 122.598 88.2585L121.641 88.618L121.548 88.6317ZM122.319 86.8159L121.92 88.0219L122.277 87.8853L122.319 86.8159Z" fill="#263238"/>
<path d="M119.02 82.2241L122.811 83.8351L122.505 88.0445L119.15 86.8841L119.02 82.2241Z" fill="#187259"/>
<path d="M122.505 88.2727H122.426L119.071 87.1123C119.024 87.0931 118.985 87.0597 118.959 87.0171C118.933 86.9746 118.922 86.925 118.927 86.8756L118.797 82.2157C118.797 82.1774 118.806 82.1398 118.824 82.1058C118.842 82.0717 118.867 82.0423 118.899 82.02C118.933 82.0021 118.972 81.9927 119.011 81.9927C119.05 81.9927 119.088 82.0021 119.122 82.02L122.914 83.6309C122.958 83.6484 122.996 83.6796 123.021 83.7198C123.046 83.7599 123.057 83.807 123.053 83.8539L122.746 88.0679C122.744 88.1025 122.733 88.136 122.716 88.166C122.698 88.1959 122.673 88.2216 122.644 88.2409C122.602 88.2638 122.553 88.2748 122.505 88.2727ZM119.392 86.7209L122.31 87.7312L122.584 83.9768L119.275 82.5752L119.392 86.7209Z" fill="#263238"/>
<path d="M155.55 161.831C155.303 161.831 155.067 161.735 154.893 161.565C154.719 161.394 154.621 161.163 154.621 160.921L155.661 15.3198C155.661 15.0784 155.759 14.8469 155.934 14.6762C156.108 14.5056 156.344 14.4097 156.591 14.4097C156.837 14.4097 157.074 14.5056 157.248 14.6762C157.422 14.8469 157.52 15.0784 157.52 15.3198L156.479 160.944C156.473 161.181 156.373 161.407 156.199 161.573C156.025 161.739 155.792 161.831 155.55 161.831Z" fill="#263238"/>
<path d="M172.175 30.6406L183.447 38.5771L179.247 42.4043L183.271 48.789L168.964 46.9733L172.175 30.6406Z" fill="#187259"/>
<path d="M183.271 49.0127H183.243L168.936 47.1924C168.905 47.1894 168.874 47.1797 168.847 47.1639C168.82 47.1482 168.796 47.1269 168.778 47.1014C168.741 47.0499 168.726 46.9862 168.737 46.9239L171.943 30.5913C171.951 30.5538 171.968 30.5187 171.993 30.4894C172.018 30.46 172.05 30.4371 172.087 30.4229C172.123 30.409 172.163 30.4043 172.202 30.409C172.241 30.4138 172.278 30.4279 172.31 30.4502L183.582 38.3913C183.61 38.4104 183.633 38.4354 183.65 38.4646C183.667 38.4937 183.677 38.5262 183.679 38.5597C183.682 38.5935 183.676 38.6274 183.663 38.6589C183.651 38.6904 183.631 38.7187 183.605 38.7417L179.544 42.4414L183.47 48.6487C183.494 48.6853 183.507 48.728 183.507 48.7715C183.507 48.8151 183.494 48.8578 183.47 48.8944C183.451 48.9297 183.422 48.9592 183.387 48.9799C183.352 49.0007 183.312 49.012 183.271 49.0127ZM169.243 46.7783L182.82 48.4985L179.052 42.5234C179.023 42.4788 179.011 42.4258 179.018 42.3735C179.025 42.3212 179.05 42.2728 179.089 42.2367L183.08 38.5961L172.333 31.0327L169.243 46.7783Z" fill="#263238"/>
<path d="M176.989 46.2497L168.964 46.9733L172.175 30.6406L176.989 46.2497Z" fill="#263238"/>
<path d="M168.964 47.201C168.932 47.2007 168.9 47.1936 168.87 47.1803C168.84 47.167 168.814 47.1477 168.792 47.1237C168.768 47.0975 168.751 47.0662 168.741 47.0323C168.731 46.9983 168.73 46.9626 168.737 46.928L171.943 30.5954C171.954 30.5458 171.981 30.5012 172.021 30.4683C172.06 30.4354 172.109 30.4161 172.161 30.4133C172.212 30.411 172.263 30.4254 172.305 30.4542C172.347 30.483 172.378 30.5247 172.393 30.5726L177.212 46.1817C177.221 46.2146 177.223 46.2493 177.218 46.2831C177.212 46.3169 177.199 46.3491 177.179 46.3774C177.159 46.4049 177.134 46.428 177.104 46.4453C177.074 46.4625 177.041 46.4735 177.007 46.4775L168.988 47.201H168.964ZM172.217 31.5874L169.248 46.7187L176.682 46.0497L172.217 31.5874Z" fill="#263238"/>
<path d="M157.014 17.2122L178.476 27.7426L176.989 46.2505L156.875 37.4858L157.014 17.2122Z" fill="#187259"/>
<path d="M177.007 46.4772C176.975 46.4834 176.942 46.4834 176.91 46.4772L156.781 37.6897C156.74 37.6714 156.705 37.642 156.681 37.6049C156.656 37.5678 156.643 37.5246 156.642 37.4803L156.781 17.2113C156.781 17.172 156.791 17.1333 156.811 17.099C156.83 17.0648 156.859 17.036 156.893 17.0156C156.927 16.9977 156.966 16.9883 157.005 16.9883C157.043 16.9883 157.082 16.9977 157.116 17.0156L178.583 27.546C178.624 27.5662 178.659 27.5984 178.681 27.6383C178.703 27.6781 178.713 27.7237 178.708 27.769L177.221 46.2769C177.216 46.3131 177.204 46.3478 177.183 46.3785C177.163 46.4092 177.137 46.4351 177.105 46.4544C177.074 46.4682 177.041 46.476 177.007 46.4772ZM157.111 37.3347L176.78 45.9174L178.234 27.8828L157.241 17.5799L157.111 37.3347Z" fill="#263238"/>
<path d="M100.239 21.3162H58.3326C58.2919 21.3169 58.2517 21.3067 58.2165 21.2866C58.1813 21.2666 58.1523 21.2374 58.1328 21.2024C58.1133 21.1684 58.103 21.13 58.103 21.0909C58.103 21.0519 58.1133 21.0135 58.1328 20.9794C58.2118 20.8429 60.0332 17.6665 62.6352 16.2102C64.2383 15.3001 66.8495 15.9873 68.9404 16.5288C70.1764 16.8473 71.4542 17.175 71.8166 16.9384C72.1304 16.6165 72.3656 16.229 72.5043 15.8052C73.1919 14.2944 74.3628 11.7642 78.8559 10.4717C81.2488 9.78913 83.0795 10.5491 84.5478 11.1589C86.0161 11.7687 86.9779 12.1646 87.963 11.2044C88.4175 10.7295 88.8442 10.2296 89.2407 9.70722C89.9805 8.73665 90.7961 7.82376 91.6801 6.97676C91.7024 6.95615 91.7286 6.94003 91.7572 6.92933C91.7858 6.91862 91.8163 6.91355 91.847 6.9144C91.8776 6.91524 91.9078 6.92199 91.9357 6.93425C91.9637 6.94651 91.9889 6.96405 92.01 6.98587C92.0311 7.00768 92.0475 7.03334 92.0584 7.06138C92.0694 7.08942 92.0745 7.1193 92.0737 7.1493C92.0728 7.17931 92.0659 7.20885 92.0534 7.23624C92.0409 7.26364 92.023 7.28835 92.0007 7.30897C91.1325 8.14117 90.3324 9.03892 89.6078 9.99391C89.1992 10.5316 88.7586 11.0452 88.2882 11.5321C87.0894 12.7062 85.8256 12.1874 84.3666 11.5821C82.9076 10.9769 81.221 10.2761 78.986 10.9132C74.6788 12.1464 73.6287 14.4627 72.9457 15.9964C72.782 16.5037 72.4857 16.9602 72.0861 17.3206C71.5517 17.671 70.4134 17.3798 68.8336 16.9702C66.8217 16.4514 64.3126 15.8007 62.8768 16.6107C60.8742 17.7302 59.2991 20.0056 58.7555 20.8657H100.253C100.314 20.8657 100.373 20.8896 100.417 20.9323C100.461 20.975 100.485 21.0328 100.485 21.0932C100.485 21.1239 100.478 21.1541 100.465 21.1821C100.452 21.2101 100.434 21.2353 100.411 21.2561C100.388 21.277 100.36 21.293 100.331 21.3033C100.301 21.3137 100.27 21.318 100.239 21.3162Z" fill="#263238"/>
<path d="M130.78 21.3171H104.951C104.889 21.3171 104.83 21.2932 104.786 21.2505C104.743 21.2078 104.718 21.1499 104.718 21.0896C104.718 21.0292 104.743 20.9714 104.786 20.9287C104.83 20.886 104.889 20.8621 104.951 20.8621H130.478C130.13 19.6607 128.578 14.9461 125.181 13.7401C122.426 12.7572 120.999 14.2999 119.935 15.4285C119.607 15.854 119.189 16.2048 118.709 16.4569C118.517 16.5493 118.307 16.5973 118.093 16.5973C117.88 16.5973 117.669 16.5493 117.477 16.4569C117.342 16.378 117.225 16.2726 117.133 16.1473C117.041 16.022 116.976 15.8796 116.943 15.7288C116.901 15.6423 111.367 2.60899 102.112 3.3098C99.5521 3.43636 97.0522 4.11215 94.7888 5.28938C94.7352 5.31886 94.6718 5.32631 94.6126 5.3101C94.5534 5.29389 94.5031 5.25535 94.4729 5.20291C94.4573 5.17706 94.4473 5.1484 94.4433 5.11866C94.4394 5.08891 94.4416 5.05869 94.4498 5.0298C94.458 5.00091 94.4722 4.97394 94.4913 4.95051C94.5104 4.92709 94.5342 4.90768 94.5612 4.89346C96.883 3.68351 99.4478 2.98755 102.074 2.85473C111.702 2.13571 117.333 15.4694 117.408 15.5968C117.428 15.6897 117.466 15.7778 117.521 15.856C117.576 15.9341 117.647 16.0007 117.728 16.0519C117.862 16.105 118.006 16.1296 118.15 16.1241C118.294 16.1186 118.436 16.0831 118.565 16.0201C118.97 15.7847 119.327 15.4758 119.615 15.1099C120.688 13.9586 122.31 12.2156 125.362 13.2896C129.474 14.7549 130.961 20.7619 131.022 21.0259C131.03 21.0588 131.031 21.0931 131.023 21.1262C131.016 21.1593 131.001 21.1904 130.98 21.217C130.958 21.2486 130.928 21.2742 130.893 21.2917C130.858 21.3092 130.819 21.3179 130.78 21.3171Z" fill="#263238"/>
<path d="M193.187 77.9967H166.265C166.225 77.9965 166.185 77.9859 166.15 77.9659C166.115 77.9459 166.086 77.9173 166.065 77.883C166.046 77.8489 166.036 77.8105 166.036 77.7715C166.036 77.7324 166.046 77.694 166.065 77.66C166.112 77.5826 167.129 75.8033 168.593 74.9841C169.522 74.4699 170.977 74.8476 172.157 75.1525C172.752 75.3072 173.495 75.4984 173.658 75.3937C173.811 75.2239 173.928 75.0258 174.002 74.8112C174.387 73.9602 175.038 72.5358 177.575 71.8077C178.931 71.4209 179.963 71.8487 180.79 72.19C181.617 72.5313 182.091 72.6996 182.56 72.2355C182.809 71.9778 183.042 71.7058 183.257 71.4209C183.744 70.7715 184.298 70.1736 184.911 69.637C184.956 69.595 185.015 69.5715 185.076 69.5715C185.138 69.5715 185.197 69.595 185.241 69.637C185.263 69.6577 185.28 69.6825 185.292 69.7099C185.304 69.7372 185.31 69.7666 185.31 69.7963C185.31 69.8259 185.304 69.8553 185.292 69.8826C185.28 69.91 185.263 69.9348 185.241 69.9555C184.652 70.4742 184.117 71.0506 183.648 71.6757C183.42 71.9761 183.175 72.2633 182.913 72.5358C182.198 73.2366 181.436 72.9181 180.632 72.5859C179.828 72.2537 178.927 71.8805 177.728 72.2218C175.405 72.8862 174.824 74.1422 174.448 74.9523C174.355 75.2533 174.178 75.5229 173.937 75.7304C173.602 75.9489 172.956 75.7805 172.078 75.5484C170.986 75.2663 169.625 74.9159 168.867 75.3391C168.001 75.8967 167.271 76.6348 166.73 77.5007H193.215C193.276 77.5007 193.335 77.5247 193.379 77.5673C193.422 77.61 193.447 77.6679 193.447 77.7282C193.447 77.7886 193.422 77.8464 193.379 77.8891C193.335 77.9318 193.276 77.9558 193.215 77.9558L193.187 77.9967Z" fill="#263238"/>
<path d="M206.28 77.9954H195.384C195.323 77.9954 195.264 77.9715 195.22 77.9288C195.176 77.8861 195.152 77.8282 195.152 77.7679C195.152 77.7076 195.176 77.6497 195.22 77.607C195.264 77.5643 195.323 77.5404 195.384 77.5404H205.978C205.727 76.7349 204.882 74.4185 203.158 73.8042C201.694 73.2854 200.96 74.0727 200.37 74.7143C200.178 74.9628 199.932 75.1664 199.65 75.3105C199.53 75.3673 199.399 75.3968 199.266 75.3968C199.134 75.3968 199.002 75.3673 198.883 75.3105C198.797 75.2614 198.723 75.1957 198.663 75.1175C198.604 75.0393 198.562 74.9501 198.539 74.8554C198.539 74.8236 195.519 67.6834 190.454 68.0748C189.375 68.1432 188.312 68.3734 187.304 68.7574C187.276 68.7693 187.246 68.7755 187.215 68.7757C187.185 68.7759 187.155 68.7701 187.126 68.7586C187.098 68.7472 187.073 68.7303 187.051 68.709C187.03 68.6876 187.013 68.6623 187.002 68.6345C186.99 68.6071 186.984 68.5776 186.983 68.5477C186.983 68.5178 186.989 68.4882 187.001 68.4606C187.013 68.433 187.03 68.408 187.052 68.3871C187.073 68.3662 187.099 68.3497 187.127 68.3387C188.182 67.9356 189.293 67.6931 190.422 67.6197C195.793 67.2147 198.855 74.4185 198.981 74.728C198.997 74.8105 199.046 74.8837 199.115 74.9328C199.238 74.9712 199.371 74.9614 199.487 74.9055C199.694 74.7879 199.877 74.6336 200.026 74.4504C200.639 73.7951 201.564 72.803 203.316 73.4265C205.639 74.2547 206.475 77.6223 206.508 77.7679C206.516 77.8008 206.517 77.8351 206.509 77.8682C206.502 77.9013 206.487 77.9324 206.466 77.959C206.439 77.9773 206.409 77.99 206.377 77.9962C206.345 78.0025 206.312 78.0022 206.28 77.9954Z" fill="#263238"/>
<path d="M115.419 89.8372H91.9778C91.9366 89.8369 91.8962 89.8262 91.8605 89.8063C91.8247 89.7864 91.7947 89.7579 91.7733 89.7234C91.7529 89.6889 91.7422 89.6496 91.7422 89.6097C91.7422 89.5697 91.7529 89.5305 91.7733 89.4959C92.1426 88.8527 92.6616 88.3039 93.2881 87.894C93.8642 87.5709 94.7424 87.7985 95.4486 87.9805C95.7108 88.0689 95.9847 88.1195 96.2618 88.1307C96.3266 88.0388 96.3796 87.9394 96.4197 87.8349C96.5951 87.3791 96.8843 86.9737 97.2609 86.6557C97.6375 86.3377 98.0896 86.1172 98.5757 86.0146C99.2307 85.8465 99.9264 85.9278 100.523 86.2421C101.034 86.4515 101.233 86.5061 101.452 86.2876C101.595 86.1446 101.728 85.9926 101.851 85.8326C102.328 85.1486 102.963 84.5854 103.706 84.1898C104.448 83.7941 105.276 83.5773 106.122 83.5572C109.374 83.316 111.163 87.5982 111.233 87.7803V87.8212C111.27 87.8622 111.312 87.8667 111.395 87.8212C111.5 87.7501 111.594 87.6642 111.674 87.5664C112.027 87.1887 112.603 86.5516 113.704 86.9384C115.098 87.4435 115.614 89.4641 115.637 89.5505C115.645 89.5845 115.645 89.6197 115.637 89.6535C115.629 89.6874 115.613 89.7191 115.591 89.7462C115.571 89.7729 115.545 89.7949 115.515 89.8107C115.486 89.8264 115.453 89.8355 115.419 89.8372ZM92.3866 89.3821H115.108C114.931 88.8451 114.448 87.6938 113.556 87.3707C112.761 87.0886 112.371 87.5072 112.027 87.8758C111.902 88.0335 111.744 88.1624 111.562 88.2536C111.48 88.292 111.389 88.312 111.298 88.312C111.206 88.312 111.116 88.292 111.033 88.2536C110.914 88.1824 110.826 88.0705 110.787 87.9395C110.68 87.6847 108.928 83.8075 106.14 84.0123C105.359 84.0264 104.593 84.225 103.907 84.591C103.221 84.957 102.636 85.4797 102.2 86.1147C102.066 86.2951 101.92 86.4668 101.763 86.6289C101.299 87.084 100.801 86.8792 100.318 86.679C99.8189 86.411 99.2353 86.3363 98.6826 86.4697C98.2636 86.5555 97.8736 86.7436 97.5487 87.0165C97.2238 87.2894 96.9745 87.6382 96.824 88.0306C96.7639 88.2229 96.6476 88.3938 96.4894 88.522C96.2571 88.6768 95.8808 88.5767 95.3139 88.431C94.747 88.2854 93.92 88.0715 93.5018 88.2991C93.0564 88.5792 92.6764 88.9482 92.3866 89.3821Z" fill="#263238"/>
<path d="M34.1996 55.5291H10.7397C10.6994 55.528 10.6599 55.517 10.625 55.4971C10.5901 55.4773 10.5609 55.4491 10.5399 55.4153C10.5195 55.3808 10.5088 55.3415 10.5088 55.3016C10.5088 55.2616 10.5195 55.2224 10.5399 55.1878C10.9105 54.5441 11.4311 53.9953 12.0593 53.5859C12.6355 53.2628 13.5136 53.4904 14.2199 53.6724C14.4821 53.7608 14.756 53.8114 15.033 53.8226C15.0978 53.7307 15.1509 53.6313 15.191 53.5268C15.3663 53.071 15.6555 52.6656 16.0321 52.3476C16.4088 52.0296 16.8608 51.8091 17.3469 51.7065C18.0019 51.5384 18.6976 51.6197 19.2938 51.934C19.8049 52.1434 20.0047 52.198 20.2231 51.9795C20.366 51.8363 20.4995 51.6843 20.6227 51.5245C21.0989 50.8405 21.7346 50.2773 22.4771 49.8817C23.2197 49.486 24.0477 49.2692 24.8928 49.2491C28.1453 49.0079 29.9341 53.2901 30.0038 53.4722C30.006 53.4857 30.006 53.4996 30.0038 53.5131C30.041 53.5541 30.0875 53.5586 30.1665 53.5131C30.2736 53.4444 30.3679 53.3582 30.4452 53.2583C30.7984 52.8806 31.3745 52.2435 32.4804 52.6348C33.8743 53.1354 34.3901 55.156 34.4133 55.2424C34.421 55.2764 34.4209 55.3116 34.4128 55.3454C34.4048 55.3793 34.3891 55.411 34.3668 55.4381C34.3474 55.4642 34.3223 55.4859 34.2934 55.5017C34.2646 55.5174 34.2325 55.5267 34.1996 55.5291ZM11.1672 55.074H33.8975C33.721 54.537 33.2378 53.3857 32.341 53.0626C31.5465 52.7805 31.1562 53.1991 30.8123 53.5677C30.6893 53.7271 30.5303 53.8564 30.3477 53.9454C30.264 53.9837 30.1728 54.0035 30.0805 54.0035C29.9882 54.0035 29.897 53.9837 29.8133 53.9454C29.6938 53.8759 29.6071 53.7631 29.5717 53.6314C29.4602 53.3766 27.7503 49.4994 24.9253 49.7041C24.1441 49.7176 23.3779 49.9158 22.6918 50.2819C22.0057 50.6479 21.4202 51.171 20.9851 51.8066C20.8419 51.9878 20.6867 52.1596 20.5205 52.3208C20.0558 52.7759 19.5633 52.5711 19.0801 52.3709C18.5808 52.1033 17.9973 52.0287 17.4445 52.1616C17.0256 52.2474 16.6356 52.4355 16.3107 52.7084C15.9858 52.9813 15.7365 53.3301 15.5859 53.7225C15.5259 53.9148 15.4096 54.0857 15.2514 54.2139C15.0191 54.3687 14.6427 54.2686 14.0712 54.1229C13.4997 53.9773 12.6773 53.7589 12.2637 53.991C11.825 54.2731 11.4515 54.642 11.1672 55.074Z" fill="#263238"/>
<path d="M61.6739 40.9134C62.2028 42.2655 62.6283 43.6543 62.947 45.0683C63.1561 46.4699 63.7555 47.2299 63.5928 47.644C63.4302 48.0581 62.9052 49.0092 62.9052 49.305C63.2663 50.5505 63.723 51.7675 64.2712 52.9456C64.694 53.8285 63.4767 54.0878 63.105 54.6066C62.7332 55.1254 62.6403 56.3223 62.4684 57.8286C62.2965 59.3349 62.7844 60.1677 62.4173 60.9458C62.0502 61.724 59.6573 61.8287 58.649 61.5693C58.1002 61.4488 57.5898 61.1989 57.1622 60.8412L56.8462 62.1427C55.2848 60.9574 53.5959 59.9426 51.8095 59.1164C49.6101 58.2576 47.3603 57.5282 45.0721 56.9321L45.337 54.0241C45.337 54.0241 42.5259 49.9285 41.4107 46.4926C40.2956 43.0568 42.3122 39.1659 43.4784 37.6596C44.6447 36.1533 50.4481 35.0111 53.3985 34.961C56.349 34.911 61.0884 37.1408 61.2975 37.1909C61.5066 37.241 63.314 36.7768 63.3652 37.4548C63.3457 37.9982 63.2012 38.5302 62.9423 39.0112C62.9423 39.0112 65.2237 37.9736 65.01 39.1659C64.7963 40.3582 62.1478 41.0454 61.6739 40.9134Z" fill="white"/>
<path d="M56.8462 62.3664C56.7939 62.3657 56.7433 62.3481 56.7022 62.3163C55.1528 61.149 53.4797 60.1482 51.7119 59.331C49.5244 58.4793 47.2871 57.756 45.0118 57.1649C44.9591 57.1503 44.9132 57.1183 44.8818 57.0744C44.8505 57.0304 44.8356 56.9771 44.8398 56.9237L45.1 54.0931C44.7283 53.5425 42.2239 49.7517 41.1877 46.5707C40.0447 43.0484 42.0659 39.1166 43.2972 37.5329C44.5285 35.9493 50.5596 34.8025 53.3939 34.7433C55.9681 34.6933 59.7828 36.3133 61.0327 36.8458C61.2092 36.9231 61.3254 36.9732 61.3626 36.9823L61.6878 36.9413C62.3941 36.8503 63.0539 36.7912 63.3977 37.0642C63.4569 37.1106 63.5057 37.1685 63.5409 37.2343C63.5761 37.3001 63.5969 37.3724 63.6022 37.4465C63.6092 37.8422 63.5349 38.2353 63.3838 38.6024C63.9088 38.4203 64.6523 38.2428 65.024 38.525C65.1262 38.6061 65.2016 38.7152 65.2404 38.8384C65.2793 38.9615 65.28 39.0932 65.2424 39.2167C65.1693 39.4787 65.0393 39.722 64.8613 39.9302C64.6832 40.1383 64.4614 40.3063 64.2108 40.4227C63.5358 40.8047 62.7877 41.0463 62.0131 41.1326C62.5004 42.3938 62.8872 43.6901 63.17 45.0098C63.2668 45.5613 63.4225 46.1012 63.6347 46.6208C63.821 46.9488 63.8866 47.3296 63.8205 47.6993C63.7648 47.8449 63.6626 48.0588 63.5557 48.2818C63.3818 48.5996 63.2446 48.9354 63.1468 49.283C63.5111 50.4978 63.9598 51.6868 64.4896 52.8417C64.8613 53.6107 64.2434 54.0294 63.788 54.3343C63.6143 54.4435 63.4578 54.5768 63.3234 54.7302C63.0074 55.1853 62.8913 56.2911 62.7565 57.5881L62.7286 57.8429C62.6778 58.3947 62.6903 58.9503 62.7658 59.4994C62.8794 60.0105 62.8407 60.5428 62.6543 61.033C62.1896 62.0069 59.5923 62.0342 58.6165 61.7793C58.1605 61.6677 57.727 61.4815 57.3341 61.2287L57.1018 62.1844C57.0919 62.2219 57.0727 62.2564 57.046 62.285C57.0192 62.3136 56.9858 62.3353 56.9485 62.3482C56.9165 62.3626 56.8813 62.3688 56.8462 62.3664ZM45.3184 56.7735C47.5552 57.3575 49.7538 58.0733 51.9024 58.9169C53.5993 59.6929 55.2081 60.6416 56.7022 61.7475L56.9392 60.7873C56.9479 60.7473 56.9677 60.7105 56.9964 60.6808C57.0251 60.6511 57.0615 60.6297 57.1018 60.6189C57.1417 60.608 57.1838 60.6077 57.2239 60.6181C57.2639 60.6285 57.3003 60.6492 57.3295 60.6781C57.7338 61.0054 58.2115 61.2346 58.7234 61.347C59.7363 61.6064 61.9294 61.4517 62.2175 60.8464C62.3635 60.4306 62.3892 59.9833 62.2919 59.554C62.2115 58.9733 62.1975 58.3857 62.25 57.802L62.2779 57.5426C62.4313 56.0727 62.5428 55.0124 62.9284 54.4754C63.0965 54.271 63.3012 54.0983 63.5325 53.9657C64.0482 53.6153 64.2573 53.4196 64.0761 53.0555C63.6811 52.2364 62.6822 49.6925 62.6822 49.3012C62.7649 48.8803 62.9222 48.4767 63.1468 48.1089C63.249 47.895 63.3466 47.6948 63.3977 47.5582C63.4019 47.2922 63.338 47.0293 63.2119 46.7937C62.997 46.2437 62.8413 45.6733 62.7472 45.0917C62.4313 43.6979 62.0105 42.329 61.488 40.9961C61.472 40.9553 61.4683 40.9109 61.4774 40.8681C61.4864 40.8253 61.5079 40.786 61.5391 40.7549C61.5701 40.7244 61.609 40.7029 61.6516 40.6924C61.6941 40.682 61.7388 40.6831 61.7808 40.6957C62.5677 40.6794 63.3359 40.4579 64.0064 40.054C64.1969 39.9629 64.367 39.8355 64.5066 39.6792C64.6462 39.523 64.7526 39.341 64.8195 39.1439C64.8428 39.0119 64.8195 38.93 64.7777 38.8891C64.5547 38.7252 63.723 38.9391 63.0771 39.2304C63.0332 39.2509 62.9839 39.2574 62.936 39.249C62.8881 39.2406 62.8442 39.2177 62.8103 39.1835C62.7764 39.1493 62.7544 39.1056 62.7472 39.0585C62.7401 39.0114 62.7482 38.9633 62.7704 38.9209C63.0108 38.4765 63.1472 37.9853 63.17 37.4829C63.1706 37.4704 63.168 37.458 63.1623 37.4469C63.1566 37.4357 63.1481 37.4262 63.1375 37.4192C62.9238 37.2508 62.1525 37.3509 61.7808 37.4192C61.6161 37.4547 61.4466 37.4639 61.2789 37.4465C61.1314 37.3975 60.9871 37.3398 60.8468 37.2735C59.6202 36.7502 55.8844 35.1483 53.4125 35.2075C50.3226 35.2576 44.733 36.4499 43.655 37.8151C42.7257 39.0392 40.4954 42.9711 41.6245 46.4615C42.7257 49.7881 45.5136 53.8656 45.5136 53.9065C45.5448 53.9487 45.5596 54.0003 45.5554 54.0522L45.3184 56.7735Z" fill="#263238"/>
<path d="M62.2175 50.2018C62.3843 50.2018 62.5196 49.8045 62.5196 49.3144C62.5196 48.8243 62.3843 48.427 62.2175 48.427C62.0507 48.427 61.9155 48.8243 61.9155 49.3144C61.9155 49.8045 62.0507 50.2018 62.2175 50.2018Z" fill="#263238"/>
<path d="M61.8786 47.7947C61.82 47.7961 61.7633 47.7748 61.7206 47.7356C61.6988 47.7144 61.6815 47.6893 61.6697 47.6615C61.6579 47.6338 61.6519 47.6041 61.6519 47.574C61.6519 47.544 61.6579 47.5142 61.6697 47.4865C61.6815 47.4588 61.6988 47.4336 61.7206 47.4125C61.8353 47.2612 61.9845 47.1384 62.1564 47.0539C62.3282 46.9693 62.5179 46.9254 62.7103 46.9255C62.8274 46.937 62.9406 46.9735 63.0417 47.0324C63.1429 47.0914 63.2296 47.1714 63.2957 47.2668C63.3289 47.3176 63.3402 47.3791 63.3271 47.438C63.3141 47.4968 63.2777 47.5482 63.226 47.5808C63.1745 47.6126 63.1124 47.6237 63.0527 47.6119C62.993 47.6 62.9402 47.5661 62.9054 47.5171C62.878 47.4779 62.8422 47.4449 62.8005 47.4205C62.7588 47.3962 62.7121 47.381 62.6638 47.3761C62.5442 47.3898 62.4288 47.4277 62.3249 47.4872C62.2209 47.5467 62.1307 47.6266 62.0598 47.7219C62.0377 47.7473 62.0097 47.7672 61.9782 47.7799C61.9467 47.7925 61.9125 47.7976 61.8786 47.7947Z" fill="#263238"/>
<path d="M62.417 60.9359C62.7841 60.1578 62.3102 59.325 62.4681 57.8187C62.6261 56.3124 62.733 55.1201 63.1047 54.5967C62.0453 54.2372 59.8522 55.7936 59.6059 55.4295C59.3597 55.0655 59.1413 48.5716 59.2853 47.584C59.4294 46.5965 60.8233 46.6011 61.4088 45.3542C61.9942 44.1073 60.0148 42.7011 59.9219 41.8728C59.829 41.0446 61.6736 40.8853 61.6736 40.8853C62.1382 41.0401 64.8006 40.3665 65.0144 39.1697C65.2281 37.9728 62.9467 39.015 62.9467 39.015C63.2056 38.534 63.3501 38.002 63.3695 37.4586C63.3184 36.7806 61.511 37.2493 61.3019 37.1947C61.0928 37.1401 56.3674 34.9193 53.4029 34.9648C50.4385 35.0103 44.6491 36.1571 43.4828 37.6634C42.3165 39.1697 40.3 43.0651 41.4151 46.4964C42.3444 49.418 44.5422 52.822 45.1648 53.7776C45.3495 53.9067 45.5511 54.0108 45.7642 54.0871C47.6373 54.6389 49.6145 54.7634 51.5444 54.4511C54.1975 53.996 56.3209 53.0495 55.9492 52.3214C55.5775 51.5933 55.3637 48.5806 56.214 47.179C57.0643 45.7774 58.0168 47.9071 57.8031 50.451C57.5894 52.9949 57.0086 54.6058 56.8506 56.2168C56.6926 57.8278 57.1666 60.8404 57.1666 60.8404C57.5942 61.1981 58.1046 61.448 58.6534 61.5685C59.657 61.8461 62.0453 61.7187 62.417 60.9359Z" fill="#263238"/>
<path d="M59.9175 61.9197C59.466 61.9262 59.0152 61.8804 58.5747 61.7831C57.9881 61.652 57.4428 61.3834 56.9856 61.0004C56.9532 60.9641 56.9308 60.9202 56.9206 60.873C56.9206 60.7501 56.4559 57.8149 56.6 56.1948C56.6867 55.4683 56.8123 54.7468 56.9763 54.0332C57.2519 52.8459 57.4459 51.6418 57.5571 50.429C57.7151 48.5359 57.204 47.0888 56.7998 46.9659C56.6418 46.9158 56.4652 47.1752 56.3955 47.2935C55.6056 48.5951 55.7915 51.5348 56.14 52.2175C56.188 52.3065 56.2131 52.4057 56.2131 52.5064C56.2131 52.6072 56.188 52.7063 56.14 52.7954C55.6753 53.6646 53.4079 54.3518 51.5818 54.6703C49.6406 54.9859 47.6516 54.8661 45.7645 54.3199H45.6994C45.463 54.2346 45.2395 54.1182 45.035 53.974C45.0065 53.9591 44.9825 53.9371 44.9653 53.9103C44.3241 52.9319 42.1449 49.5189 41.1877 46.5836C40.0447 43.0613 42.0659 39.1295 43.2972 37.5458C44.5285 35.9622 50.5596 34.8154 53.3939 34.7562C55.9867 34.7198 59.7828 36.3262 61.0327 36.8587C61.2092 36.936 61.3254 36.9861 61.3626 36.9952L61.6878 36.9542C62.3941 36.8632 63.0539 36.8041 63.3977 37.0771C63.4569 37.1235 63.5057 37.1814 63.5409 37.2472C63.5761 37.313 63.5969 37.3853 63.6022 37.4594C63.6092 37.8551 63.5349 38.2482 63.3838 38.6153C63.9088 38.4332 64.6523 38.2558 65.024 38.5379C65.1262 38.619 65.2016 38.7281 65.2404 38.8513C65.2793 38.9744 65.28 39.1061 65.2424 39.2296C65.1693 39.4916 65.0393 39.7349 64.8613 39.9431C64.6832 40.1512 64.4614 40.3192 64.2108 40.4356C63.3559 40.9361 62.1153 41.2274 61.6553 41.1364C61.3115 41.1682 60.489 41.3139 60.2242 41.637C60.1952 41.6669 60.1738 41.7031 60.1617 41.7426C60.1496 41.7821 60.1472 41.8239 60.1545 41.8645C60.2871 42.2374 60.494 42.5808 60.7632 42.8748C61.3347 43.6256 62.0456 44.5585 61.6181 45.4641C61.327 46.0179 60.8741 46.4741 60.3171 46.7748C59.9036 47.0387 59.5783 47.2298 59.5133 47.6394C59.3553 48.6451 59.5644 54.5019 59.7828 55.2756C60.0935 55.1935 60.3953 55.0822 60.6842 54.9434C61.488 54.5975 62.4963 54.1652 63.1793 54.4018C63.2139 54.4132 63.2453 54.4323 63.2711 54.4576C63.2969 54.4829 63.3163 54.5136 63.328 54.5474C63.3378 54.5811 63.3399 54.6165 63.3343 54.6511C63.3287 54.6856 63.3154 54.7186 63.2955 54.7477C62.9795 55.2027 62.8634 56.3086 62.7286 57.6055L62.7008 57.8604C62.6499 58.4122 62.6624 58.9678 62.7379 59.5169C62.8515 60.028 62.8128 60.5603 62.6264 61.0505C62.3151 61.6967 61.028 61.9197 59.9175 61.9197ZM57.3666 60.7228C57.7586 61.0219 58.2119 61.2345 58.6955 61.3463C59.7084 61.6057 61.9016 61.4509 62.1896 60.8457C62.3356 60.4298 62.3614 59.9826 62.264 59.5533C62.1837 58.9726 62.1696 58.385 62.2222 57.8012L62.25 57.5418C62.2864 56.6042 62.4425 55.6747 62.7147 54.775C62.0639 54.85 61.4333 55.0445 60.8561 55.3484C60.0895 55.676 59.6248 55.8763 59.4018 55.5668C59.0487 55.1117 58.9 48.4449 59.044 47.5575C59.1369 46.9613 59.6016 46.6473 60.0523 46.3788C60.5354 46.128 60.9292 45.7391 61.1814 45.2639C61.4927 44.5995 60.9026 43.8213 60.3775 43.1296C60.0505 42.78 59.8103 42.361 59.6759 41.9055C59.6633 41.8042 59.6721 41.7014 59.7017 41.6036C59.7313 41.5057 59.781 41.4149 59.8478 41.3366C60.3125 40.7905 61.502 40.6768 61.6367 40.6631C61.6689 40.6563 61.7021 40.6563 61.7343 40.6631C62.5212 40.6467 63.2895 40.4253 63.9599 40.0214C64.1505 39.9303 64.3205 39.8029 64.4602 39.6466C64.5998 39.4903 64.7062 39.3083 64.7731 39.1113C64.7963 38.9793 64.7731 38.8974 64.7312 38.8565C64.5082 38.6926 63.6765 38.9065 63.0306 39.1978C62.9868 39.2183 62.9374 39.2248 62.8895 39.2164C62.8417 39.208 62.7977 39.1851 62.7638 39.1509C62.73 39.1167 62.7079 39.073 62.7008 39.0259C62.6936 38.9788 62.7017 38.9307 62.724 38.8883C62.9643 38.4439 63.1008 37.9527 63.1236 37.4503C63.1242 37.4378 63.1215 37.4254 63.1158 37.4143C63.1101 37.4031 63.1016 37.3936 63.0911 37.3866C62.8773 37.2182 62.106 37.3183 61.7343 37.3866C61.5696 37.4221 61.4002 37.4313 61.2325 37.4139C61.1014 37.3737 60.9727 37.3266 60.8468 37.2728C59.6202 36.7495 55.8844 35.1476 53.4125 35.2067C50.3226 35.2568 44.733 36.4491 43.655 37.8143C42.7257 39.0385 40.4954 42.9703 41.6245 46.4608C42.5538 49.3004 44.654 52.6179 45.3417 53.6327C45.4837 53.7396 45.64 53.8269 45.8063 53.8921H45.8667C47.6898 54.4234 49.6123 54.5416 51.4889 54.238C53.905 53.8102 55.4709 53.0776 55.7125 52.6043C55.7276 52.5787 55.7355 52.5496 55.7355 52.5201C55.7355 52.4905 55.7276 52.4615 55.7125 52.4359C55.3315 51.685 55.0759 48.5769 55.9866 47.0751C56.3537 46.4699 56.7347 46.4835 56.9159 46.5427C57.6733 46.7793 58.1565 48.545 57.9939 50.4791C57.8816 51.704 57.686 52.9202 57.4085 54.1197C57.2468 54.8164 57.1243 55.5213 57.0414 56.2312C57.0129 57.7355 57.1264 59.2391 57.3806 60.7228H57.3666Z" fill="#263238"/>
<path d="M57.5243 61.6568C57.5243 61.6568 57.7659 60.5919 53.5376 58.6396C49.3094 56.6874 44.8349 55.8546 44.2912 56.0912C43.7476 56.3278 43.1436 57.4564 43.1436 57.4564C45.9667 57.9476 48.7105 58.8046 51.3027 60.0048C54.9873 61.8252 58.1283 63.4361 58.1283 63.4361L57.5243 61.6568Z" fill="white"/>
<path d="M58.1289 63.6658C58.0936 63.6722 58.0574 63.6722 58.022 63.6658C57.9941 63.6658 54.8392 62.0458 51.1964 60.23C48.6253 59.0438 45.9052 58.1961 43.107 57.7089C43.0706 57.7026 43.0362 57.6883 43.0064 57.667C42.9766 57.6457 42.9522 57.618 42.935 57.586C42.919 57.5534 42.9106 57.5176 42.9106 57.4814C42.9106 57.4451 42.919 57.4094 42.935 57.3767C43.0001 57.2538 43.5948 56.1753 44.1942 55.9159C44.8726 55.6201 49.4261 56.5166 53.6358 58.4598C57.4552 60.2255 57.7711 61.3222 57.7618 61.6453L58.3519 63.3746C58.3661 63.4178 58.367 63.464 58.3546 63.5077C58.3422 63.5514 58.3171 63.5905 58.2822 63.6203C58.2382 63.6528 58.1839 63.669 58.1289 63.6658ZM43.5066 57.2948C46.2389 57.7935 48.8939 58.6363 51.4055 59.8023C54.1934 61.1675 56.6931 62.4553 57.7293 62.9878L57.3065 61.7454C57.2974 61.7111 57.2974 61.6751 57.3065 61.6408C57.3065 61.5907 57.2368 60.6077 53.4453 58.8603C49.1845 56.8898 44.868 56.1298 44.394 56.3164C44.024 56.5699 43.72 56.905 43.5066 57.2948Z" fill="#263238"/>
<path d="M59.8848 64.5784C59.353 63.553 58.4768 62.7382 57.4037 62.2712C55.4707 61.3246 53.4402 59.2449 45.5599 57.5338C44.0637 57.2107 43.5666 57.2972 43.1437 57.4747C42.2855 58.0441 41.5459 58.7684 40.9646 59.609L40.4023 60.4145C40.4023 60.4145 45.5413 60.3553 49.1051 61.4202C52.6689 62.4851 60.9535 65.6205 60.9535 65.6205L59.8848 64.5784Z" fill="#187259"/>
<path d="M60.9722 65.8472C60.9445 65.8516 60.9163 65.8516 60.8886 65.8472C60.805 65.8154 52.5761 62.7027 49.0588 61.6514C45.5414 60.6002 40.4722 60.6548 40.4257 60.6548C40.3843 60.6532 40.3439 60.6415 40.3083 60.6208C40.2726 60.6002 40.2427 60.5712 40.2212 60.5365C40.1995 60.5015 40.188 60.4614 40.188 60.4205C40.188 60.3795 40.1995 60.3394 40.2212 60.3044L40.7649 59.4762C41.3664 58.5954 42.1422 57.8418 43.0463 57.2599C43.5527 57.0461 44.1335 56.9869 45.6065 57.3055C51.8373 58.6707 54.4672 60.2543 56.2096 61.3147C56.6743 61.6059 57.0971 61.8608 57.506 62.0564C58.6115 62.5462 59.5166 63.3862 60.0755 64.441L61.1302 65.4741C61.1679 65.5112 61.1916 65.5598 61.1975 65.6119C61.2034 65.6639 61.1911 65.7164 61.1627 65.7608C61.1397 65.7883 61.1106 65.8103 61.0776 65.8253C61.0446 65.8403 61.0086 65.8478 60.9722 65.8472ZM40.8671 60.1861C42.182 60.1861 46.2523 60.3181 49.2307 61.2009C52.0185 62.0337 57.7383 64.1543 60.0708 65.0281L59.7549 64.7186C59.7336 64.6958 59.7163 64.6696 59.7037 64.6413C59.1926 63.6694 58.3583 62.8973 57.3387 62.4524C56.9112 62.243 56.4931 61.9973 56.0052 61.6878C54.2907 60.6457 51.6979 59.0666 45.5461 57.7332C44.0546 57.4101 43.6178 57.5148 43.2693 57.6604C42.4585 58.2156 41.7565 58.9093 41.197 59.7083L40.8671 60.1861Z" fill="#263238"/>
<path d="M77.109 123.127C77.109 123.127 75.2504 124.67 75.7476 125.858C76.2146 126.866 76.7406 127.848 77.3227 128.797L78.108 127.955C78.108 127.955 77.0347 125.575 77.2484 125.225C77.4621 124.875 82.6104 121.935 82.6104 121.935L84.1158 125.016L84.9011 124.383C84.9011 124.383 83.614 121.166 83.1122 120.884C82.6104 120.601 78.3728 121.73 77.109 123.127Z" fill="#263238"/>
<path d="M77.2999 129.031C77.264 129.026 77.2295 129.014 77.199 128.996C77.1684 128.977 77.1426 128.951 77.1234 128.921C76.5336 127.963 76.0029 126.97 75.5343 125.95C74.9906 124.662 76.7656 123.119 76.9282 122.969C78.2757 121.513 82.5829 120.339 83.2102 120.694C83.7399 120.989 84.79 123.533 85.0966 124.307C85.1144 124.351 85.1177 124.4 85.106 124.447C85.0944 124.493 85.0684 124.535 85.0316 124.566L84.2417 125.199C84.2146 125.22 84.1829 125.235 84.1491 125.243C84.1152 125.25 84.0801 125.25 84.0462 125.243C84.0124 125.235 83.9806 125.221 83.9533 125.2C83.926 125.179 83.9039 125.152 83.8886 125.121L82.4946 122.259C80.1482 123.624 77.6298 125.112 77.4254 125.358C77.3743 125.563 77.8343 126.833 78.3036 127.87C78.3212 127.911 78.3266 127.955 78.3192 127.999C78.3118 128.042 78.2918 128.083 78.2617 128.116L77.4765 128.958C77.4537 128.981 77.4262 128.999 77.3959 129.012C77.3655 129.025 77.3329 129.031 77.2999 129.031ZM82.8292 121.067C81.9975 121.067 78.4337 122.004 77.2535 123.283V123.306C76.7888 123.702 75.604 124.926 75.9571 125.777C76.3707 126.683 76.8361 127.566 77.351 128.421L77.8157 127.916C77.3232 126.805 76.812 125.472 77.0351 125.112C77.2581 124.753 80.9148 122.637 82.4761 121.745C82.5038 121.729 82.5346 121.719 82.5666 121.715C82.5985 121.711 82.631 121.713 82.6619 121.722C82.6929 121.731 82.7216 121.746 82.7464 121.767C82.7712 121.787 82.7914 121.812 82.8059 121.84L84.1767 124.662L84.6041 124.32C84.0094 122.851 83.2381 121.235 82.9779 121.085C82.9296 121.071 82.8794 121.065 82.8292 121.067Z" fill="#263238"/>
<path d="M78.2286 115.495L83.2328 120.328C83.4108 120.607 83.5283 120.918 83.5779 121.243C83.6274 121.568 83.608 121.9 83.5209 122.217C83.3025 122.781 79.3019 125.857 78.512 126.212C77.7221 126.567 77.2993 125.512 77.225 125.229C77.1506 124.947 76.7975 124.178 76.7278 123.969C76.6581 123.76 74.7252 121.657 74.1537 120.046C73.8681 119.321 73.6519 118.571 73.5078 117.807L78.2286 115.495Z" fill="white"/>
<path d="M78.2059 126.509C78.0738 126.51 77.9433 126.48 77.8249 126.423C77.4137 126.159 77.1198 125.753 77.0025 125.285C76.9607 125.131 76.8027 124.757 76.6866 124.484C76.6076 124.293 76.5332 124.125 76.5053 124.029C76.4775 123.934 76.3148 123.774 76.1476 123.574C75.5249 122.791 74.3633 121.335 73.9359 120.12C73.6412 119.385 73.4217 118.623 73.2807 117.845C73.2746 117.798 73.2833 117.751 73.3058 117.709C73.3283 117.668 73.3633 117.634 73.4062 117.613L78.1223 115.301C78.1667 115.281 78.2161 115.275 78.2643 115.283C78.3124 115.291 78.3568 115.313 78.3918 115.346C78.3918 115.346 83.1126 119.897 83.396 120.179C83.6074 120.489 83.7473 120.84 83.8059 121.207C83.8645 121.575 83.8403 121.951 83.7352 122.309C83.4704 123.005 79.2979 126.123 78.6241 126.428C78.4923 126.484 78.3497 126.512 78.2059 126.509ZM73.7686 117.936C73.9201 118.629 74.122 119.31 74.3726 119.975C74.7769 121.117 75.906 122.537 76.5146 123.301C76.6833 123.482 76.8284 123.682 76.9468 123.897C76.9746 123.975 77.0397 124.129 77.114 124.307C77.242 124.591 77.3552 124.881 77.4532 125.176C77.5395 125.515 77.7473 125.812 78.0387 126.013C78.0999 126.044 78.1675 126.06 78.2361 126.06C78.3048 126.06 78.3724 126.044 78.4336 126.013C79.3025 125.627 83.1358 122.591 83.317 122.15C83.4616 121.591 83.3783 120.998 83.0847 120.498L78.1827 115.774L73.7686 117.936Z" fill="#263238"/>
<path d="M21.8683 118.732C22.2174 119.558 22.6145 120.363 23.0577 121.144C23.2854 121.362 25.446 123.629 25.669 124.211C25.8921 124.794 25.669 126.769 26.4915 128.229C27.3139 129.69 26.7888 130.273 25.8921 129.981C24.9953 129.69 24.3262 127.938 24.3262 127.938C24.3262 127.938 25.1486 130.86 25.2973 131.369C25.446 131.879 27.6856 132.466 27.3092 132.976C26.9329 133.485 22.9834 133.708 22.0913 133.636C21.1992 133.563 19.5543 131.515 19.0339 131.224C18.5135 130.933 17.1754 125.381 16.7943 124.357C16.4133 123.333 15.8232 118.896 15.8232 118.896L21.8683 118.732Z" fill="white"/>
<path d="M22.4672 133.89H22.0722C21.4496 133.836 20.6783 133.117 19.749 132.184C19.499 131.917 19.227 131.67 18.9359 131.446C18.5549 131.237 18.0809 129.722 17.1609 126.409C16.9193 125.53 16.6963 124.77 16.5941 124.461C16.2177 123.428 15.6369 119.118 15.6137 118.936C15.6091 118.905 15.6112 118.873 15.6201 118.842C15.6289 118.812 15.6441 118.783 15.6648 118.759C15.7091 118.711 15.7707 118.682 15.8367 118.677L21.8771 118.531C21.9233 118.53 21.969 118.542 22.008 118.566C22.047 118.591 22.0775 118.626 22.0955 118.668C22.4203 119.468 22.7927 120.249 23.2106 121.007C23.2106 121.03 25.6128 123.474 25.873 124.156C25.9654 124.498 26.0137 124.849 26.017 125.203C26.0248 126.218 26.2512 127.219 26.6815 128.143C27.2902 129.235 27.1461 129.776 26.9277 130.04C26.782 130.18 26.5959 130.272 26.3948 130.305C26.1937 130.337 25.9872 130.308 25.8033 130.222C25.5143 130.095 25.262 129.9 25.0692 129.653C25.2736 130.372 25.4734 131.096 25.5338 131.324C25.5756 131.46 26.11 131.729 26.4306 131.892C27.0067 132.184 27.5039 132.438 27.5875 132.775C27.602 132.835 27.6029 132.898 27.5901 132.959C27.5772 133.019 27.551 133.076 27.5132 133.126C27.0625 133.749 23.7124 133.89 22.4672 133.89ZM16.0876 119.118C16.2224 120.07 16.7009 123.451 17.0169 124.297C17.1377 124.625 17.3375 125.358 17.5977 126.281C18.0345 127.856 18.8429 130.782 19.1636 131.051C19.4901 131.288 19.7906 131.558 20.0603 131.856C20.6783 132.466 21.6122 133.385 22.114 133.426C23.192 133.512 26.8116 133.235 27.1275 132.862C26.8497 132.627 26.5361 132.437 26.1983 132.297C25.6407 132.015 25.1621 131.77 25.0692 131.451C24.9205 130.937 24.0981 128.015 24.0981 128.015C24.079 127.955 24.0851 127.89 24.1152 127.834C24.1453 127.778 24.1968 127.736 24.2584 127.717C24.32 127.698 24.3867 127.704 24.4437 127.734C24.5008 127.763 24.5436 127.814 24.5627 127.874C24.7393 128.329 25.3387 129.572 25.9845 129.785C26.2726 129.876 26.5049 129.863 26.6025 129.744C26.7001 129.626 26.7372 129.13 26.3051 128.356C25.8397 127.377 25.5941 126.311 25.5849 125.23C25.5802 124.923 25.5413 124.618 25.4688 124.32C25.2829 123.824 23.2664 121.681 22.9132 121.33C22.459 120.581 22.0644 119.799 21.733 118.991L16.0876 119.118Z" fill="#263238"/>
<path d="M24.6045 132.784C24.5665 132.784 24.5291 132.774 24.4955 132.757C24.462 132.739 24.4335 132.714 24.4124 132.683C24.3913 132.652 24.3783 132.616 24.3745 132.579C24.3707 132.542 24.3763 132.504 24.3908 132.47C23.8165 132.278 23.2231 132.145 22.6205 132.074C22.2027 132.046 21.7926 131.949 21.4078 131.787C21.0918 131.555 20.4785 130.058 20.2136 129.425C20.2088 129.401 20.2088 129.377 20.2136 129.353C20.1783 128.478 20.3091 127.605 20.5993 126.777C21.0221 125.671 20.813 123.468 20.8084 123.446C20.8056 123.416 20.8089 123.386 20.8181 123.357C20.8272 123.328 20.842 123.302 20.8616 123.279C20.8813 123.256 20.9053 123.237 20.9325 123.223C20.9596 123.209 20.9893 123.2 21.0198 123.198C21.0503 123.195 21.0811 123.198 21.1103 123.207C21.1395 123.216 21.1667 123.231 21.1902 123.25C21.2137 123.269 21.2331 123.293 21.2473 123.319C21.2616 123.346 21.2703 123.375 21.273 123.405C21.273 123.5 21.4961 125.735 21.0361 126.941C20.775 127.698 20.6523 128.494 20.6736 129.293C20.9428 130.037 21.2884 130.752 21.7052 131.428C22.0368 131.513 22.3735 131.579 22.7134 131.623C24.1074 131.851 24.7811 131.997 24.8926 132.347C24.9121 132.412 24.9124 132.481 24.8935 132.546C24.8746 132.612 24.8372 132.67 24.7857 132.716C24.7622 132.739 24.7338 132.757 24.7026 132.769C24.6714 132.78 24.6379 132.786 24.6045 132.784Z" fill="#263238"/>
<path d="M58.1053 195.757C58.1053 195.757 60.0383 197.195 60.9583 197.737C61.8783 198.278 65.8277 198.647 66.1065 199.357C66.3853 200.067 65.6883 200.754 65.3027 201.09C64.917 201.427 62.1524 202.456 60.0383 202.237C59.2976 202.201 58.5553 202.262 57.8312 202.419C57.19 202.51 52.683 203.047 50.7547 203.229C48.8264 203.411 48.3618 201.864 48.2688 199.989C48.1759 198.114 48.2688 195.934 48.2688 195.934L55.9912 194.856L58.1053 195.757Z" fill="white"/>
<path d="M50.4573 203.471C49.9513 203.493 49.4548 203.331 49.0634 203.016C48.4408 202.488 48.1341 201.564 48.0505 200.012C47.9622 198.133 48.0505 195.962 48.0505 195.939C48.0532 195.887 48.0746 195.836 48.1111 195.797C48.1476 195.758 48.1968 195.733 48.2503 195.726L55.9726 194.642C56.0137 194.631 56.0571 194.631 56.0981 194.642L58.2122 195.553L58.2633 195.58C58.2633 195.58 60.1916 197.018 61.093 197.546C61.7972 197.825 62.5314 198.025 63.2815 198.142C65.0564 198.52 66.1437 198.784 66.3388 199.284C66.6873 200.194 65.772 201.004 65.47 201.268C65.0053 201.673 62.2175 202.697 60.029 202.47C59.4487 202.427 58.8652 202.465 58.2959 202.584L57.8777 202.647C57.19 202.747 52.6737 203.284 50.7872 203.462L50.4573 203.471ZM48.4965 196.135C48.4965 196.699 48.4268 198.438 48.4965 199.976C48.5662 201.373 48.8357 202.224 49.3468 202.661C49.5409 202.812 49.7657 202.92 50.0061 202.979C50.2465 203.038 50.497 203.046 50.7408 203.002C52.6226 202.829 57.125 202.288 57.808 202.192C57.9381 202.192 58.0728 202.156 58.2122 202.128C58.823 202.004 59.4489 201.966 60.0708 202.015C62.1756 202.233 64.8241 201.214 65.1586 200.923C65.8184 200.345 66.0601 199.862 65.8974 199.439C65.7813 199.134 64.1504 198.793 63.1793 198.583C62.3809 198.459 61.6008 198.241 60.856 197.933C59.9779 197.418 58.2355 196.112 58.0078 195.953L55.9773 195.088L48.4965 196.135Z" fill="#263238"/>
<path d="M60.6931 201.041C59.0343 200.937 57.8541 201.355 53.3006 201.565C51.6826 201.684 50.0563 201.632 48.4497 201.41C48.7192 202.579 49.3418 203.362 50.7729 203.23C52.7012 203.048 57.2082 202.511 57.8495 202.42C58.5735 202.263 59.3158 202.202 60.0565 202.238C62.1706 202.461 64.8981 201.464 65.3209 201.091C65.7445 200.772 66.0444 200.321 66.1712 199.812C64.7215 200.741 62.0173 201.123 60.6931 201.041Z" fill="white"/>
<path d="M50.4482 203.471C49.2634 203.471 48.5339 202.811 48.2226 201.459C48.2135 201.423 48.2143 201.385 48.2249 201.349C48.2355 201.313 48.2555 201.281 48.283 201.255C48.3086 201.228 48.3407 201.207 48.3764 201.195C48.4121 201.183 48.4503 201.18 48.4874 201.186C50.0788 201.405 51.6895 201.455 53.2919 201.336C55.5686 201.232 57.009 201.073 58.0684 200.954C58.9433 200.827 59.8284 200.78 60.7122 200.813C62.0039 200.891 64.6431 200.517 66.0277 199.625C66.0645 199.602 66.1072 199.589 66.1511 199.589C66.1949 199.588 66.238 199.6 66.2754 199.622C66.3128 199.644 66.343 199.677 66.3625 199.715C66.382 199.754 66.39 199.797 66.3855 199.839C66.2629 200.409 65.9325 200.915 65.4562 201.264C64.9916 201.669 62.2037 202.693 60.0152 202.465C59.435 202.422 58.8514 202.461 58.2821 202.579L57.8639 202.643C57.1763 202.743 52.6599 203.28 50.7735 203.457L50.4482 203.471ZM48.7662 201.691C49.0868 202.693 49.6955 203.102 50.7317 203.002C52.6135 202.829 57.1159 202.288 57.7989 202.192C57.929 202.192 58.0637 202.156 58.2031 202.128C58.814 202.004 59.4398 201.966 60.0617 202.015C62.1665 202.233 64.815 201.214 65.1496 200.922C65.3582 200.745 65.5439 200.543 65.7025 200.322C64.117 200.987 62.4039 201.309 60.6797 201.268C59.8236 201.235 58.9664 201.283 58.1195 201.409C57.0601 201.528 55.6058 201.687 53.3151 201.792C51.7988 201.89 50.2765 201.857 48.7662 201.691Z" fill="#263238"/>
<path d="M28.043 121.686C28.043 121.686 30.0642 128.889 32.55 135.192C35.0359 141.495 38.2465 150.947 38.2465 150.947L40.5698 164.636C40.5698 164.636 40.9368 171.462 42.2239 176.518C43.511 181.573 48.478 196.837 48.478 196.837C49.758 197.301 51.1192 197.513 52.4832 197.46C54.7786 197.369 58.0868 195.749 58.0868 195.749C58.0868 195.749 58.3656 193.678 58.1798 192.777C57.9939 191.876 56.8927 191.412 56.6185 190.707C56.3444 190.001 52.8456 168.945 52.8456 168.945C52.8456 168.945 51.7444 154 51.3774 151.12C51.0103 148.239 50.0903 123.929 50.0903 123.929L28.043 121.686Z" fill="#263238"/>
<path d="M52.0975 197.707C50.8274 197.713 49.5671 197.49 48.3803 197.047C48.3487 197.034 48.3202 197.015 48.2969 196.991C48.2736 196.967 48.2561 196.938 48.2456 196.906C48.1991 196.756 43.2646 181.565 41.9915 176.578C40.7183 171.59 40.3327 164.714 40.328 164.645L38.0327 150.993C38.0095 150.93 34.7802 141.505 32.3455 135.279C29.9107 129.054 27.857 121.818 27.8198 121.746C27.8098 121.71 27.8088 121.673 27.8169 121.637C27.825 121.602 27.842 121.569 27.8663 121.541C27.8903 121.512 27.9211 121.49 27.9561 121.477C27.991 121.463 28.0288 121.459 28.0661 121.463L50.132 123.711C50.188 123.717 50.24 123.742 50.2784 123.782C50.3169 123.822 50.3391 123.875 50.3411 123.93C50.3411 124.171 51.2704 148.263 51.6235 151.102C51.9767 153.942 53.0872 168.791 53.0965 168.941C54.4904 177.36 56.6556 190.112 56.8554 190.635C57.0113 190.937 57.2316 191.202 57.5013 191.413C57.9446 191.751 58.2694 192.215 58.4306 192.742C58.6211 193.652 58.3516 195.7 58.3423 195.786C58.338 195.824 58.3243 195.86 58.3024 195.891C58.2805 195.921 58.2511 195.947 58.2168 195.964C58.0774 196.027 54.8342 197.607 52.5156 197.698L52.0975 197.707ZM48.6405 196.665C49.8753 197.095 51.1826 197.291 52.4924 197.243C54.4811 197.165 57.3015 195.877 57.8916 195.609C58.0245 194.689 58.051 193.758 57.9706 192.833C57.825 192.399 57.5498 192.019 57.1807 191.741C56.8568 191.486 56.5963 191.162 56.4187 190.794C56.1445 190.075 52.9942 171.149 52.6365 168.996C52.6365 168.823 51.526 154.001 51.1635 151.157C50.8104 148.404 49.9787 126.624 49.8811 124.144L28.3588 121.95C28.7863 123.416 30.6123 129.655 32.7636 135.116C35.2216 141.35 38.4369 150.788 38.4695 150.884L40.7927 164.605C40.7927 164.696 41.1783 171.508 42.4468 176.468C43.6549 181.224 48.2038 195.313 48.6405 196.665Z" fill="#263238"/>
<path d="M12.161 184.366C12.161 184.366 5.1495 185.695 3.39779 186.241C1.64608 186.787 1.64608 187.797 2.04568 189.672C2.44527 191.547 3.23981 192.48 3.56041 192.712C3.88102 192.944 4.11799 195.897 4.99152 197.781C5.86505 199.665 7.87695 203.402 9.68906 204.334C11.5012 205.267 13.5131 205.272 13.7547 204.958C13.9963 204.644 13.2901 202.464 13.2901 202.464L11.4594 196.689C11.4594 196.689 13.5921 190.996 13.9173 190.687C14.2426 190.377 15.827 188.734 15.827 188.734L12.161 184.366Z" fill="white"/>
<path d="M12.8488 205.373C11.7144 205.339 10.6025 205.054 9.59628 204.54C7.54256 203.489 5.41449 199.175 4.79651 197.878C4.31918 196.705 3.97331 195.484 3.765 194.237C3.69572 193.772 3.57898 193.315 3.41652 192.872C3.02622 192.585 2.23168 191.58 1.83209 189.709C1.45573 187.939 1.34421 186.638 3.34218 186.014C5.08924 185.468 11.8452 184.194 12.1286 184.135C12.1694 184.127 12.2117 184.13 12.2509 184.143C12.2901 184.157 12.3249 184.181 12.3516 184.212L16.0177 188.581C16.0549 188.622 16.0754 188.676 16.0754 188.731C16.0754 188.786 16.0549 188.84 16.0177 188.881C15.948 188.949 14.4193 190.528 14.0987 190.838C13.8664 191.115 12.5235 194.542 11.7104 196.69L13.5225 202.388C13.8617 203.434 14.2195 204.754 13.9639 205.086C13.8068 205.204 13.6272 205.29 13.4358 205.339C13.2443 205.389 13.0448 205.4 12.8488 205.373ZM12.0589 184.617C11.0738 184.804 5.04742 185.982 3.45834 186.437C1.95754 186.892 1.84603 187.639 2.26421 189.623C2.63592 191.366 3.35612 192.285 3.69066 192.526C3.88117 192.667 3.96945 193.04 4.19712 194.151C4.40085 195.361 4.73573 196.546 5.19611 197.687C6.41347 200.29 8.25811 203.348 9.79143 204.131C11.6035 205.041 13.3692 204.977 13.5643 204.813C13.634 204.627 13.3552 203.475 13.0439 202.538L11.2225 196.758C11.2062 196.711 11.2062 196.66 11.2225 196.613C11.729 195.248 13.4157 190.847 13.7455 190.524C14.0011 190.274 15.1116 189.131 15.5112 188.726L12.0589 184.617Z" fill="#263238"/>
<path d="M9.68981 204.337C11.5484 205.275 13.5138 205.275 13.7554 204.961C13.8206 204.75 13.8206 204.525 13.7554 204.315C12.1292 204.237 9.38314 203.859 8.25406 202.153C6.81831 199.969 5.3872 195.29 4.75064 192.715C4.25347 190.712 3.70984 187.527 3.49146 186.212L3.39388 186.244C1.64218 186.79 1.64218 187.8 2.04177 189.675C2.44136 191.55 3.2359 192.483 3.55651 192.715C3.87711 192.947 4.11408 195.9 4.98761 197.784C5.86114 199.668 7.87769 203.404 9.68981 204.337Z" fill="white"/>
<path d="M12.8488 205.373C11.7144 205.339 10.6025 205.054 9.59628 204.54C7.54256 203.489 5.41449 199.174 4.79651 197.877C4.31918 196.704 3.97331 195.483 3.765 194.237C3.69572 193.772 3.57898 193.314 3.41652 192.872C3.02622 192.585 2.23168 191.579 1.83209 189.709C1.45573 187.939 1.34421 186.637 3.34218 186.014L3.4444 185.982C3.47626 185.972 3.50983 185.97 3.54274 185.975C3.57566 185.979 3.60712 185.991 3.6349 186.009C3.68993 186.045 3.72833 186.1 3.74177 186.164C3.95086 187.447 4.49914 190.651 4.99166 192.649C5.55388 194.924 6.99892 199.784 8.4672 202.019C9.47547 203.557 11.9149 203.985 13.7827 204.076C13.836 204.078 13.8868 204.098 13.9265 204.133C13.9663 204.168 13.9926 204.215 14.0011 204.267C14.0754 204.722 14.0615 204.945 13.9546 205.086C13.8478 205.227 13.4017 205.373 12.8488 205.373ZM3.30965 186.51C1.96219 186.965 1.86926 187.729 2.2735 189.627C2.64521 191.37 3.36541 192.289 3.69995 192.53C3.89046 192.671 3.97874 193.045 4.20642 194.155C4.41014 195.365 4.74503 196.55 5.2054 197.691C6.42277 200.294 8.2674 203.352 9.80072 204.135C11.6035 205.045 13.3599 204.981 13.5736 204.817C13.5736 204.817 13.5736 204.745 13.5736 204.531C11.6221 204.412 9.15952 203.921 8.08154 202.255C6.58074 199.98 5.11247 195.038 4.54561 192.749C4.05773 190.878 3.54662 187.93 3.30965 186.51Z" fill="#263238"/>
<path d="M35.2116 123.665C35.2116 123.665 37.8787 127.087 38.1575 127.538C38.4362 127.988 40.3599 145.095 40.5457 146.806C40.6485 148.184 40.6485 149.568 40.5457 150.947C40.5457 150.947 34.0825 157.263 29.8543 162.419C25.626 167.575 11.8633 184.135 11.8633 184.135L17.9036 193.346C17.9036 193.346 25.4541 187.43 30.8672 182.365C39.4352 174.37 47.4968 165.914 48.059 165.464C48.6212 165.013 52.3291 161.154 52.6032 160.076C52.8774 158.997 55.8279 143.857 56.8408 138.997C57.8537 134.136 59.2291 120.989 59.2291 120.989L33.9478 121.617" fill="#263238"/>
<path d="M17.8902 193.55H17.853C17.7884 193.537 17.7316 193.499 17.695 193.446L11.6547 184.235C11.6253 184.197 11.6094 184.15 11.6094 184.103C11.6094 184.055 11.6253 184.009 11.6547 183.971C11.7941 183.802 25.4639 167.324 29.6457 162.25C33.6137 157.435 39.6169 151.51 40.2907 150.846C40.3915 149.51 40.3915 148.168 40.2907 146.832C39.9747 143.879 38.1951 128.32 37.9256 127.637C37.7212 127.309 35.9277 124.984 35.0077 123.805C34.9868 123.782 34.971 123.755 34.9613 123.725C34.9516 123.696 34.9482 123.664 34.9512 123.633C34.9543 123.602 34.9638 123.573 34.9791 123.545C34.9945 123.518 35.0154 123.494 35.0405 123.475C35.0656 123.456 35.0944 123.443 35.1251 123.435C35.1558 123.427 35.1879 123.426 35.2192 123.431C35.2505 123.436 35.2804 123.447 35.3072 123.464C35.334 123.48 35.3569 123.502 35.3747 123.528C35.4863 123.669 38.0511 126.964 38.3299 127.423C38.6644 127.965 40.7321 146.596 40.7553 146.782C40.8567 148.174 40.8567 149.572 40.7553 150.964C40.751 151.019 40.7262 151.071 40.6856 151.11C40.6206 151.174 34.1806 157.481 29.9988 162.537C26.0122 167.374 13.4017 182.56 12.11 184.13L17.9088 192.986C19.1447 192.007 25.8077 186.701 30.654 182.173C36.7919 176.453 42.5907 170.569 45.7084 167.406C46.9815 166.114 47.6831 165.404 47.8504 165.267C48.5009 164.735 52.0694 160.967 52.3203 159.997C52.4643 159.424 53.3797 154.814 54.3461 149.931C55.2011 145.635 56.0839 141.189 56.5532 138.928C57.4825 134.509 58.7138 123.064 58.9136 121.18L33.8972 121.803C33.8667 121.804 33.8362 121.8 33.8075 121.789C33.7789 121.779 33.7526 121.763 33.7301 121.743C33.7077 121.723 33.6895 121.698 33.6768 121.671C33.664 121.644 33.6568 121.614 33.6556 121.585C33.6555 121.524 33.679 121.466 33.7213 121.422C33.7637 121.378 33.8216 121.351 33.8832 121.348L59.1645 120.72C59.1977 120.718 59.2309 120.723 59.2616 120.736C59.2922 120.749 59.3194 120.768 59.3411 120.793C59.3642 120.816 59.3817 120.844 59.3921 120.875C59.4026 120.905 59.4058 120.938 59.4015 120.97C59.4015 121.102 58.0075 134.167 57.0085 139C56.5439 141.276 55.6564 145.704 54.8061 149.999C53.835 154.887 52.9197 159.506 52.7663 160.089C52.4643 161.276 48.5846 165.235 48.1478 165.599C47.9991 165.718 47.1767 166.551 46.043 167.702C42.9252 170.887 37.1172 176.758 30.9746 182.487C25.6172 187.493 18.0761 193.409 17.9971 193.482C17.9698 193.515 17.9323 193.539 17.8902 193.55Z" fill="#263238"/>
<path d="M40.9642 59.5718C40.9642 59.5718 36.4944 61.879 34.1386 63.003C31.7829 64.1271 23.9165 66.4389 23.1359 67.6812C22.3553 68.9236 22.4714 70.8667 22.4714 70.8667C22.4714 70.8667 14.7583 91.6637 14.5725 95.2906C14.3866 98.9176 15.1393 119.555 15.1393 119.555C15.1393 119.555 15.7109 120.388 18.7496 120.297C21.7884 120.206 23.0197 119.646 23.0197 119.646C23.0197 119.646 24.5391 98.822 24.8225 97.6115C25.0076 96.8473 25.2627 96.101 25.5845 95.3816L28.9021 88.8741C28.9021 88.8741 30.0451 95.5682 30.0451 95.8458C30.0451 96.1234 23.7771 121.225 23.7771 121.225C23.7771 121.225 23.7771 122.9 34.8821 124.411C45.987 125.922 55.6702 126.827 56.1442 126.827C56.6181 126.827 59.1829 122.645 59.1829 122.645C59.1829 122.645 59.8474 124.966 59.6476 125.248C59.4478 125.53 61.548 124.793 62.0219 124.411L63.9176 122.923C63.9176 122.923 60.9764 106.931 60.9764 105.726C60.9764 104.52 61.7385 100.146 61.7385 100.146L72.7459 119.856C72.7459 119.856 72.7459 120.133 75.4036 118.645C76.8776 117.857 78.2216 116.855 79.3903 115.673L70.4691 94.1984C70.4691 94.1984 68.3829 70.489 68.1924 69.2831C68.0019 68.0771 68.4758 67.795 67.3374 67.2352C66.199 66.6755 60.9671 65.6197 60.9671 65.6197C60.9671 65.6197 52.3527 62.3887 49.1187 61.4194C45.8848 60.4501 40.9642 59.5718 40.9642 59.5718Z" fill="#187259"/>
<path d="M56.1396 127.055C55.5867 127.055 45.6526 126.081 34.8496 124.634C24.0467 123.186 23.5402 121.562 23.5402 121.248C23.538 121.23 23.538 121.211 23.5402 121.193C25.6729 112.642 29.7293 96.3324 29.799 95.85C29.799 95.6407 29.2228 92.2322 28.7768 89.6246L25.7844 95.5224C25.4824 96.2228 25.243 96.9476 25.0689 97.6885C24.7901 98.8626 23.2847 119.478 23.2707 119.682C23.2684 119.723 23.2545 119.763 23.2308 119.796C23.207 119.83 23.1742 119.857 23.136 119.873C23.0849 119.901 21.8257 120.451 18.773 120.547C15.7203 120.643 15.0558 119.796 14.9675 119.701C14.9434 119.665 14.929 119.625 14.9257 119.582C14.9257 119.377 14.1684 98.8945 14.3589 95.2994C14.5494 91.7043 21.7699 72.1816 22.2578 70.8573C22.2578 70.5342 22.202 68.7685 22.9594 67.5717C23.4705 66.7616 26.2537 65.715 30.1242 64.3224C31.7272 63.7445 33.242 63.1984 34.0551 62.8116C36.3783 61.7012 40.8296 59.4076 40.8761 59.3803C40.924 59.3625 40.9769 59.3625 41.0248 59.3803C41.0759 59.3803 46.0011 60.2586 49.2118 61.2006C52.4225 62.1426 60.9859 65.3782 61.0741 65.4101C61.2507 65.4419 66.3107 66.4704 67.463 67.0347C68.3551 67.4898 68.3923 67.8129 68.3923 68.4318C68.3871 68.7042 68.4042 68.9766 68.4434 69.2464C68.6292 70.4386 70.5993 92.7692 70.7201 94.1435L79.632 115.587C79.6473 115.625 79.6515 115.668 79.6442 115.708C79.6368 115.749 79.6181 115.787 79.5902 115.819C78.4067 117.024 77.0419 118.044 75.5431 118.845C73.0108 120.26 72.7924 120.137 72.6623 120.065C72.6234 120.039 72.5915 120.005 72.5694 119.964L61.8826 100.851C61.6735 102.112 61.2368 104.842 61.2368 105.743C61.2368 106.644 63.1604 117.375 64.178 122.9C64.1845 122.94 64.1802 122.981 64.1655 123.02C64.1509 123.058 64.1263 123.092 64.0943 123.118L62.1939 124.606C61.9198 124.82 59.8707 125.78 59.5129 125.48C59.4824 125.46 59.4564 125.434 59.4366 125.404C59.4168 125.374 59.4036 125.34 59.3979 125.304C59.3923 125.269 59.3942 125.232 59.4036 125.198C59.413 125.163 59.4296 125.13 59.4525 125.102C59.4003 124.457 59.2772 123.819 59.0855 123.2C57.515 125.767 56.5206 127.055 56.1396 127.055ZM24.0095 121.257C24.0792 121.384 25.0271 122.859 34.91 124.183C46.1126 125.685 55.7121 126.599 56.1396 126.599C56.423 126.463 57.8216 124.42 58.9786 122.504C59.0024 122.466 59.037 122.435 59.0783 122.416C59.1195 122.396 59.1656 122.389 59.2109 122.395C59.2557 122.4 59.2977 122.419 59.3316 122.448C59.3655 122.477 59.3898 122.516 59.4014 122.558C59.6675 123.359 59.839 124.186 59.9125 125.025C60.6028 124.839 61.2651 124.565 61.8826 124.21L63.6715 122.804C63.3695 121.157 60.7489 106.877 60.7489 105.702C60.7489 104.528 61.483 100.264 61.5109 100.087C61.5189 100.04 61.5416 99.9971 61.5757 99.9637C61.6099 99.9303 61.6538 99.9081 61.7014 99.9002C61.7488 99.891 61.798 99.8971 61.8416 99.9176C61.8852 99.9381 61.9208 99.9719 61.943 100.014L72.89 119.641C73.7281 119.324 74.5327 118.928 75.2922 118.458C76.6969 117.694 77.9869 116.743 79.1255 115.632L70.2601 94.2891C70.2575 94.268 70.2575 94.2466 70.2601 94.2254C70.2601 93.9888 68.1692 70.5115 67.9834 69.3283C67.9401 69.0268 67.9215 68.7225 67.9276 68.4181C67.9276 67.8993 67.9276 67.7628 67.2585 67.4306C66.1573 66.8936 60.9951 65.8469 60.944 65.8333C60.8186 65.7923 52.2645 62.5841 49.077 61.6284C46.1126 60.741 41.666 59.9264 41.0201 59.8081C40.4393 60.1084 36.4294 62.1699 34.2549 63.2075C33.4232 63.608 31.8992 64.1541 30.2822 64.7366C27.5547 65.715 23.8236 67.0574 23.3544 67.7992C22.6156 68.9688 22.7224 70.8437 22.7224 70.8619C22.7273 70.892 22.7273 70.9227 22.7224 70.9529C22.6481 71.1622 15.0187 91.7589 14.8235 95.3085C14.6423 98.7671 15.3393 118.04 15.3904 119.473C15.553 119.614 16.3197 120.156 18.759 120.078C20.1333 120.084 21.5007 119.888 22.8154 119.496C22.9641 117.503 24.3394 98.7443 24.6135 97.5702C24.8025 96.7907 25.0622 96.0292 25.3895 95.2949L28.7163 88.7782C28.7383 88.7354 28.7735 88.7005 28.8169 88.6784C28.8602 88.6564 28.9096 88.6483 28.958 88.6553C29.0062 88.6629 29.0508 88.685 29.0857 88.7183C29.1206 88.7517 29.1442 88.7949 29.1531 88.8419C29.3436 89.9614 30.2961 95.5679 30.2961 95.85C30.2961 96.1322 25.4964 115.309 24.0095 121.257Z" fill="#263238"/>
<path d="M28.902 88.8972L25.7656 72.4417L27.0945 92.0599L28.902 88.8972Z" fill="#263238"/>
<path d="M27.0947 92.2866H27.0436C26.9949 92.2744 26.9513 92.2478 26.9188 92.2102C26.8863 92.1727 26.8666 92.1262 26.8624 92.0772L25.5335 72.4589C25.5306 72.401 25.55 72.3441 25.5878 72.2994C25.6257 72.2548 25.6792 72.2256 25.7379 72.2177C25.7967 72.2108 25.8559 72.2256 25.9041 72.2593C25.9523 72.293 25.9858 72.3431 25.9981 72.3998L29.1298 88.8553C29.1392 88.9085 29.1293 88.9632 29.1019 89.01L27.2991 92.1682C27.2787 92.2038 27.249 92.2335 27.2131 92.2543C27.1772 92.2751 27.1364 92.2862 27.0947 92.2866ZM26.2583 76.2679L27.2759 91.2854L28.6698 88.8689L26.2583 76.2679Z" fill="#263238"/>
<path d="M44.8443 84.2906C44.8105 84.2906 44.7771 84.2833 44.7465 84.2691C44.716 84.255 44.6891 84.2343 44.6677 84.2087C44.1675 83.6194 43.7344 82.9785 43.376 82.2974C43.3558 82.2453 43.3558 82.1878 43.376 82.1357C43.3962 82.0837 43.4352 82.0407 43.4855 82.0149C43.5359 81.9891 43.5942 81.9823 43.6494 81.9958C43.7046 82.0093 43.7528 82.0421 43.7849 82.088C44.1291 82.7364 44.5435 83.3466 45.0208 83.9083C45.0425 83.9291 45.0596 83.9539 45.0714 83.9812C45.0831 84.0086 45.0892 84.0379 45.0892 84.0676C45.0892 84.0973 45.0831 84.1266 45.0714 84.154C45.0596 84.1813 45.0425 84.2061 45.0208 84.2269C44.9972 84.2485 44.9695 84.2653 44.9391 84.2763C44.9088 84.2872 44.8765 84.2921 44.8443 84.2906Z" fill="#263238"/>
<path d="M43.1343 81.51C43.0889 81.5102 43.0445 81.4973 43.0066 81.4731C42.9686 81.4488 42.9387 81.4142 42.9205 81.3735C40.7507 76.5725 40.5323 69.8191 40.5323 69.7509C40.5317 69.721 40.5371 69.6913 40.5482 69.6635C40.5593 69.6356 40.5759 69.6102 40.597 69.5886C40.6182 69.5671 40.6434 69.5498 40.6714 69.5378C40.6993 69.5259 40.7294 69.5194 40.7599 69.5188C40.8209 69.5198 40.8792 69.5434 40.9231 69.5848C40.967 69.6261 40.9934 69.6822 40.9969 69.7418C40.9969 69.8055 41.2153 76.4678 43.3201 81.1915C43.3332 81.2186 43.3406 81.248 43.3418 81.2779C43.3431 81.3079 43.3381 81.3378 43.3273 81.3658C43.3164 81.3939 43.2999 81.4195 43.2787 81.4411C43.2575 81.4628 43.2321 81.48 43.204 81.4918C43.1818 81.5013 43.1583 81.5075 43.1343 81.51Z" fill="#263238"/>
<path d="M41.7126 81.2235C41.6721 81.2233 41.6323 81.2126 41.5972 81.1927C41.5622 81.1727 41.5331 81.1441 41.5128 81.1097C40.4415 79.2542 39.6349 77.2637 39.1152 75.1938C39.1084 75.1645 39.1075 75.1341 39.1127 75.1045C39.1179 75.0749 39.129 75.0466 39.1454 75.0212C39.1618 74.9958 39.1832 74.9739 39.2084 74.9566C39.2335 74.9394 39.2618 74.9272 39.2918 74.9207C39.3214 74.914 39.3521 74.9132 39.382 74.9184C39.412 74.9235 39.4406 74.9344 39.4661 74.9506C39.4917 74.9667 39.5137 74.9876 39.5308 75.0122C39.5479 75.0368 39.5599 75.0645 39.5659 75.0936C40.0762 77.1207 40.8672 79.0698 41.917 80.8867C41.9459 80.9395 41.9529 81.0012 41.9364 81.0589C41.92 81.1165 41.8814 81.1657 41.8288 81.1962C41.7936 81.2162 41.7532 81.2257 41.7126 81.2235Z" fill="#263238"/>
<path d="M39.4126 103.282C39.3607 103.281 39.3106 103.264 39.2696 103.232C39.2286 103.201 39.1989 103.158 39.1849 103.109C39.1708 103.05 39.1809 102.988 39.2131 102.936C39.2452 102.884 39.2968 102.847 39.3568 102.831C43.0415 101.921 47.7576 100.802 50.3224 100.26C49.1283 100.315 47.4602 100.433 45.9083 100.561C45.8467 100.565 45.7857 100.546 45.7386 100.507C45.6915 100.468 45.6623 100.412 45.6574 100.351C45.6525 100.291 45.6722 100.231 45.7123 100.185C45.7524 100.139 45.8095 100.11 45.8711 100.106C52.2089 99.5822 52.2368 99.7824 52.2739 100.033C52.3111 100.283 52.0834 100.374 51.1588 100.556C48.882 101.011 43.5433 102.281 39.4684 103.287L39.4126 103.282Z" fill="#263238"/>
<path d="M34.9752 104.369C34.9447 104.372 34.9138 104.37 34.8842 104.362C34.8546 104.354 34.827 104.34 34.8028 104.321C34.7786 104.303 34.7585 104.28 34.7434 104.253C34.7283 104.227 34.7187 104.198 34.715 104.168C34.7114 104.139 34.7138 104.108 34.7221 104.079C34.7304 104.05 34.7444 104.023 34.7634 104C34.7824 103.976 34.8059 103.956 34.8327 103.941C34.8595 103.927 34.889 103.917 34.9195 103.914L36.9221 103.418C36.9819 103.404 37.0447 103.414 37.0969 103.445C37.1492 103.477 37.1865 103.528 37.2009 103.586C37.2085 103.615 37.2102 103.645 37.2059 103.674C37.2016 103.703 37.1914 103.731 37.1758 103.757C37.1602 103.782 37.1396 103.804 37.1152 103.822C37.0908 103.84 37.0631 103.852 37.0336 103.859L35.031 104.355L34.9752 104.369Z" fill="#263238"/>
<path d="M61.7434 100.147C61.7434 100.147 59.5596 96.6154 59.3691 95.778C59.1786 94.9407 57.6592 85.8301 57.6592 85.8301C57.6592 85.8301 58.7046 100.333 59.0856 102.286C59.3951 103.577 60.0493 104.764 60.9814 105.726L61.7434 100.147Z" fill="#263238"/>
<path d="M60.9815 105.953C60.951 105.953 60.9208 105.947 60.8928 105.935C60.8648 105.924 60.8396 105.906 60.8189 105.885C59.8508 104.892 59.1735 103.663 58.8581 102.326C58.4771 100.383 57.4641 86.4391 57.427 85.8475C57.4233 85.8177 57.4257 85.7874 57.434 85.7584C57.4423 85.7294 57.4563 85.7023 57.4753 85.6786C57.4943 85.655 57.5178 85.6352 57.5446 85.6205C57.5714 85.6057 57.6009 85.5963 57.6314 85.5927C57.6619 85.5891 57.6928 85.5914 57.7224 85.5996C57.752 85.6077 57.7797 85.6214 57.8038 85.64C57.828 85.6586 57.8482 85.6817 57.8633 85.7079C57.8783 85.7342 57.8879 85.763 57.8916 85.7929C57.8916 85.8839 59.411 94.8944 59.5968 95.7272C59.7455 96.3825 61.3393 99.0538 61.9201 100.028C61.9491 100.072 61.9607 100.126 61.9526 100.178L61.1952 105.753C61.189 105.795 61.171 105.835 61.1431 105.868C61.1152 105.901 61.0786 105.925 61.0372 105.939C61.0195 105.946 61.0007 105.951 60.9815 105.953ZM58.268 90.8534C58.6072 95.2403 59.0857 101.07 59.3134 102.23C59.5657 103.319 60.0821 104.332 60.8189 105.184L61.5019 100.178C61.1859 99.6636 59.3274 96.6146 59.1415 95.8091C59.0486 95.4223 58.6583 93.1333 58.268 90.8534Z" fill="#263238"/>
<path d="M57.0922 84.0134C57.0393 84.0137 56.9879 83.9962 56.9465 83.9639C56.9051 83.9317 56.8762 83.8865 56.8646 83.836C56.8646 83.836 56.6834 83.0669 56.4789 81.9064C56.4737 81.8766 56.4746 81.846 56.4815 81.8164C56.4884 81.7869 56.5011 81.7589 56.519 81.7342C56.5369 81.7095 56.5596 81.6885 56.5858 81.6723C56.612 81.6562 56.6412 81.6453 56.6717 81.6402C56.7023 81.6351 56.7335 81.636 56.7637 81.6427C56.7938 81.6495 56.8223 81.662 56.8476 81.6795C56.8728 81.6971 56.8943 81.7193 56.9108 81.745C56.9272 81.7706 56.9384 81.7992 56.9436 81.8291C57.148 82.9759 57.3246 83.7267 57.3246 83.7313C57.3321 83.7603 57.3337 83.7905 57.3291 83.8201C57.3245 83.8497 57.3138 83.8781 57.2978 83.9036C57.2817 83.929 57.2606 83.9511 57.2357 83.9684C57.2107 83.9857 57.1825 83.9979 57.1527 84.0043L57.0922 84.0134Z" fill="#263238"/>
<path d="M56.4839 80.7239C56.4277 80.7235 56.3736 80.7036 56.3311 80.6677C56.2885 80.6319 56.2603 80.5825 56.2515 80.5282C55.8493 78.0948 55.7354 75.624 55.9123 73.1651C56.377 68.5051 60.2196 67.4903 60.2614 67.4812C60.291 67.4737 60.3218 67.4719 60.3521 67.4761C60.3824 67.4803 60.4115 67.4902 60.4379 67.5055C60.4642 67.5207 60.4872 67.5408 60.5055 67.5648C60.5239 67.5887 60.5373 67.616 60.5448 67.645C60.5591 67.7035 60.5496 67.7651 60.5184 67.8169C60.4872 67.8687 60.4367 67.9066 60.3776 67.9226C60.2335 67.959 56.823 68.8737 56.3723 73.2106C56.2027 75.6333 56.3165 78.0671 56.7115 80.4645C56.7196 80.524 56.7038 80.5844 56.6674 80.6327C56.631 80.6811 56.5769 80.7138 56.5164 80.7239H56.4839Z" fill="#263238"/>
<path d="M55.9492 79.7366C55.9035 79.7358 55.859 79.7221 55.8211 79.697C55.7831 79.672 55.7534 79.6367 55.7355 79.5955C55.1771 77.4465 54.8562 75.245 54.7783 73.0288C54.7783 72.9685 54.8028 72.9106 54.8464 72.8679C54.8899 72.8252 54.949 72.8013 55.0106 72.8013C55.0723 72.8013 55.1313 72.8252 55.1749 72.8679C55.2185 72.9106 55.243 72.9685 55.243 73.0288C55.3174 75.2046 55.6289 77.3663 56.1723 79.4772C56.1814 79.5059 56.1846 79.5361 56.1816 79.566C56.1786 79.5959 56.1694 79.6249 56.1547 79.6513C56.1399 79.6776 56.1199 79.7008 56.0957 79.7194C56.0716 79.7379 56.0439 79.7515 56.0143 79.7594L55.9492 79.7366Z" fill="#263238"/>
<path d="M90.3843 121.307C90.3843 121.307 71.6498 130.905 71.069 131.601C70.4882 132.298 70.8553 133.422 70.9993 133.913C71.1434 134.405 75.6458 152.403 76.2173 152.68C76.7888 152.958 78.5777 152.052 78.5777 152.052C78.5777 152.052 80.5803 153.24 81.0774 153.031C81.5746 152.821 98.5248 142.528 99.4541 141.686C100.383 140.844 100.314 140.216 100.026 139.588C99.7375 138.96 95.3792 129.362 95.3792 129.362C95.515 129.157 95.6043 128.926 95.6412 128.684C95.678 128.442 95.6616 128.196 95.5929 127.961C95.3095 127.333 92.9491 122.709 92.4473 122.008C91.9455 121.307 92.2428 120.552 90.3843 121.307Z" fill="#969696"/>
<path d="M80.9516 153.281C80.3243 153.281 79.1766 152.662 78.5772 152.312C78.1126 152.548 76.7187 153.172 76.1239 152.885C75.8312 152.739 75.1946 151.269 71.1429 135.378C70.9385 134.568 70.8038 134.054 70.7852 133.977V133.922C70.6225 133.371 70.288 132.229 70.9153 131.46C71.5425 130.691 88.3719 122.09 90.2956 121.107C91.722 120.52 92.0891 120.729 92.4236 121.462C92.4847 121.612 92.561 121.755 92.6513 121.89C93.167 122.609 95.5274 127.237 95.8202 127.879C95.9044 128.127 95.933 128.39 95.9042 128.65C95.8753 128.91 95.7896 129.16 95.6529 129.385L100.253 139.501C100.536 140.129 100.685 140.903 99.6256 141.863C98.6963 142.691 81.8437 152.971 81.1839 153.24C81.1101 153.269 81.031 153.283 80.9516 153.281ZM78.5865 151.825C78.6291 151.824 78.671 151.835 78.7073 151.856C79.7203 152.457 80.7889 152.912 80.998 152.821C81.6857 152.516 98.4686 142.277 99.305 141.522C100.141 140.766 100.058 140.193 99.8207 139.679C99.5373 139.046 95.1743 129.453 95.1743 129.453C95.156 129.42 95.1464 129.384 95.1464 129.346C95.1464 129.309 95.156 129.272 95.1743 129.239C95.2886 129.066 95.3649 128.871 95.3985 128.668C95.4321 128.464 95.4222 128.256 95.3695 128.056C95.086 127.428 92.7349 122.823 92.2471 122.14C92.1382 121.983 92.0463 121.815 91.9729 121.639C91.7778 121.207 91.6895 121.007 90.4628 121.517C83.0053 125.335 71.7423 131.205 71.2405 131.747C70.7387 132.288 71.0547 133.321 71.1941 133.795V133.849C71.2173 133.931 71.3474 134.45 71.5565 135.264C74.3443 146.118 75.9334 151.911 76.3237 152.489C76.649 152.594 77.6572 152.248 78.4425 151.847C78.4863 151.823 78.5373 151.815 78.5865 151.825Z" fill="#263238"/>
<path d="M71.0083 133.913C71.1477 134.404 75.6548 152.403 76.2263 152.68C76.7978 152.958 78.5866 152.052 78.5866 152.052C78.5866 152.052 80.487 153.181 81.0446 153.04C79.6507 149.445 74.2376 135.342 73.2944 133.016C72.4952 131.032 71.6542 131.228 71.2778 131.456L71.1245 131.574H71.1012C70.5065 132.302 70.8643 133.421 71.0083 133.913Z" fill="#263238"/>
<path d="M80.9469 153.276C80.3104 153.276 79.0884 152.612 78.5772 152.311C78.1126 152.548 76.7187 153.171 76.1239 152.885C75.8312 152.739 75.1946 151.269 71.1429 135.378C70.9385 134.568 70.8038 134.054 70.7852 133.976V133.922C70.6225 133.371 70.288 132.229 70.9153 131.46L70.9524 131.419L70.9896 131.387C71.0314 131.35 71.0918 131.31 71.1662 131.255C71.3016 131.167 71.4556 131.111 71.6165 131.089C71.7774 131.068 71.9411 131.083 72.0955 131.132C72.6345 131.305 73.1177 131.906 73.5266 132.92C74.1027 134.349 76.3423 140.17 78.3217 145.308C79.5809 148.575 80.7285 151.56 81.2768 152.957C81.2875 152.988 81.2918 153.02 81.2894 153.052C81.2869 153.084 81.2778 153.116 81.2626 153.144C81.2474 153.173 81.2263 153.198 81.2008 153.218C81.1753 153.239 81.1458 153.254 81.1142 153.262C81.0591 153.273 81.003 153.277 80.9469 153.276ZM78.5865 151.824C78.6291 151.823 78.671 151.834 78.7073 151.856C79.332 152.234 79.9993 152.539 80.696 152.766C80.1152 151.265 79.0372 148.475 77.871 145.444C75.8962 140.311 73.652 134.49 73.0805 133.062C72.6159 131.965 72.2116 131.628 71.9375 131.537C71.8482 131.51 71.7538 131.502 71.6612 131.516C71.5687 131.529 71.4804 131.563 71.4031 131.614C71.3582 131.642 71.3161 131.674 71.2777 131.71C70.7852 132.306 71.0732 133.298 71.2126 133.771V133.826C71.2359 133.908 71.366 134.427 71.5751 135.241C74.3629 146.095 75.952 151.888 76.3423 152.466C76.6676 152.571 77.6758 152.225 78.4611 151.824C78.502 151.812 78.5457 151.812 78.5865 151.824Z" fill="#263238"/>
<path d="M76.7283 141.354C76.6782 141.354 76.6295 141.338 76.5894 141.308C76.5494 141.279 76.5201 141.238 76.506 141.19C76.4919 141.143 76.4937 141.093 76.5111 141.047C76.5286 141.001 76.5608 140.962 76.6029 140.935L94.8355 129.731C94.8612 129.715 94.8901 129.704 94.9204 129.698C94.9506 129.693 94.9817 129.694 95.0117 129.701C95.0416 129.707 95.0699 129.72 95.0947 129.738C95.1195 129.756 95.1404 129.778 95.1561 129.804C95.1728 129.829 95.1842 129.857 95.1896 129.886C95.1949 129.915 95.194 129.946 95.1871 129.975C95.1801 130.004 95.1672 130.031 95.1491 130.055C95.131 130.079 95.108 130.099 95.0817 130.114L76.8491 141.318C76.8141 141.342 76.7716 141.355 76.7283 141.354Z" fill="#263238"/>
<path d="M85.1616 134.964L86.4487 137.134L88.3073 135.805L87.0945 133.771L85.1616 134.964Z" fill="white"/>
<path d="M86.4486 137.364H86.4021C86.3703 137.357 86.3402 137.344 86.3138 137.325C86.2874 137.306 86.2653 137.282 86.2488 137.254L84.9617 135.084C84.9323 135.033 84.9241 134.973 84.9388 134.916C84.9535 134.859 84.99 134.81 85.0407 134.779L86.969 133.587C87.0237 133.555 87.0885 133.546 87.1502 133.559C87.1803 133.566 87.2087 133.579 87.2335 133.597C87.2582 133.615 87.2789 133.638 87.2943 133.664L88.5116 135.694C88.541 135.742 88.5507 135.8 88.5386 135.856C88.5266 135.912 88.4937 135.961 88.4466 135.994L86.588 137.323C86.5477 137.352 86.4985 137.366 86.4486 137.364ZM85.4775 135.043L86.5229 136.804L88.0052 135.744L87.0155 134.092L85.4775 135.043Z" fill="#263238"/>
</svg>
