<svg width="114" height="38" viewBox="0 0 114 38" fill="none" xmlns="http://www.w3.org/2000/svg">
<path fill-rule="evenodd" clip-rule="evenodd" d="M18.9424 6.73418C18.9244 6.73418 18.9064 6.7341 18.8884 6.73402C18.8524 6.73387 18.8164 6.73371 18.7805 6.73418H18.9424Z" fill="black"/>
<path d="M33.5945 29.3819C33.5945 27.5001 32.0542 25.9747 30.1541 25.9747C29.3931 25.9747 28.6899 26.2193 28.1202 26.6336C27.8583 26.9327 27.5818 27.2188 27.2917 27.491C25.1155 29.5326 22.1766 30.7848 18.9424 30.7848C12.2363 30.7848 6.79985 25.4009 6.79985 18.7595C6.79985 12.1181 12.2363 6.73418 18.9424 6.73418H18.7805C18.8164 6.73371 18.8524 6.73387 18.8884 6.73402C18.9064 6.7341 18.9244 6.73418 18.9424 6.73418H38.0468C39.9245 6.73418 41.4467 5.22668 41.4467 3.36709C41.4467 1.5075 39.9245 0 38.0468 0H19.0234C18.9423 0 18.8614 0.000502214 18.7805 0.00150369C8.38612 0.130288 0 8.51509 0 18.8397C0 29.2445 8.58076 37.8397 19.0234 37.6793C29.466 37.519 33.6005 39.1224 33.5945 29.3819Z" fill="black"/>
<path d="M25.9042 16.9958C25.9042 19.5638 23.8021 21.6456 21.209 21.6456C18.616 21.6456 16.5139 19.5638 16.5139 16.9958C16.5139 14.4278 18.616 12.346 21.209 12.346C23.8021 12.346 25.9042 14.4278 25.9042 16.9958Z" fill="#187259"/>
<path d="M30.8517 21.1171C31.5022 21.4546 32.2425 21.6456 33.0278 21.6456C35.6209 21.6456 37.723 19.5638 37.723 16.9958C37.723 14.4278 35.6209 12.346 33.0278 12.346C31.8193 12.346 30.7174 12.7982 29.8852 13.5411C28.9319 14.3921 28.3327 15.6247 28.3327 16.9958C28.3327 18.7861 29.3543 20.34 30.8517 21.1171Z" fill="#187259"/>
<path d="M48.2465 12.5063C44.4911 12.5063 41.4467 15.5213 41.4467 19.2405V34.6329C41.4467 36.4925 42.9689 38 44.8466 38C46.7243 38 48.2465 36.4925 48.2465 34.6329V18.9198C48.2465 18.9198 48.1097 16.1098 48.8132 14.8312C49.5167 13.5527 51.8893 12.5063 51.8893 12.5063H48.2465Z" fill="black"/>
<path fill-rule="evenodd" clip-rule="evenodd" d="M64.5985 38C71.6624 38 77.3887 32.3289 77.3887 25.3333C77.3887 18.3377 71.6624 12.6667 64.5985 12.6667C57.5347 12.6667 51.8084 18.3377 51.8084 25.3333C51.8084 32.3289 57.5347 38 64.5985 38ZM64.5985 31.2658C67.9069 31.2658 70.5889 28.6098 70.5889 25.3333C70.5889 22.0569 67.9069 19.4008 64.5985 19.4008C61.2902 19.4008 58.6082 22.0569 58.6082 25.3333C58.6082 28.6098 61.2902 31.2658 64.5985 31.2658Z" fill="black"/>
<path d="M89.5366 36.9818C91.2634 36.2513 92.0653 34.2728 91.3277 32.5627L88.2361 25.395L85.1445 32.5627C84.4069 34.2728 85.2088 36.2513 86.9356 36.9818C87.3603 37.1615 87.8014 37.2489 88.2361 37.2532C88.6708 37.2489 89.1119 37.1615 89.5366 36.9818Z" fill="black"/>
<path fill-rule="evenodd" clip-rule="evenodd" d="M77.6971 18.1039C76.9595 16.3938 77.7614 14.4153 79.4882 13.6849C81.2149 12.9544 83.2127 13.7485 83.9503 15.4586L88.2361 25.395L85.1445 32.5627C84.4069 34.2728 85.2088 36.2513 86.9356 36.9818C87.3603 37.1615 87.8014 37.2489 88.2361 37.2532C86.9034 37.2662 85.6306 36.4975 85.0744 35.208L77.6971 18.1039ZM95.6804 25.279L91.3978 35.208C90.8416 36.4975 89.5689 37.2662 88.2361 37.2532C88.6708 37.2489 89.1119 37.1615 89.5366 36.9818C91.2634 36.2513 92.0653 34.2728 91.3277 32.5627L88.2361 25.395L92.5219 15.4586C93.2595 13.7485 95.2573 12.9544 96.9841 13.6849C97.5061 13.9057 97.9436 14.2406 98.2796 14.6477C97.3318 13.6252 95.801 13.2528 94.4389 13.829C92.7121 14.5595 91.9102 16.538 92.6478 18.2481L95.6804 25.279ZM103.187 37.3973C101.854 37.4104 100.581 36.6417 100.025 35.3521L95.6804 25.279L98.7751 18.1039C99.2897 16.9108 99.055 15.5871 98.2796 14.6477C98.5333 14.9214 98.7453 15.2416 98.901 15.6028L103.187 25.5392L100.095 32.7068C99.3576 34.4169 100.16 36.3954 101.886 37.1259C102.311 37.3056 102.752 37.393 103.187 37.3973ZM103.187 37.3973C104.52 37.4104 105.792 36.6417 106.348 35.3521L113.726 18.2481C114.463 16.538 113.662 14.5595 111.935 13.829C110.208 13.0985 108.21 13.8926 107.473 15.6028L103.187 25.5392L106.278 32.7068C107.016 34.4169 106.214 36.3954 104.487 37.1259C104.063 37.3056 103.622 37.393 103.187 37.3973Z" fill="black"/>
<path d="M94.4389 13.829C92.7121 14.5595 91.9102 16.538 92.6478 18.2481L95.6804 25.279L98.7751 18.1039C99.2897 16.9108 99.055 15.5871 98.2796 14.6477C97.3318 13.6252 95.801 13.2528 94.4389 13.829Z" fill="black"/>
<path d="M104.487 37.1259C106.214 36.3954 107.016 34.4169 106.278 32.7068L103.187 25.5392L100.095 32.7068C99.3576 34.4169 100.16 36.3954 101.886 37.1259C102.311 37.3056 102.752 37.393 103.187 37.3973C103.622 37.393 104.063 37.3056 104.487 37.1259Z" fill="black"/>
</svg>
