<svg width="217" height="217" viewBox="0 0 217 217" fill="none" xmlns="http://www.w3.org/2000/svg">
<path d="M208.673 215.835C208.673 215.901 163.376 215.958 107.506 215.958C51.6363 215.958 6.3291 215.901 6.3291 215.835C6.3291 215.768 51.6036 215.711 107.506 215.711C163.408 215.711 208.673 215.763 208.673 215.835Z" fill="#263238"/>
<path d="M125.653 91.7189L124.594 135.499C124.416 142.946 122.657 153.844 111.11 153.017C101.144 151.534 98.8387 141.787 99.0161 134.839C99.1001 131.545 99.1608 128.798 99.1468 128.456C99.1468 128.456 88.2249 127.135 87.7021 116.099C87.4501 110.758 87.8048 99.7174 88.2436 89.7276C88.4738 84.5551 90.6078 79.6605 94.2212 76.0174C97.8345 72.3743 102.662 70.2497 107.744 70.0663L108.79 70.0283C120.104 70.2707 126.218 80.2035 125.653 91.7189Z" fill="#FFBE9D"/>
<path d="M99.1469 128.455C99.1469 128.455 106.003 128.617 113.149 123.703C113.149 123.703 109.985 131.906 99.1143 131.307L99.1469 128.455Z" fill="#EB996E"/>
<path d="M106.568 94.9266C106.773 95.1595 108.061 94.1805 109.877 94.1995C111.692 94.2185 113.009 95.15 113.209 94.9457C113.307 94.8411 113.097 94.4276 112.523 93.9951C111.746 93.4239 110.812 93.1163 109.853 93.1159C108.907 93.1067 107.983 93.4102 107.221 93.9809C106.666 94.4086 106.474 94.8221 106.568 94.9266Z" fill="#263238"/>
<path d="M106.223 99.1343C106.232 99.5234 106.391 99.8933 106.665 100.165C106.939 100.437 107.306 100.589 107.688 100.589C107.876 100.597 108.063 100.568 108.239 100.502C108.415 100.436 108.576 100.334 108.713 100.203C108.849 100.073 108.959 99.9153 109.035 99.7406C109.11 99.5659 109.151 99.3775 109.154 99.1865C109.144 98.7974 108.985 98.4275 108.712 98.1558C108.438 97.8841 108.071 97.7321 107.688 97.7323C107.501 97.7233 107.314 97.7528 107.138 97.819C106.962 97.8851 106.801 97.9866 106.664 98.1174C106.527 98.2481 106.418 98.4055 106.342 98.5802C106.266 98.7549 106.226 98.9433 106.223 99.1343Z" fill="#263238"/>
<path d="M101.569 107.594C101.569 107.499 100.528 107.356 98.8433 107.194C98.4139 107.166 98.0078 107.095 97.9098 106.805C97.8601 106.357 97.9447 105.905 98.1525 105.507C98.5165 104.443 98.8946 103.326 99.296 102.18C100.878 97.4279 102.008 93.4976 101.821 93.4358C101.634 93.374 100.192 97.1855 98.6099 101.952C98.2272 103.125 97.8631 104.248 97.5177 105.322C97.3777 105.821 97.1163 106.391 97.359 107.033C97.4268 107.183 97.5271 107.316 97.6523 107.421C97.7776 107.527 97.9247 107.602 98.0825 107.641C98.3209 107.699 98.5657 107.724 98.8106 107.717C100.5 107.722 101.564 107.689 101.569 107.594Z" fill="#263238"/>
<path d="M107.599 88.0166C107.757 88.4348 109.223 88.1781 110.955 88.335C112.686 88.4918 114.105 88.9338 114.32 88.5488C114.418 88.3635 114.161 87.9785 113.582 87.5983C112.822 87.1193 111.959 86.837 111.067 86.7762C110.178 86.6951 109.283 86.8388 108.462 87.1944C107.837 87.4748 107.529 87.817 107.599 88.0166Z" fill="#263238"/>
<path d="M90.0217 88.3825C90.199 88.7247 91.6273 88.4063 93.3449 88.4158C95.0625 88.4253 96.4721 88.7057 96.6681 88.3635C96.7522 88.2019 96.4815 87.8883 95.8934 87.6031C95.1004 87.2449 94.2403 87.0665 93.3729 87.0803C92.4973 87.0752 91.6306 87.2582 90.8291 87.6174C90.2317 87.9073 89.9423 88.2019 90.0217 88.3825Z" fill="#263238"/>
<path d="M125.051 99.939C125.237 99.8487 132.434 97.4202 132.462 104.986C132.49 112.552 125.027 111.022 124.995 110.803C124.962 110.585 125.051 99.939 125.051 99.939Z" fill="#FFBE9D"/>
<path d="M127.273 107.93C127.306 107.93 127.404 108.02 127.619 108.125C127.93 108.252 128.278 108.252 128.589 108.125C129.374 107.83 130.027 106.557 130.06 105.193C130.078 104.539 129.952 103.889 129.691 103.292C129.62 103.056 129.493 102.841 129.322 102.665C129.152 102.49 128.942 102.359 128.711 102.284C128.562 102.245 128.404 102.26 128.265 102.327C128.126 102.394 128.015 102.508 127.95 102.65C127.852 102.859 127.899 103.011 127.861 103.026C127.824 103.04 127.698 102.897 127.759 102.588C127.797 102.4 127.9 102.232 128.048 102.113C128.148 102.033 128.263 101.975 128.385 101.94C128.508 101.906 128.636 101.897 128.762 101.913C129.068 101.974 129.353 102.114 129.591 102.318C129.828 102.523 130.011 102.786 130.12 103.083C130.444 103.736 130.604 104.461 130.587 105.193C130.545 106.718 129.784 108.144 128.72 108.467C128.521 108.526 128.311 108.539 128.106 108.506C127.901 108.472 127.706 108.392 127.535 108.272C127.287 108.115 127.245 107.944 127.273 107.93Z" fill="#EB996E"/>
<path d="M135.366 88.0793C133.914 85.3561 133.671 82.1624 132.934 79.1588C132.197 76.1552 130.031 72.3389 127.207 71.1936C124.71 69.6205 121.359 69.6965 119.184 71.436C118.801 67.4866 116.262 65.1626 112.537 64.0125C108.813 62.8624 102.735 63.2378 99.0855 64.5828C96.2523 65.6189 93.4845 67.8621 90.0633 71.1841C88.6252 72.5817 87.3015 74.0965 86.1053 75.7132L82.46 85.8789L85.0691 91.3823C85.2231 91.7578 85.3818 92.1285 85.5778 92.4992L87.6922 103.967C87.9676 100.873 88.1589 90.0754 88.4063 86.9815C90.6995 87.0004 92.9727 86.547 95.0895 85.6486C97.2062 84.7502 99.1227 83.4254 100.724 81.7537C102.455 79.9382 103.846 77.638 106.115 76.5972C109.037 75.2617 112.416 76.4451 115.403 77.6285L115.277 77.5049C116.828 78.308 118.212 79.4067 119.356 80.7414C118.455 86.8458 118.853 93.0761 120.523 99.0101C120.775 99.8989 121.485 101.743 122.32 102.109C123.963 102.826 124.472 101.116 125.508 100.236C126.274 99.5852 127.375 99.5424 128.57 99.5899C129.34 97.7317 130.18 94.5808 130.904 91.8243C131.9 92.1817 132.965 92.294 134.012 92.1522C133.72 91.3633 133.429 90.5712 133.139 89.776C133.524 90.0884 133.97 90.3151 134.446 90.4413C134.687 90.4996 134.939 90.4816 135.169 90.3899C135.399 90.2982 135.597 90.137 135.734 89.928C136.029 89.3292 135.669 88.6496 135.366 88.0793Z" fill="#263238"/>
<path d="M116.458 73.4702C116.836 73.792 117.187 74.1449 117.508 74.5253C118.328 75.6091 118.855 76.8917 119.039 78.2465C119.188 79.1746 119.246 80.1155 119.212 81.0553C119.179 82.0723 119.058 83.1559 118.941 84.2965C118.798 85.4949 118.728 86.7012 118.731 87.9084C118.739 88.5457 118.797 89.1814 118.904 89.8094C118.974 90.4854 119.214 91.1317 119.599 91.6867C119.78 91.9081 120.013 92.078 120.278 92.1797C120.542 92.2813 120.828 92.3113 121.107 92.2665C121.641 92.1857 122.133 91.9266 122.507 91.5298C123.235 90.7266 123.441 89.6858 123.651 88.7639L123.422 88.7876C123.72 89.6353 124.135 90.4354 124.654 91.1639C125.16 91.8324 125.898 92.278 126.717 92.409C127.099 92.4639 127.489 92.4096 127.842 92.2522C128.171 92.0954 128.444 91.84 128.626 91.5203C128.796 91.2329 128.887 90.905 128.892 90.5698C128.89 90.251 128.777 89.9431 128.575 89.7001L128.458 89.7999C129.073 90.577 129.843 91.2121 130.717 91.6629C130.947 91.7816 131.184 91.8864 131.427 91.9766C131.51 92.0092 131.596 92.0347 131.683 92.0526C131.61 92.0033 131.529 91.9649 131.445 91.9385C131.287 91.8625 131.049 91.7579 130.759 91.5916C129.915 91.1125 129.174 90.4661 128.579 89.6906L128.458 89.7904C128.624 90.0305 128.713 90.3168 128.713 90.6102C128.713 90.9037 128.624 91.1899 128.458 91.43C128.289 91.712 128.043 91.9369 127.749 92.0764C127.428 92.215 127.075 92.2594 126.731 92.2047C125.967 92.0763 125.282 91.6523 124.817 91.0213C124.316 90.3146 123.917 89.5384 123.632 88.7163L123.487 88.3551L123.403 88.7353C123.198 89.6526 122.974 90.6363 122.311 91.3777C121.975 91.7327 121.534 91.9649 121.055 92.0384C120.82 92.0764 120.579 92.0528 120.355 91.9696C120.132 91.8865 119.932 91.7465 119.777 91.5631C119.419 91.0421 119.197 90.437 119.132 89.8047C119.029 89.1857 118.971 88.5598 118.96 87.9322C118.953 86.7347 119.018 85.538 119.156 84.3488C119.268 83.2081 119.38 82.1198 119.403 81.0885C119.43 80.1332 119.36 79.1775 119.193 78.237C118.99 76.8596 118.427 75.563 117.564 74.4825C117.255 74.0834 116.881 73.741 116.458 73.4702Z" fill="#455A64"/>
<path d="M90.0262 94.9981C90.2315 95.231 91.5197 94.252 93.3354 94.271C95.151 94.29 96.4673 95.2215 96.668 95.0171C96.766 94.9126 96.5559 94.4991 95.9819 94.0666C95.2064 93.4955 94.2738 93.1878 93.3167 93.1874C92.3693 93.1798 91.4446 93.4831 90.6796 94.0524C90.1195 94.4801 89.9235 94.8983 90.0262 94.9981Z" fill="#263238"/>
<path d="M91.1133 98.5774C91.1242 98.967 91.2839 99.3368 91.5585 99.6084C91.833 99.88 92.2008 100.032 92.5835 100.032C92.7705 100.04 92.9572 100.01 93.1326 99.9435C93.308 99.8771 93.4686 99.7755 93.6048 99.6448C93.741 99.5141 93.85 99.3569 93.9256 99.1826C94.0011 99.0082 94.0415 98.8202 94.0445 98.6297C94.0347 98.2405 93.876 97.8706 93.6022 97.5989C93.3284 97.3273 92.9612 97.1753 92.5789 97.1754C92.3915 97.1665 92.2043 97.1959 92.0283 97.2621C91.8524 97.3282 91.6913 97.4297 91.5546 97.5605C91.4179 97.6912 91.3084 97.8486 91.2326 98.0233C91.1568 98.198 91.1162 98.3864 91.1133 98.5774Z" fill="#263238"/>
<path d="M87.0615 74.4753C86.128 75.692 84.6624 76.7851 83.1501 76.5807C82.6046 76.4466 82.0695 76.2719 81.5492 76.0579C81.0077 76.3716 81.0824 78.2203 81.4418 78.7431C81.7778 79.1827 82.1494 79.5928 82.5527 79.9693C80.7464 80.896 79.1408 80.378 77.2598 79.6223C77.4065 81.2758 77.9775 82.8609 78.9154 84.2188C79.8534 85.5767 81.1254 86.6598 82.604 87.3594C83.5375 87.7919 84.7044 88.0438 85.5912 87.4925C86.3707 87.0173 86.7067 86.0668 86.9588 85.1495C87.8911 81.8622 88.421 78.4701 88.5364 75.0504L87.0615 74.4753Z" fill="#263238"/>
<path d="M103.142 111.303C103.269 111.065 103.456 110.865 103.684 110.725C103.912 110.584 104.173 110.509 104.439 110.505C104.944 110.505 105.373 110.458 105.742 110.814C106.092 111.157 106.329 111.602 106.422 112.087C106.515 112.573 106.458 113.076 106.26 113.528C106.039 113.969 105.665 114.311 105.21 114.487C104.755 114.663 104.253 114.66 103.8 114.478C102.918 114.065 102.568 111.75 103.179 110.98" fill="#EB996E"/>
<path d="M102.833 112.954C102.906 113.093 102.97 113.238 103.024 113.386C103.113 113.576 103.239 113.746 103.394 113.886C103.548 114.025 103.729 114.132 103.925 114.199C104.217 114.285 104.524 114.311 104.826 114.274C105.129 114.238 105.421 114.139 105.685 113.985C105.98 113.76 106.202 113.449 106.322 113.094C106.442 112.739 106.454 112.355 106.357 111.993C106.259 111.631 106.057 111.306 105.777 111.062C105.497 110.818 105.151 110.666 104.784 110.625C104.483 110.59 104.178 110.634 103.897 110.751C103.616 110.868 103.369 111.055 103.178 111.295C102.926 111.633 102.794 112.049 102.805 112.474C102.805 112.778 102.856 112.949 102.833 112.949C102.81 112.949 102.81 112.911 102.782 112.83C102.745 112.714 102.722 112.595 102.712 112.474C102.661 112.017 102.779 111.558 103.043 111.186C103.245 110.91 103.514 110.692 103.823 110.554C104.132 110.416 104.471 110.361 104.807 110.397C105.224 110.437 105.618 110.605 105.937 110.88C106.257 111.155 106.486 111.523 106.594 111.934C106.703 112.345 106.685 112.78 106.543 113.181C106.401 113.582 106.142 113.928 105.801 114.175C105.509 114.341 105.186 114.444 104.852 114.476C104.519 114.508 104.182 114.468 103.864 114.36C103.651 114.279 103.458 114.151 103.297 113.988C103.136 113.824 103.011 113.627 102.931 113.41C102.882 113.298 102.849 113.179 102.833 113.058C102.833 112.996 102.833 112.954 102.833 112.954Z" fill="#263238"/>
<path d="M116.543 73.4173C116.238 72.8952 115.868 72.4159 115.441 71.9916C114.239 70.8772 112.703 70.2075 111.082 70.0905C109.97 70.0104 108.854 70.1442 107.791 70.485C106.571 70.88 105.414 71.4531 104.356 72.1864C102.092 73.712 100.09 75.9884 97.9008 78.2934C96.8396 79.4246 95.6908 80.4672 94.4656 81.4111C93.3194 82.2963 92.0436 82.9923 90.6849 83.4737C88.3526 84.2328 85.8522 84.2741 83.497 83.5925C81.9152 83.1496 80.4373 82.3867 79.1516 81.3493L78.5635 80.8455C78.3954 80.6982 78.2741 80.5509 78.1667 80.4416L77.9287 80.1849C77.8774 80.1279 77.8494 80.0946 77.854 80.0899L77.9474 80.1659L78.1994 80.4035C78.3114 80.5081 78.4421 80.6507 78.6102 80.7932L79.1983 81.2685C80.4922 82.2627 81.9631 82.9922 83.5297 83.4166C85.8523 84.0638 88.3101 84.006 90.6009 83.2503C91.9424 82.7733 93.2024 82.0854 94.3349 81.2115C95.5453 80.2705 96.6829 79.2362 97.7375 78.1176C99.9172 75.8364 101.938 73.5314 104.244 71.9916C105.322 71.2501 106.501 70.6752 107.745 70.2854C108.833 69.9452 109.975 69.8178 111.11 69.9099C112.761 70.0458 114.317 70.7555 115.516 71.9203C115.832 72.2384 116.11 72.5942 116.342 72.9801C116.407 73.1084 116.463 73.2082 116.505 73.289C116.547 73.3698 116.547 73.4126 116.543 73.4173Z" fill="#455A64"/>
<path d="M94.9834 132.121L99.1001 131.289L124.566 129.688L129.994 131.194L129.28 144.653L117.009 152.623L105.107 152.381L97.6205 145.442L95.9636 138.556L94.9834 132.121Z" fill="#FFBE9D"/>
<path d="M164.444 153.311C162.998 150.241 161.364 147.267 159.552 144.405C156.63 139.839 152.162 136.526 146.997 135.095L127.394 129.682C127.394 129.682 126.376 149.642 112.882 149.642C99.3888 149.642 96.761 130.932 96.761 130.932L74.0537 140.156C73.2742 140.465 68.0093 142.319 61.8809 155.697C56.0466 168.439 53.4795 174.954 53.4795 174.954L76.8449 181.826L78.3058 203.246L77.811 215.479L148.799 215.317L148.402 201.336L148.701 179.897L149.587 181.356L173.214 171.708C173.214 171.708 170.171 165.359 164.444 153.311Z" fill="#187259"/>
<path d="M149.042 166.258C149.149 166.258 149.084 174.004 148.902 183.557C148.72 193.109 148.505 200.837 148.402 200.837C148.3 200.837 148.36 193.09 148.542 183.538C148.724 173.985 148.958 166.258 149.042 166.258Z" fill="#263238"/>
<path d="M73.3066 161.866C73.4257 162.118 73.5135 162.385 73.568 162.659C73.708 163.177 73.8994 163.933 74.1234 164.865C74.5669 166.737 75.1176 169.332 75.631 172.221C76.1445 175.111 76.5085 177.744 76.7326 179.65C76.8446 180.6 76.9286 181.38 76.9706 181.917C77.0107 182.194 77.0201 182.474 76.9986 182.753C76.9059 182.489 76.8463 182.215 76.8212 181.936C76.7279 181.323 76.6112 180.572 76.4712 179.688C76.1818 177.787 75.7664 175.173 75.2576 172.288C74.7489 169.403 74.2401 166.808 73.8574 164.926C73.6847 164.047 73.54 163.301 73.4187 162.693C73.3512 162.422 73.3136 162.145 73.3066 161.866Z" fill="#263238"/>
<path d="M55.4778 175.559L45.9654 195.002C44.9044 197.173 44.4078 199.585 44.5232 202.007C44.697 205.642 46.2372 209.069 48.8248 211.579C51.4124 214.089 54.8491 215.489 58.4229 215.49L85.6996 213.879L86.8945 201.209L66.1383 196.109L74.003 180.968L55.4778 175.559Z" fill="#FFBE9D"/>
<path d="M66.1382 196.109C66.1382 196.2 65.2047 196.038 63.6877 196.047C61.7282 196.086 59.7866 196.436 57.9327 197.084C56.0809 197.714 54.3455 198.655 52.7985 199.868C51.6223 200.819 51.0622 201.594 50.9969 201.546C50.9315 201.499 51.0949 201.318 51.3423 200.962C51.7113 200.47 52.1272 200.016 52.5838 199.607C54.1183 198.281 55.8903 197.269 57.8021 196.627C59.7008 195.959 61.7031 195.649 63.7111 195.71C64.3165 195.733 64.919 195.806 65.5127 195.929C65.7296 195.953 65.9409 196.014 66.1382 196.109Z" fill="#EB996E"/>
<path d="M74.3343 180.816C74.2509 181.332 74.0936 181.833 73.8676 182.303C73.4211 183.465 72.8988 184.596 72.304 185.687C71.7135 186.782 71.0507 187.835 70.3203 188.838C70.0458 189.277 69.7093 189.673 69.3215 190.012C69.2328 189.945 70.605 188.04 71.9773 185.502C73.3495 182.964 74.2316 180.778 74.3343 180.816Z" fill="#EB996E"/>
<path d="M172.244 215.422H140.216V203.113L158.764 195.133L151.885 180.452L170.452 172.848L179.516 193.379C181.621 199.344 183.773 202.176 181.938 207.604C180.986 210.422 177.047 215.422 172.244 215.422Z" fill="#FFBE9D"/>
<path d="M81.5552 200.471H86.8947C86.8947 200.471 98.9415 196.037 101.42 196.46C103.651 196.84 111.824 202.367 113.425 203.46C113.602 203.584 113.737 203.76 113.812 203.964C113.968 204.397 113.954 204.875 113.772 205.297C113.59 205.72 113.255 206.054 112.837 206.231L112.669 206.302L112.739 206.549C112.835 206.871 112.877 207.207 112.865 207.543C112.847 207.798 112.749 208.041 112.586 208.235C112.422 208.43 112.202 208.566 111.958 208.624C111.713 208.682 111.456 208.658 111.226 208.557C110.995 208.456 110.802 208.282 110.676 208.061L110.984 208.617C111.108 208.844 111.167 209.103 111.152 209.363L111.124 209.871C111.108 210.147 111.01 210.412 110.843 210.63C110.677 210.848 110.449 211.01 110.19 211.093C109.946 211.173 109.684 211.181 109.436 211.114C109.188 211.048 108.963 210.91 108.79 210.717C107.754 209.558 105.523 207.234 104.001 206.977C102.361 206.773 100.71 206.687 99.0582 206.721C98.7207 206.723 98.3917 206.828 98.1137 207.023C97.8358 207.218 97.6217 207.493 97.4992 207.814C98.4001 207.88 104.659 211.202 106.876 212.39C107.219 212.565 107.516 212.822 107.74 213.139C107.964 213.456 108.11 213.824 108.164 214.211C108.244 214.914 107.894 215.636 106.521 215.327C103.581 214.629 98.2834 212.148 98.2834 212.148C98.2834 212.148 95.5482 211.354 93.7793 212.623C91.2868 214.415 90.148 215.071 88.0103 214.348C86.7041 213.908 85.4514 213.318 84.2763 212.59L80.0756 212.162C80.0756 212.162 76.1082 202.025 81.5552 200.471Z" fill="#FFBE9D"/>
<path d="M97.4668 202.545C97.4668 202.592 98.3209 202.316 99.7305 202.221C101.566 202.096 103.405 202.414 105.098 203.15C106.79 203.885 108.287 205.018 109.467 206.456C109.945 207.066 110.392 207.7 110.806 208.357C110.741 208.156 110.652 207.965 110.54 207.787C110.268 207.286 109.956 206.809 109.607 206.361C108.436 204.872 106.921 203.702 105.198 202.956C103.474 202.209 101.596 201.91 99.7305 202.084C99.1694 202.131 98.6134 202.228 98.0689 202.373C97.8623 202.406 97.6602 202.463 97.4668 202.545Z" fill="#EB996E"/>
<path d="M98.7396 199.563C99.506 199.328 100.297 199.187 101.097 199.144C103.03 199.136 104.926 199.683 106.567 200.722C108.197 201.786 109.682 203.064 110.982 204.524L112.196 205.831C112.336 206.005 112.492 206.164 112.663 206.307C112.544 206.122 112.412 205.947 112.266 205.784C112 205.456 111.608 204.985 111.108 204.42C109.826 202.913 108.337 201.602 106.688 200.527C105.012 199.461 103.063 198.924 101.087 198.983C100.492 199.012 99.9033 199.122 99.337 199.311C99.178 199.359 99.0221 199.418 98.8702 199.487C98.7862 199.525 98.7349 199.553 98.7396 199.563Z" fill="#EB996E"/>
<path d="M148.039 200.837H142.695C142.695 200.837 130.648 196.403 128.169 196.826C125.938 197.206 117.766 202.734 116.165 203.827C115.988 203.95 115.852 204.126 115.777 204.331C115.622 204.764 115.637 205.241 115.819 205.663C116 206.085 116.335 206.42 116.753 206.597L116.921 206.669L116.851 206.916C116.754 207.237 116.711 207.573 116.725 207.909C116.743 208.164 116.84 208.407 117.004 208.601C117.167 208.796 117.387 208.932 117.632 208.99C117.876 209.048 118.133 209.025 118.364 208.923C118.594 208.822 118.787 208.648 118.914 208.427L118.606 208.983C118.484 209.212 118.426 209.47 118.438 209.729L118.466 210.233C118.48 210.51 118.576 210.775 118.743 210.994C118.91 211.212 119.139 211.373 119.399 211.455C119.643 211.537 119.905 211.546 120.153 211.48C120.402 211.414 120.626 211.277 120.799 211.084C121.836 209.92 124.067 207.596 125.588 207.339C127.23 207.139 128.883 207.054 130.536 207.087C130.872 207.09 131.2 207.196 131.478 207.391C131.755 207.586 131.968 207.861 132.09 208.18C131.189 208.242 124.93 211.569 122.713 212.757C122.37 212.931 122.074 213.187 121.85 213.503C121.625 213.819 121.48 214.186 121.425 214.572C121.346 215.28 121.696 216.022 123.068 215.694C126.008 214.995 131.306 212.514 131.306 212.514C131.306 212.514 134.041 211.716 135.81 212.99C138.302 214.781 139.441 215.437 141.579 214.715C142.886 214.276 144.139 213.686 145.313 212.956L149.514 212.529C149.514 212.529 153.486 202.406 148.039 200.837Z" fill="#FFBE9D"/>
<path d="M132.122 202.924C132.122 202.971 131.268 202.696 129.858 202.605C128.019 202.477 126.177 202.793 124.481 203.529C122.785 204.265 121.285 205.4 120.103 206.84C119.17 207.938 118.801 208.741 118.764 208.741C118.831 208.543 118.92 208.353 119.03 208.175C119.302 207.675 119.614 207.198 119.963 206.75C121.134 205.261 122.649 204.091 124.372 203.345C126.096 202.598 127.974 202.298 129.84 202.472C130.4 202.521 130.956 202.616 131.501 202.758C131.713 202.79 131.921 202.846 132.122 202.924Z" fill="#EB996E"/>
<path d="M130.839 199.942C130.08 199.709 129.296 199.569 128.505 199.524C126.569 199.517 124.67 200.066 123.025 201.106C121.396 202.171 119.912 203.449 118.61 204.908L117.396 206.22C117.256 206.393 117.1 206.553 116.93 206.695C117.047 206.508 117.18 206.332 117.326 206.168C117.592 205.845 117.985 205.374 118.489 204.809C119.768 203.301 121.255 201.99 122.904 200.916C124.581 199.851 126.529 199.313 128.505 199.372C129.099 199.401 129.686 199.511 130.251 199.7C130.41 199.746 130.566 199.805 130.717 199.876C130.761 199.891 130.802 199.914 130.839 199.942Z" fill="#EB996E"/>
<path d="M173.07 195.99C173.042 196.033 172.346 195.515 171.086 194.921C170.773 194.778 170.428 194.621 170.041 194.488C169.653 194.355 169.247 194.222 168.808 194.094C166.889 193.577 164.888 193.459 162.923 193.747C162.456 193.827 162.045 193.889 161.653 193.999C161.285 194.081 160.922 194.184 160.566 194.308C159.249 194.745 158.498 195.177 158.475 195.134C158.636 195.007 158.811 194.9 158.997 194.816C159.202 194.693 159.416 194.587 159.637 194.498C159.921 194.363 160.213 194.244 160.51 194.141C160.869 194.006 161.235 193.892 161.606 193.799C162.029 193.685 162.458 193.593 162.89 193.523C164.883 193.204 166.92 193.322 168.864 193.87C169.308 194.013 169.733 194.132 170.111 194.298C170.47 194.435 170.82 194.594 171.161 194.773C171.483 194.921 171.749 195.092 171.992 195.248C172.199 195.367 172.398 195.499 172.589 195.643C172.761 195.74 172.923 195.857 173.07 195.99Z" fill="#EB996E"/>
<path d="M145.9 216.996H79.2023C78.2901 216.996 77.4133 216.637 76.7549 215.994C76.0965 215.351 75.7075 214.474 75.669 213.546L73.6666 166.805C73.6452 166.319 73.7207 165.833 73.8886 165.378C74.0565 164.922 74.3133 164.506 74.6435 164.154C74.9736 163.803 75.3704 163.523 75.8098 163.331C76.2492 163.14 76.722 163.041 77.1999 163.041H147.772C148.249 163.041 148.722 163.14 149.161 163.33C149.6 163.521 149.996 163.8 150.327 164.151C150.657 164.501 150.915 164.916 151.084 165.371C151.252 165.825 151.33 166.31 151.31 166.796L149.443 213.537C149.407 214.468 149.018 215.349 148.357 215.994C147.696 216.639 146.816 216.998 145.9 216.996Z" fill="#E0E0E0"/>
<path d="M145.9 216.996C146.116 216.982 146.331 216.956 146.544 216.92C147.168 216.799 147.747 216.507 148.22 216.074C148.604 215.726 148.91 215.297 149.115 214.817C149.321 214.337 149.421 213.817 149.41 213.294C149.456 212.048 149.511 210.615 149.573 208.993C149.825 202.52 150.185 193.157 150.633 181.585C150.745 178.689 150.863 175.662 150.987 172.503C151.048 170.925 151.113 169.314 151.174 167.674C151.174 167.265 151.221 166.842 151.207 166.443C151.182 166.039 151.089 165.641 150.931 165.269C150.614 164.508 150.04 163.887 149.312 163.52C148.946 163.333 148.551 163.213 148.145 163.164C147.743 163.131 147.309 163.164 146.885 163.164H128.065H79.1409H77.5166C76.9911 163.134 76.4651 163.215 75.9717 163.402C75.4854 163.593 75.0485 163.895 74.6942 164.285C74.3399 164.674 74.0776 165.141 73.9274 165.65C73.8551 165.902 73.8082 166.162 73.7873 166.424C73.7873 166.686 73.7873 166.952 73.7873 167.227C73.8107 167.769 73.8293 168.311 73.8527 168.853L73.9927 172.089C74.1732 176.392 74.3537 180.625 74.5341 184.788C74.8889 193.114 75.2296 201.141 75.5563 208.793C75.5983 209.743 75.6357 210.694 75.6777 211.644C75.6777 212.12 75.715 212.595 75.7383 213.07C75.7317 213.529 75.7883 213.987 75.9064 214.429C76.1693 215.298 76.7533 216.029 77.5353 216.468C77.9183 216.683 78.3383 216.82 78.7722 216.872C79.1969 216.92 79.6543 216.896 80.0978 216.901H90.4642H109.069L136.005 216.939L143.328 216.963H136.005L109.069 217.001H90.4642H80.1164C79.6497 217.001 79.2296 217.001 78.7629 216.972C78.0632 216.885 77.4032 216.594 76.8624 216.133C76.3216 215.673 75.9231 215.063 75.715 214.377C75.591 213.913 75.5313 213.433 75.5376 212.951C75.5143 212.476 75.4956 212.001 75.4723 211.526C75.435 210.575 75.3945 209.625 75.3509 208.674C75.0195 201.023 74.6742 192.991 74.3148 184.669C74.1374 180.506 73.9554 176.273 73.7687 171.97C73.722 170.896 73.68 169.817 73.6333 168.734L73.5633 167.109C73.5492 166.833 73.5492 166.557 73.5633 166.282C73.5834 166 73.6319 165.721 73.708 165.45C73.8689 164.906 74.1498 164.406 74.5291 163.99C74.9085 163.573 75.3764 163.25 75.897 163.045C76.4187 162.847 76.9746 162.76 77.5306 162.789H79.1549H128.079H146.899C147.328 162.789 147.743 162.788 148.182 162.812C148.612 162.862 149.029 162.989 149.414 163.188C150.186 163.577 150.794 164.237 151.127 165.046C151.293 165.44 151.39 165.859 151.417 166.286C151.417 166.719 151.417 167.118 151.384 167.532C151.319 169.176 151.253 170.787 151.188 172.365C151.057 175.533 150.933 178.561 150.815 181.447C150.348 193.015 149.951 202.358 149.68 208.85C149.612 210.469 149.551 211.895 149.498 213.127C149.505 213.659 149.399 214.186 149.186 214.672C148.973 215.158 148.659 215.591 148.266 215.941C147.784 216.373 147.195 216.663 146.563 216.777C146.408 216.804 146.252 216.82 146.096 216.825L145.9 216.996Z" fill="#263238"/>
<path d="M116.135 190.857C116.135 191.593 115.921 192.312 115.52 192.924C115.118 193.536 114.547 194.013 113.879 194.295C113.212 194.577 112.477 194.65 111.768 194.507C111.059 194.363 110.408 194.009 109.897 193.488C109.385 192.968 109.037 192.305 108.896 191.583C108.755 190.861 108.828 190.113 109.104 189.433C109.381 188.753 109.849 188.172 110.45 187.763C111.051 187.354 111.758 187.136 112.481 187.136C113.45 187.137 114.379 187.529 115.064 188.227C115.749 188.925 116.134 189.87 116.135 190.857Z" fill="white"/>
<path d="M211.072 88.01H143.403L143.749 136.281H151.142V147.44L161.154 136.281H211.418L211.072 88.01Z" fill="white"/>
<path d="M211.072 88.0157C211.072 88.0157 211.072 88.3008 211.072 88.8664C211.072 89.4319 211.072 90.2921 211.1 91.3852C211.1 93.6046 211.152 96.8649 211.194 101.047C211.264 109.435 211.366 121.511 211.497 136.278V136.377H211.399L161.177 136.401L161.261 136.363L151.254 147.527L151.044 147.76V136.282L151.165 136.406H143.627V136.282C143.511 118.898 143.399 102.511 143.296 88.0157V87.9016H143.403L192.374 87.9586L206.185 87.9872H209.831H210.764H211.072H209.807H206.139L192.304 88.0157L143.403 88.0727L143.515 87.9586C143.623 102.454 143.744 118.85 143.87 136.225L143.749 136.107H151.263V147.389L151.053 147.308L161.065 136.202L161.098 136.164H161.177H211.441L211.348 136.263C211.264 121.531 211.194 109.464 211.147 101.095C211.124 96.9029 211.11 93.6332 211.1 91.409C211.1 90.2969 211.1 89.4509 211.1 88.8711C211.1 88.2913 211.072 88.0157 211.072 88.0157Z" fill="#263238"/>
<path d="M210.727 94.8207C210.727 94.8778 195.735 94.93 177.243 94.93C158.75 94.93 143.749 94.8778 143.749 94.8207C143.749 94.7637 158.741 94.7114 177.243 94.7114C195.745 94.7114 210.727 94.7589 210.727 94.8207Z" fill="#263238"/>
<path d="M146.526 93.1142C147.021 93.1142 147.422 92.6674 147.422 92.1162C147.422 91.565 147.021 91.1182 146.526 91.1182C146.031 91.1182 145.63 91.565 145.63 92.1162C145.63 92.6674 146.031 93.1142 146.526 93.1142Z" fill="#E0E0E0"/>
<path d="M149.177 93.1142C149.672 93.1142 150.074 92.6674 150.074 92.1162C150.074 91.565 149.672 91.1182 149.177 91.1182C148.682 91.1182 148.281 91.565 148.281 92.1162C148.281 92.6674 148.682 93.1142 149.177 93.1142Z" fill="#E0E0E0"/>
<path d="M151.824 93.1142C152.319 93.1142 152.72 92.6674 152.72 92.1162C152.72 91.565 152.319 91.1182 151.824 91.1182C151.329 91.1182 150.928 91.565 150.928 92.1162C150.928 92.6674 151.329 93.1142 151.824 93.1142Z" fill="#E0E0E0"/>
<path d="M178.172 121.848C183.443 121.848 187.717 117.496 187.717 112.129C187.717 106.761 183.443 102.41 178.172 102.41C172.9 102.41 168.627 106.761 168.627 112.129C168.627 117.496 172.9 121.848 178.172 121.848Z" fill="#187259"/>
<path d="M175.87 114.974V109.242C175.87 109.178 175.887 109.115 175.918 109.06C175.95 109.004 175.995 108.958 176.049 108.926C176.103 108.894 176.165 108.876 176.228 108.876C176.291 108.876 176.353 108.892 176.407 108.924L181.439 111.813C181.494 111.845 181.54 111.891 181.572 111.947C181.604 112.003 181.621 112.067 181.621 112.132C181.621 112.196 181.604 112.26 181.572 112.316C181.54 112.372 181.494 112.418 181.439 112.45L176.403 115.302C176.347 115.334 176.285 115.351 176.221 115.35C176.158 115.349 176.096 115.331 176.041 115.298C175.987 115.264 175.942 115.217 175.912 115.16C175.882 115.103 175.868 115.038 175.87 114.974Z" fill="white"/>
<path d="M206.316 130.151H147.884V130.446H206.316V130.151Z" fill="#263238"/>
<path d="M166.096 129.828H147.837V130.617H166.096V129.828Z" fill="#187259"/>
<path d="M165.798 131.287C166.288 131.287 166.685 130.844 166.685 130.298C166.685 129.752 166.288 129.31 165.798 129.31C165.308 129.31 164.911 129.752 164.911 130.298C164.911 130.844 165.308 131.287 165.798 131.287Z" fill="#187259"/>
<path d="M210.559 96.6758C214.117 96.6758 217 93.7395 217 90.1173C217 86.4952 214.117 83.5588 210.559 83.5588C207.002 83.5588 204.118 86.4952 204.118 90.1173C204.118 93.7395 207.002 96.6758 210.559 96.6758Z" fill="#187259"/>
<path d="M213.07 88.4938L212.152 87.5596L208.047 91.7401L208.964 92.6743L213.07 88.4938Z" fill="white"/>
<path d="M208.962 87.5509L208.045 88.4851L212.151 92.6656L213.068 91.7314L208.962 87.5509Z" fill="white"/>
<path d="M83.4121 10.0146V57.212H125.746L134.894 64.4168V57.212V55.3633V10.0146H83.4121Z" fill="white"/>
<path d="M83.4123 10.0134H84.3457H87.0902L97.5407 9.98489L134.88 9.93262H134.983V10.0372C134.983 25.174 134.983 43.0245 134.983 62.0631V64.6912L134.787 64.5392L125.672 57.3106L125.746 57.3343H83.4123H83.3096V57.2298C83.3329 42.9722 83.3469 31.1859 83.3609 22.9308C83.3609 18.8151 83.3609 15.5881 83.3889 13.3877C83.3889 12.2946 83.3889 11.4534 83.3889 10.8831C83.3889 10.3128 83.3889 10.0324 83.3889 10.0324C83.3889 10.0324 83.3889 10.3366 83.3889 10.9069C83.3889 11.4772 83.3889 12.3326 83.3889 13.4305C83.3889 15.6356 83.3889 18.8721 83.4123 22.9926C83.4123 31.2334 83.4449 43.0197 83.4636 57.2108L83.3656 57.111H125.7H125.742L125.774 57.1347L134.922 64.3348L134.726 64.4346V62.0583C134.726 43.0197 134.726 25.1692 134.726 10.0324L134.834 10.1417L97.55 10.0847L87.0762 10.0609H84.3084H83.5943L83.4123 10.0134Z" fill="#263238"/>
<path d="M134.61 18.9775C134.61 19.0536 123.258 19.1201 109.265 19.1201C95.2722 19.1201 83.9209 19.0536 83.9209 18.9775C83.9209 18.9015 95.2675 18.835 109.265 18.835C123.263 18.835 134.61 18.8967 134.61 18.9775Z" fill="#263238"/>
<path d="M89.1574 15.461C89.1574 15.7194 89.0819 15.9719 88.9405 16.1864C88.7991 16.401 88.5983 16.5678 88.3635 16.6658C88.1287 16.7638 87.8706 16.7884 87.622 16.7366C87.3735 16.6848 87.1456 16.5589 86.9676 16.3749C86.7895 16.1909 86.6692 15.9571 86.622 15.7032C86.5747 15.4494 86.6027 15.187 86.7024 14.9494C86.8021 14.7118 86.9689 14.5098 87.1816 14.369C87.3944 14.2282 87.6435 14.1551 87.8972 14.1588C88.2331 14.1638 88.5536 14.3032 88.7894 14.5469C89.0252 14.7906 89.1574 15.1189 89.1574 15.461Z" fill="#E0E0E0"/>
<path d="M92.9298 15.4609C92.9298 15.7186 92.8547 15.9706 92.714 16.1848C92.5733 16.3991 92.3732 16.566 92.1393 16.6644C91.9053 16.7628 91.6479 16.7883 91.3997 16.7377C91.1515 16.6871 90.9237 16.5626 90.745 16.38C90.5663 16.1974 90.4449 15.9649 90.3961 15.712C90.3473 15.4591 90.3732 15.1971 90.4708 14.9593C90.5683 14.7214 90.7329 14.5184 90.9438 14.3758C91.1548 14.2333 91.4025 14.1578 91.6556 14.1587C91.8234 14.1587 91.9894 14.1924 92.1443 14.2579C92.2992 14.3234 92.4399 14.4194 92.5583 14.5404C92.6767 14.6614 92.7704 14.805 92.8342 14.9629C92.898 15.1209 92.9305 15.2901 92.9298 15.4609Z" fill="#E0E0E0"/>
<path d="M96.7052 15.4609C96.7052 15.7184 96.6302 15.9702 96.4897 16.1843C96.3492 16.3985 96.1494 16.5654 95.9158 16.664C95.6821 16.7625 95.4249 16.7883 95.1769 16.7381C94.9288 16.6878 94.7009 16.5638 94.522 16.3817C94.3432 16.1996 94.2214 15.9675 94.172 15.7149C94.1227 15.4623 94.148 15.2005 94.2448 14.9626C94.3416 14.7246 94.5055 14.5212 94.7158 14.3782C94.9262 14.2351 95.1734 14.1587 95.4264 14.1587C95.7655 14.1587 96.0908 14.2959 96.3307 14.5401C96.5705 14.7843 96.7052 15.1155 96.7052 15.4609Z" fill="#E0E0E0"/>
<path d="M125.396 36.1196C125.47 39.0074 124.701 41.8526 123.186 44.2952C121.671 46.7378 119.479 48.6679 116.886 49.8413C114.294 51.0147 111.418 51.3787 108.622 50.8871C105.826 50.3955 103.237 49.0704 101.181 47.0796C99.125 45.0888 97.6954 42.5218 97.073 39.7034C96.4505 36.885 96.6632 33.9419 97.6841 31.2466C98.705 28.5514 100.488 26.225 102.808 24.5621C105.128 22.8992 107.88 21.9744 110.717 21.9047C114.514 21.8077 118.194 23.2508 120.947 25.9166C123.7 28.5824 125.3 32.2525 125.396 36.1196Z" fill="#187259"/>
<path d="M121.97 36.2062C122.027 38.4073 121.441 40.5761 120.287 42.4381C119.132 44.3002 117.462 45.7718 115.486 46.6668C113.51 47.5618 111.318 47.84 109.187 47.4662C107.056 47.0925 105.081 46.0835 103.514 44.5669C101.946 43.0504 100.855 41.0944 100.379 38.9465C99.9034 36.7986 100.064 34.5552 100.841 32.5002C101.617 30.4452 102.975 28.6709 104.742 27.4018C106.509 26.1327 108.606 25.4257 110.768 25.3705C112.203 25.3313 113.631 25.5806 114.971 26.1043C116.311 26.6279 117.536 27.4156 118.577 28.4221C119.617 29.4286 120.453 30.6343 121.035 31.97C121.617 33.3057 121.935 34.7453 121.97 36.2062Z" fill="#187259"/>
<g opacity="0.3">
<path d="M121.97 35.8559C121.816 35.4252 121.708 34.9791 121.647 34.5252C121.374 33.3356 120.922 32.1959 120.308 31.1462C119.884 30.4307 119.383 29.7659 118.814 29.1644C118.163 28.4741 117.425 27.8734 116.621 27.3774C116.189 27.1082 115.738 26.8731 115.272 26.674C114.787 26.4588 114.286 26.2839 113.773 26.1513C113.247 26.0098 112.71 25.9097 112.168 25.8518C111.608 25.7986 111.045 25.7859 110.483 25.8138C109.92 25.8485 109.36 25.9248 108.807 26.0419C107.755 26.2727 106.743 26.6653 105.806 27.2063C105.365 27.4588 104.942 27.7431 104.541 28.057C103.797 28.6423 103.131 29.3228 102.558 30.0816C102.059 30.7454 101.634 31.4625 101.288 32.2202C100.789 33.3329 100.463 34.5177 100.322 35.7324C100.311 36.1887 100.253 36.6427 100.149 37.0868C100.005 36.6432 99.9539 36.1736 99.9997 35.7086C100.017 34.4304 100.269 33.1667 100.742 31.9826C101.07 31.1606 101.491 30.3807 101.997 29.6586C102.587 28.8299 103.282 28.0851 104.065 27.4439C104.488 27.0915 104.937 26.7737 105.409 26.4934C105.899 26.1994 106.411 25.9451 106.94 25.733C107.489 25.5124 108.054 25.336 108.63 25.2055C109.225 25.0754 109.829 24.9912 110.436 24.9536C111.042 24.9241 111.649 24.94 112.252 25.0011C112.838 25.0648 113.419 25.176 113.988 25.3338C114.538 25.4949 115.075 25.6999 115.594 25.9469C116.093 26.1682 116.574 26.4304 117.031 26.7311C118.625 27.7572 119.933 29.1825 120.831 30.8705C121.424 31.9883 121.81 33.2079 121.97 34.4682C122.067 34.9255 122.067 35.3986 121.97 35.8559Z" fill="black"/>
</g>
<g opacity="0.3">
<path d="M112.453 43.0774L112.523 45.0117L110.824 45.0782L110.754 43.1772C109.243 43.1876 107.76 42.7643 106.474 41.9558L107.328 39.8124C108.33 40.4664 109.482 40.8446 110.67 40.9103L110.563 38.0207C108.659 37.631 106.525 37.0702 106.432 34.5989C106.367 32.7644 107.613 31.1391 110.283 30.7256L110.213 28.8246L111.912 28.7581L111.982 30.6591C113.199 30.6814 114.394 30.9974 115.468 31.5811L114.703 33.7435C113.886 33.3015 112.991 33.0301 112.07 32.945L112.178 35.8821C114.082 36.2575 116.178 36.8326 116.271 39.2564C116.337 41.0386 115.104 42.6449 112.453 43.0774ZM110.465 35.4734L110.371 33.0211C109.48 33.2635 109.144 33.7767 109.163 34.347C109.181 34.9173 109.709 35.288 110.465 35.4971V35.4734ZM113.545 39.5273C113.522 38.9237 113.018 38.6148 112.276 38.3819L112.364 40.7582C113.209 40.5681 113.569 40.1071 113.569 39.551L113.545 39.5273Z" fill="black"/>
</g>
<path d="M122.185 35.9925C122.185 35.9925 122.185 35.9308 122.185 35.8072C122.185 35.6836 122.157 35.4983 122.134 35.2702L122.096 34.8757C122.096 34.7331 122.045 34.5763 122.012 34.4004C121.953 34.0079 121.866 33.6203 121.751 33.2408C121.463 32.1921 121.021 31.1939 120.439 30.28C119.597 28.9377 118.486 27.7914 117.179 26.916C115.872 26.0405 114.399 25.4557 112.855 25.1996C110.909 24.8857 108.917 25.1039 107.081 25.8316C106.584 26.0256 106.1 26.2542 105.634 26.516C105.171 26.7876 104.728 27.0925 104.309 27.4285C103.876 27.7693 103.465 28.1392 103.081 28.5358C102.705 28.9555 102.354 29.3983 102.031 29.8618C101.368 30.8136 100.861 31.8679 100.528 32.9842C99.8231 35.2951 99.8821 37.7777 100.696 40.0512C101.082 41.1497 101.638 42.1782 102.344 43.0976C102.686 43.5447 103.057 43.9685 103.454 44.3665C103.857 44.7431 104.283 45.0938 104.729 45.4168C105.591 46.0466 106.543 46.5371 107.552 46.8711C109.42 47.5076 111.421 47.6289 113.349 47.2228C115.028 46.8654 116.601 46.1117 117.942 45.0223C119.052 44.1281 119.983 43.0264 120.687 41.7764C121.223 40.8422 121.618 39.8313 121.858 38.7775C121.955 38.392 122.024 37.9996 122.064 37.6037C122.087 37.4326 122.115 37.2757 122.129 37.1284C122.143 36.9811 122.129 36.848 122.129 36.7292C122.129 36.5058 122.129 36.3252 122.157 36.1921C122.154 36.132 122.154 36.0717 122.157 36.0116C122.164 36.0715 122.164 36.1322 122.157 36.1921V36.7339C122.157 36.8527 122.157 36.9858 122.157 37.1332C122.157 37.2805 122.124 37.4373 122.106 37.6084C122.089 38.001 122.044 38.3918 121.97 38.7775C121.746 39.8544 121.36 40.8899 120.827 41.8477C119.55 44.1616 117.52 45.9497 115.088 46.904C112.656 47.8582 109.973 47.9189 107.501 47.0754C106.994 46.9044 106.498 46.6996 106.017 46.4624C105.53 46.2096 105.062 45.9205 104.617 45.5974C104.158 45.2725 103.722 44.9169 103.31 44.5328C102.904 44.1264 102.525 43.693 102.175 43.2354C101.45 42.2982 100.879 41.2468 100.486 40.1225C99.6536 37.7984 99.5946 35.2602 100.318 32.8986C100.657 31.7574 101.178 30.6803 101.858 29.7097C102.186 29.236 102.545 28.7851 102.932 28.36C103.325 27.9581 103.743 27.5819 104.183 27.2336C104.614 26.8858 105.067 26.5683 105.541 26.2831C106.009 26.0213 106.494 25.7926 106.992 25.5988C108.861 24.8726 110.886 24.6643 112.859 24.9952C114.43 25.2613 115.926 25.8653 117.25 26.7667C118.573 27.6682 119.692 28.8464 120.533 30.223C121.11 31.1529 121.545 32.1674 121.821 33.2313C121.929 33.6164 122.01 34.0086 122.064 34.4052C122.087 34.5763 122.12 34.7331 122.134 34.8805C122.148 35.0278 122.134 35.1561 122.134 35.2749C122.134 35.503 122.143 35.6836 122.162 35.8167C122.175 35.8744 122.183 35.9333 122.185 35.9925Z" fill="#263238"/>
<path d="M139.528 15.0219C142.244 12.2565 142.244 7.77284 139.528 5.00743C136.812 2.24202 132.409 2.24203 129.693 5.00744C126.977 7.77285 126.977 12.2565 129.693 15.0219C132.409 17.7873 136.812 17.7873 139.528 15.0219Z" fill="#187259"/>
<path d="M137.32 8.2628L136.33 7.25464L131.898 11.7679L132.888 12.776L137.32 8.2628Z" fill="white"/>
<path d="M132.886 7.24965L131.896 8.25781L136.328 12.771L137.318 11.7629L132.886 7.24965Z" fill="white"/>
<path d="M70.4181 123.973H70.3714V66.6619H0.125977V124.129H61.2699L70.4181 133.449V123.973Z" fill="white"/>
<path d="M70.4182 123.973C70.4182 123.973 70.4182 124.178 70.4182 124.586C70.4182 124.995 70.4182 125.604 70.4182 126.402C70.4182 128.008 70.4182 130.38 70.4182 133.45V133.536L70.3575 133.474L61.1952 124.168H61.2326L0.0886822 124.206H0V124.116C0 108.509 0 91.3616 0 73.4018V66.5676H0.0933489H70.3435H70.4228V66.6437C70.4228 83.9714 70.3948 98.2622 70.3902 108.243C70.3902 113.233 70.3902 117.144 70.3668 119.815C70.3668 121.15 70.3668 122.191 70.3668 122.876C70.3668 123.223 70.3668 123.489 70.3668 123.669C70.3668 123.85 70.3668 123.95 70.3668 123.954C70.362 123.859 70.362 123.764 70.3668 123.669C70.3668 123.489 70.3668 123.223 70.3668 122.876C70.3668 122.177 70.3668 121.15 70.3668 119.815C70.3668 117.144 70.3668 113.233 70.3435 108.243C70.3435 98.2622 70.3435 83.9714 70.3108 66.6437L70.3902 66.7245H0.140024L0.238041 66.6247V73.378C0.238041 91.3378 0.238041 108.485 0.238041 124.092L0.144691 124.002L61.2886 124.04L70.4275 133.369L70.3668 133.398C70.4088 127.348 70.4182 124.23 70.4182 123.973Z" fill="#263238"/>
<path d="M70.3712 73.0534C70.3712 73.1104 54.6465 73.1532 35.2485 73.1532C15.8505 73.1532 0.121094 73.1104 0.121094 73.0534C0.121094 72.9964 15.8458 72.9536 35.2485 72.9536C54.6512 72.9536 70.3712 72.9916 70.3712 73.0534Z" fill="#263238"/>
<path d="M4.20039 69.9515C4.20131 70.1305 4.14996 70.3057 4.05288 70.4549C3.95579 70.6041 3.81733 70.7206 3.6551 70.7895C3.49286 70.8585 3.31417 70.8768 3.14171 70.8421C2.96925 70.8074 2.81081 70.7213 2.6865 70.5947C2.5622 70.4681 2.47764 70.3068 2.44357 70.1312C2.4095 69.9556 2.42746 69.7736 2.49516 69.6085C2.56286 69.4433 2.67724 69.3023 2.82379 69.2034C2.97034 69.1046 3.14244 69.0523 3.31823 69.0532C3.55182 69.0545 3.77548 69.1495 3.94065 69.3177C4.10583 69.4859 4.19916 69.7136 4.20039 69.9515Z" fill="#E0E0E0"/>
<path d="M6.81953 69.9515C6.82045 70.1302 6.76923 70.3053 6.67235 70.4544C6.57546 70.6035 6.43729 70.72 6.27532 70.7891C6.11336 70.8581 5.93491 70.8767 5.76258 70.8424C5.59024 70.8081 5.43179 70.7225 5.3073 70.5964C5.18281 70.4703 5.09788 70.3094 5.06328 70.1341C5.02869 69.9588 5.04597 69.777 5.11295 69.6117C5.17994 69.4465 5.2936 69.3052 5.43953 69.2057C5.58547 69.1063 5.75711 69.0532 5.93271 69.0532C6.1671 69.0532 6.39196 69.1477 6.55814 69.316C6.72432 69.4843 6.81829 69.7128 6.81953 69.9515Z" fill="#E0E0E0"/>
<path d="M8.54991 70.855C9.03968 70.855 9.43673 70.4508 9.43673 69.9521C9.43673 69.4534 9.03968 69.0491 8.54991 69.0491C8.06013 69.0491 7.66309 69.4534 7.66309 69.9521C7.66309 70.4508 8.06013 70.855 8.54991 70.855Z" fill="#E0E0E0"/>
<path d="M70.418 75.2381C74.0887 75.2381 77.0644 72.2081 77.0644 68.4705C77.0644 64.7328 74.0887 61.7029 70.418 61.7029C66.7472 61.7029 63.7715 64.7328 63.7715 68.4705C63.7715 72.2081 66.7472 75.2381 70.418 75.2381Z" fill="#187259"/>
<path d="M73.0133 66.7895L72.0693 65.8284L67.8316 70.1433L68.7755 71.1044L73.0133 66.7895Z" fill="white"/>
<path d="M68.7691 65.8316L67.8252 66.7927L72.0629 71.1077L73.0068 70.1465L68.7691 65.8316Z" fill="white"/>
<path d="M32.6396 74.3992L37.8345 79.8551L45.1017 78.1252L46.5767 85.5724L53.6059 88.1197L50.8941 95.201L55.4542 101.213L49.4145 105.671L50.0586 113.242L42.6093 113.669L39.132 120.394L32.6396 116.649L26.1425 120.394L22.6652 113.669L15.2159 113.242L15.86 105.671L9.82031 101.213L14.3851 95.201L11.6686 88.1197L18.6978 85.5724L20.1728 78.1252L27.44 79.8551L32.6396 74.3992Z" fill="#187259"/>
<g opacity="0.3">
<path d="M29.7833 91.396C29.7833 89.8515 29.2559 89.4332 28.4111 89.4332C27.5663 89.4332 27.0389 89.9085 27.0389 91.1251V92.2277H24.5371V91.2772C24.5371 88.5302 25.886 86.9619 28.4858 86.9619C31.0856 86.9619 32.4298 88.5302 32.4298 91.2772V91.7192C32.4298 93.5584 31.8557 94.7085 30.5628 95.2503C31.8884 95.8349 32.4298 97.1086 32.4298 98.8527V100.198C32.4298 102.945 31.0856 104.513 28.4858 104.513C25.886 104.513 24.5371 102.945 24.5371 100.198V98.772H27.0389V100.364C27.0389 101.59 27.571 102.056 28.4111 102.056C29.2513 102.056 29.7833 101.642 29.7833 100.122V98.772C29.7833 97.1799 29.2559 96.5905 28.0517 96.5905H27.1602V94.1382H28.1964C29.1812 94.1382 29.7833 93.701 29.7833 92.3275V91.396Z" fill="black"/>
<path d="M33.998 91.2958C33.998 88.5488 35.3983 86.9805 38.0167 86.9805C40.6352 86.9805 42.0354 88.5488 42.0354 91.2958V100.216C42.0354 102.963 40.6352 104.532 38.0167 104.532C35.3983 104.532 33.998 102.963 33.998 100.216V91.2958ZM36.6445 100.387C36.6445 101.614 37.1766 102.079 38.0167 102.079C38.8569 102.079 39.389 101.604 39.389 100.387V91.1247C39.389 89.8985 38.8616 89.4328 38.0167 89.4328C37.1719 89.4328 36.6445 89.908 36.6445 91.1247V100.387Z" fill="black"/>
</g>
<g opacity="0.3">
<path d="M42.7398 87.0418C42.7232 86.9385 42.7288 86.8326 42.7563 86.7317C42.7839 86.6308 42.8326 86.5372 42.8992 86.4573C42.9658 86.3775 43.0487 86.3134 43.142 86.2694C43.2354 86.2254 43.3371 86.2026 43.4399 86.2026C43.5428 86.2026 43.6444 86.2254 43.7378 86.2694C43.8312 86.3134 43.914 86.3775 43.9806 86.4573C44.0472 86.5372 44.096 86.6308 44.1235 86.7317C44.151 86.8326 44.1567 86.9385 44.14 87.0418V88.6006C44.1567 88.704 44.151 88.8098 44.1235 88.9108C44.096 89.0117 44.0472 89.1053 43.9806 89.1851C43.914 89.265 43.8312 89.3291 43.7378 89.3731C43.6444 89.4171 43.5428 89.4398 43.4399 89.4398C43.3371 89.4398 43.2354 89.4171 43.142 89.3731C43.0487 89.3291 42.9658 89.265 42.8992 89.1851C42.8326 89.1053 42.7839 89.0117 42.7563 88.9108C42.7288 88.8098 42.7232 88.704 42.7398 88.6006V87.0418ZM43.2066 88.6387C43.2066 88.8478 43.2906 88.9333 43.4446 88.9333C43.5986 88.9333 43.6873 88.8478 43.6873 88.6387V87.0038C43.6873 86.7947 43.594 86.7044 43.4446 86.7044C43.2952 86.7044 43.2066 86.7947 43.2066 87.0038V88.6387ZM45.2882 86.3147H45.7223L43.8553 91.0672H43.4213L45.2882 86.3147ZM45.0549 88.7812C45.0382 88.6779 45.0439 88.5721 45.0714 88.4711C45.0989 88.3702 45.1477 88.2766 45.2143 88.1968C45.2809 88.1169 45.3637 88.0528 45.4571 88.0088C45.5505 87.9648 45.6521 87.9421 45.755 87.9421C45.8579 87.9421 45.9595 87.9648 46.0529 88.0088C46.1462 88.0528 46.2291 88.1169 46.2957 88.1968C46.3623 88.2766 46.411 88.3702 46.4386 88.4711C46.4661 88.5721 46.4717 88.6779 46.4551 88.7812V90.3401C46.4717 90.4434 46.4661 90.5493 46.4386 90.6502C46.411 90.7511 46.3623 90.8447 46.2957 90.9246C46.2291 91.0044 46.1462 91.0685 46.0529 91.1125C45.9595 91.1565 45.8579 91.1793 45.755 91.1793C45.6521 91.1793 45.5505 91.1565 45.4571 91.1125C45.3637 91.0685 45.2809 91.0044 45.2143 90.9246C45.1477 90.8447 45.0989 90.7511 45.0714 90.6502C45.0439 90.5493 45.0382 90.4434 45.0549 90.3401V88.7812ZM45.5216 90.3781C45.5216 90.5872 45.6056 90.6728 45.7597 90.6728C45.9137 90.6728 46.0024 90.5872 46.0024 90.3781V88.7432C46.0024 88.5341 45.909 88.4486 45.7597 88.4486C45.6103 88.4486 45.5216 88.5341 45.5216 88.7432V90.3781Z" fill="black"/>
</g>
<g opacity="0.3">
<path d="M27.8508 105.389C28.901 105.389 29.4425 106.031 29.4425 107.152V107.376H28.4203V107.081C28.4203 106.606 28.2242 106.392 27.8788 106.392C27.5335 106.392 27.3374 106.582 27.3374 107.081C27.3374 108.507 29.4518 108.797 29.4518 110.798C29.4518 111.919 28.901 112.561 27.8415 112.561C26.782 112.561 26.2266 111.919 26.2266 110.798V110.37H27.2487V110.845C27.2487 111.344 27.4681 111.525 27.8088 111.525C28.1496 111.525 28.3736 111.344 28.3736 110.845C28.3736 109.419 26.2546 109.134 26.2546 107.129C26.2546 106.031 26.796 105.389 27.8508 105.389Z" fill="black"/>
<path d="M33.5771 112.481H32.4849L32.2982 111.212H30.954L30.7673 112.481H29.7871L30.8886 105.471H32.4756L33.5771 112.481ZM31.108 110.257H32.1488L31.6261 106.735L31.108 110.257Z" fill="black"/>
<path d="M34.0771 105.471H35.1553V111.488H36.9383V112.49H34.0771V105.471Z" fill="black"/>
<path d="M38.4969 108.427H39.9812V109.425H38.4969V111.488H40.3639V112.49H37.4141V105.471H40.3639V106.474H38.4969V108.427Z" fill="black"/>
</g>
<path d="M28.7988 91.8874C28.7988 90.3428 28.2667 89.9246 27.4265 89.9246C26.5864 89.9246 26.0543 90.3998 26.0543 91.6165V92.7191H23.5479V91.7685C23.5479 89.0263 24.8968 87.458 27.4965 87.458C30.0963 87.458 31.4452 89.0263 31.4452 91.7685V92.2105C31.4452 94.0498 30.8665 95.1999 29.5782 95.7417C30.9038 96.331 31.4452 97.6047 31.4452 99.3441V100.694C31.4452 103.436 30.0963 105.004 27.4965 105.004C24.8968 105.004 23.5479 103.436 23.5479 100.694V99.268H26.0543V100.86C26.0543 102.086 26.5817 102.552 27.4265 102.552C28.2713 102.552 28.7988 102.134 28.7988 100.613V99.268C28.7988 97.6712 28.2667 97.0866 27.0625 97.0866H26.1756V94.6343H27.2212C28.2107 94.6343 28.8128 94.1923 28.8128 92.8189L28.7988 91.8874Z" fill="white"/>
<path d="M33.0078 91.7891C33.0078 89.0469 34.4081 87.4785 37.0312 87.4785C39.6543 87.4785 41.0499 89.0469 41.0499 91.7891V100.714C41.0499 103.457 39.6496 105.025 37.0312 105.025C34.4127 105.025 33.0078 103.457 33.0078 100.714V91.7891ZM35.6589 100.885C35.6589 102.112 36.1864 102.577 37.0312 102.577C37.876 102.577 38.4034 102.102 38.4034 100.885V91.618C38.4034 90.3918 37.8713 89.9261 37.0312 89.9261C36.191 89.9261 35.6589 90.4013 35.6589 91.618V100.885Z" fill="white"/>
<path d="M41.7505 87.0421C41.7339 86.9387 41.7396 86.8329 41.7671 86.732C41.7946 86.631 41.8434 86.5374 41.91 86.4576C41.9766 86.3777 42.0594 86.3136 42.1528 86.2696C42.2462 86.2257 42.3478 86.2029 42.4507 86.2029C42.5535 86.2029 42.6552 86.2257 42.7485 86.2696C42.8419 86.3136 42.9248 86.3777 42.9914 86.4576C43.058 86.5374 43.1067 86.631 43.1342 86.732C43.1618 86.8329 43.1674 86.9387 43.1508 87.0421V88.6009C43.1674 88.7043 43.1618 88.8101 43.1342 88.911C43.1067 89.0119 43.058 89.1055 42.9914 89.1854C42.9248 89.2652 42.8419 89.3293 42.7485 89.3733C42.6552 89.4173 42.5535 89.4401 42.4507 89.4401C42.3478 89.4401 42.2462 89.4173 42.1528 89.3733C42.0594 89.3293 41.9766 89.2652 41.91 89.1854C41.8434 89.1055 41.7946 89.0119 41.7671 88.911C41.7396 88.8101 41.7339 88.7043 41.7505 88.6009V87.0421ZM42.2173 88.6389C42.2173 88.848 42.3013 88.9336 42.4553 88.9336C42.6094 88.9336 42.698 88.848 42.698 88.6389V87.004C42.698 86.7949 42.6047 86.7046 42.4553 86.7046C42.306 86.7046 42.2173 86.7949 42.2173 87.004V88.6389ZM44.299 86.3149H44.7331L42.8661 91.0675H42.432L44.299 86.3149ZM44.0656 88.7815C44.049 88.6781 44.0546 88.5723 44.0822 88.4714C44.1097 88.3705 44.1584 88.2768 44.225 88.197C44.2916 88.1172 44.3745 88.053 44.4679 88.0091C44.5612 87.9651 44.6629 87.9423 44.7657 87.9423C44.8686 87.9423 44.9702 87.9651 45.0636 88.0091C45.157 88.053 45.2398 88.1172 45.3064 88.197C45.373 88.2768 45.4218 88.3705 45.4493 88.4714C45.4768 88.5723 45.4825 88.6781 45.4659 88.7815V90.3403C45.4825 90.4437 45.4768 90.5495 45.4493 90.6504C45.4218 90.7514 45.373 90.845 45.3064 90.9248C45.2398 91.0046 45.157 91.0688 45.0636 91.1127C44.9702 91.1567 44.8686 91.1795 44.7657 91.1795C44.6629 91.1795 44.5612 91.1567 44.4679 91.1127C44.3745 91.0688 44.2916 91.0046 44.225 90.9248C44.1584 90.845 44.1097 90.7514 44.0822 90.6504C44.0546 90.5495 44.049 90.4437 44.0656 90.3403V88.7815ZM44.5324 90.3783C44.5324 90.5875 44.6164 90.673 44.7704 90.673C44.9244 90.673 45.0131 90.5875 45.0131 90.3783V88.7435C45.0131 88.5344 44.9198 88.4488 44.7704 88.4488C44.621 88.4488 44.5324 88.5344 44.5324 88.7435V90.3783Z" fill="white"/>
<path d="M26.8616 105.39C27.9118 105.39 28.4532 106.031 28.4532 107.153V107.376H27.431V107.082C27.431 106.607 27.235 106.393 26.8896 106.393C26.5442 106.393 26.3482 106.583 26.3482 107.082C26.3482 108.508 28.4625 108.797 28.4625 110.798C28.4625 111.92 27.9118 112.561 26.8522 112.561C25.7927 112.561 25.2373 111.92 25.2373 110.798V110.371H26.2595V110.846C26.2595 111.345 26.4789 111.525 26.8242 111.525C27.1696 111.525 27.3843 111.345 27.3843 110.846C27.3843 109.42 25.27 109.135 25.27 107.129C25.27 106.031 25.8207 105.39 26.8616 105.39Z" fill="white"/>
<path d="M32.5878 112.482H31.4957L31.309 111.213H29.9787L29.792 112.482H28.7979L29.8994 105.472H31.4863L32.5878 112.482ZM30.1187 110.257H31.1596L30.6368 106.736L30.1187 110.257Z" fill="white"/>
<path d="M33.0879 105.472H34.1707V111.488H35.9537V112.491H33.0879V105.472Z" fill="white"/>
<path d="M37.489 108.428H38.9732V109.426H37.489V111.488H39.356V112.491H36.4248V105.472H39.356V106.474H37.489V108.428Z" fill="white"/>
<path d="M46.6143 78.4877L46.9176 77.7843C47.2422 77.9971 47.6192 78.1124 48.0052 78.117C48.3926 78.117 48.5419 78.0077 48.5419 77.8461C48.5419 77.3138 46.6749 77.6988 46.6749 76.4536C46.6749 75.8595 47.1417 75.37 48.1312 75.37C48.5471 75.3626 48.9581 75.4623 49.3261 75.6599L49.0413 76.3633C48.756 76.1999 48.4351 76.1117 48.1078 76.1067C47.7204 76.1067 47.5758 76.2397 47.5758 76.4061C47.5758 76.9193 49.4427 76.5391 49.4427 77.77C49.4427 78.3546 48.976 78.8536 47.9865 78.8536C47.5046 78.8638 47.0294 78.737 46.6143 78.4877Z" fill="#E0E0E0"/>
<path d="M51.0247 77.879L50.7587 78.1499V78.7867H49.8672V75.2366H50.7587V77.0948L51.6922 76.1918H52.747L51.6922 77.3039L52.8357 78.7867H51.7575L51.0247 77.879Z" fill="#E0E0E0"/>
<path d="M52.9619 75.423C52.9653 75.3547 52.9824 75.2877 53.0121 75.2263C53.0418 75.1649 53.0835 75.1103 53.1346 75.0658C53.1857 75.0213 53.2451 74.9879 53.3094 74.9676C53.3736 74.9473 53.4412 74.9406 53.508 74.9478C53.5753 74.9367 53.6441 74.9407 53.7096 74.9596C53.7752 74.9784 53.8359 75.0117 53.8875 75.0569C53.9391 75.1022 53.9803 75.1585 54.0083 75.2217C54.0363 75.285 54.0503 75.3537 54.0494 75.423C54.0369 75.561 53.9742 75.6893 53.8736 75.7826C53.773 75.876 53.6418 75.9277 53.5057 75.9277C53.3696 75.9277 53.2384 75.876 53.1378 75.7826C53.0372 75.6893 52.9745 75.561 52.9619 75.423ZM53.0599 76.1929H53.9514V78.7878H53.0599V76.1929Z" fill="#E0E0E0"/>
<path d="M57.3821 77.4889C57.3937 77.6619 57.37 77.8355 57.3124 77.9987C57.2548 78.162 57.1646 78.3112 57.0475 78.4372C56.9304 78.5631 56.789 78.663 56.6321 78.7304C56.4751 78.7979 56.3062 78.8315 56.1359 78.8291C56.005 78.8356 55.8743 78.815 55.7515 78.7684C55.6287 78.7218 55.5165 78.6503 55.4218 78.5582V79.7131H54.5303V76.1915H55.3798V76.4481C55.4755 76.3435 55.5933 76.2622 55.7242 76.2104C55.8551 76.1585 55.9958 76.1375 56.1359 76.1487C56.3062 76.1463 56.4751 76.1799 56.6321 76.2474C56.789 76.3148 56.9304 76.4147 57.0475 76.5406C57.1646 76.6666 57.2548 76.8158 57.3124 76.9791C57.37 77.1423 57.3937 77.3159 57.3821 77.4889ZM56.4813 77.4889C56.4687 77.3835 56.4264 77.284 56.3596 77.2024C56.2928 77.1208 56.2043 77.0606 56.1047 77.029C56.005 76.9975 55.8986 76.9959 55.7981 77.0245C55.6976 77.0531 55.6074 77.1106 55.5383 77.1902C55.4692 77.2697 55.4241 77.3679 55.4085 77.473C55.3929 77.578 55.4074 77.6854 55.4503 77.7822C55.4932 77.879 55.5627 77.9612 55.6504 78.0187C55.738 78.0763 55.8402 78.1069 55.9445 78.1067C56.0211 78.1066 56.0967 78.09 56.1665 78.0579C56.2363 78.0259 56.2986 77.9791 56.3493 77.9207C56.4001 77.8623 56.438 77.7936 56.4608 77.7192C56.4835 77.6448 56.4905 77.5663 56.4813 77.4889Z" fill="#E0E0E0"/>
<path d="M61.4144 78.1347H60.0142L59.7528 78.7858H58.8193L60.2709 75.4353H61.2044L62.6653 78.7858H61.6945L61.4144 78.1347ZM61.1391 77.4361L60.719 76.362L60.2943 77.4361H61.1391Z" fill="#E0E0E0"/>
<path d="M65.5453 75.2366V78.7867H64.6958V78.5301C64.6011 78.6334 64.4848 78.7139 64.3557 78.7657C64.2265 78.8175 64.0876 78.8393 63.949 78.8295C63.6 78.8295 63.2652 78.6883 63.0183 78.4369C62.7715 78.1856 62.6328 77.8447 62.6328 77.4893C62.6328 77.1338 62.7715 76.7929 63.0183 76.5416C63.2652 76.2903 63.6 76.1491 63.949 76.1491C64.0782 76.1413 64.2076 76.1609 64.3289 76.2067C64.4502 76.2525 64.5609 76.3235 64.6538 76.4152V75.2366H65.5453ZM64.6678 77.4845C64.6543 77.3792 64.6113 77.2801 64.5438 77.1991C64.4763 77.1182 64.3873 77.0588 64.2874 77.0281C64.1876 76.9974 64.0812 76.9967 63.9809 77.0261C63.8807 77.0555 63.791 77.1138 63.7225 77.1939C63.6541 77.274 63.6098 77.3726 63.595 77.4777C63.5802 77.5828 63.5956 77.6901 63.6392 77.7865C63.6829 77.883 63.7529 77.9645 63.841 78.0214C63.9291 78.0783 64.0314 78.108 64.1357 78.1071C64.2123 78.1064 64.2879 78.0892 64.3575 78.0565C64.4271 78.0239 64.4891 77.9766 64.5394 77.9177C64.5897 77.8589 64.6271 77.7898 64.6493 77.7152C64.6714 77.6405 64.6777 77.5619 64.6678 77.4845Z" fill="#E0E0E0"/>
<path d="M65.9189 78.5625L66.185 77.9399C66.4554 78.0961 66.761 78.1779 67.0718 78.1775C67.3752 78.1775 67.4732 78.111 67.4732 78.0017C67.4732 77.65 65.9703 78.0492 65.9703 77.0084C65.9703 76.5331 66.409 76.1482 67.2118 76.1482C67.5584 76.141 67.902 76.2158 68.2153 76.3668L67.9493 76.9846C67.7248 76.8591 67.4726 76.7937 67.2165 76.7945C66.9131 76.7945 66.8058 76.8801 66.8058 76.9751C66.8058 77.3363 68.304 76.9466 68.304 77.9779C68.304 78.4532 67.8746 78.8286 67.0438 78.8286C66.6529 78.8372 66.2661 78.7457 65.9189 78.5625Z" fill="#E0E0E0"/>
</svg>
