<svg width="265" height="198" viewBox="0 0 265 198" fill="none" xmlns="http://www.w3.org/2000/svg">
<path d="M132.5 197.456C189.254 197.456 235.262 194.77 235.262 191.457C235.262 188.143 189.254 185.457 132.5 185.457C75.7463 185.457 29.7383 188.143 29.7383 191.457C29.7383 194.77 75.7463 197.456 132.5 197.456Z" fill="#F5F5F5"/>
<path d="M91.1154 36.7876C86.0433 33.9468 81.4005 27.82 77.4043 26.5003C78.6676 23.878 80.1479 21.3659 81.8298 18.9902C85.826 22.8645 90.4688 29.675 95.5409 29.2722C94.2743 31.8945 92.7941 34.4081 91.1154 36.7876Z" fill="#187259"/>
<path opacity="0.5" d="M91.1154 36.7876C86.0433 33.9468 81.4005 27.82 77.4043 26.5003C78.6676 23.878 80.1479 21.3659 81.8298 18.9902C85.826 22.8645 90.4688 29.675 95.5409 29.2722C94.2743 31.8945 92.7941 34.4081 91.1154 36.7876Z" fill="white"/>
<path opacity="0.2" d="M94.3395 30.8934C93.8095 30.8298 93.6346 30.2468 93.9632 29.6638C89.8716 28.784 86.0768 23.8338 82.706 20.4365C82.6234 20.5402 82.5193 20.6248 82.4009 20.6844C82.2825 20.744 82.1525 20.7772 82.02 20.7818C81.8875 20.7863 81.7556 20.7621 81.6334 20.7107C81.5112 20.6593 81.4016 20.5821 81.3121 20.4842C80.3145 21.95 79.3928 23.466 78.5508 25.0263C78.7715 25.2141 78.9137 25.4779 78.949 25.7656C78.9844 26.0532 78.9103 26.3436 78.7416 26.5792C82.1177 28.3812 85.9072 32.9392 90.0041 35.6793C90.2011 35.4639 90.4638 35.3195 90.7514 35.2687C91.0389 35.2179 91.3351 35.2635 91.5941 35.3984C92.5889 33.9429 93.5088 32.4375 94.3501 30.8881L94.3395 30.8934ZM84.8313 29.6797C83.8243 28.7416 83.5911 27.2947 84.2695 26.4467C84.9479 25.5987 86.2888 25.7683 87.2958 26.7382C88.3028 27.7081 88.589 29.0914 87.9106 29.9182C87.2322 30.745 85.8595 30.6284 84.8313 29.6797Z" fill="black"/>
<g opacity="0.2">
<path d="M85.5972 29.1494L85.417 29.3667L85.2156 29.1812C85.2792 29.107 85.3375 29.0328 85.4011 28.9639C85.1937 28.7594 85.0375 28.5088 84.9453 28.2325L85.2209 28.1371C85.2914 28.3661 85.4128 28.5763 85.576 28.7519L85.8993 28.3597C85.6767 28.0523 85.4488 27.7025 85.6767 27.4322C85.9046 27.1619 86.1696 27.2361 86.5671 27.57C86.6307 27.5011 86.689 27.4269 86.7526 27.3527L86.9487 27.5435L86.7685 27.7608C86.9353 27.9283 87.0684 28.1262 87.1607 28.3438L86.8957 28.4498C86.8216 28.2738 86.7196 28.1109 86.5936 27.9675L86.265 28.3597C86.4876 28.6671 86.7261 29.0169 86.4982 29.2872C86.2703 29.5575 86.0053 29.4992 85.5972 29.1494ZM86.1272 28.1265L86.4134 27.782C86.2279 27.6389 86.0954 27.6389 86.0265 27.7237C85.9576 27.8085 85.9894 27.9781 86.1007 28.1477L86.1272 28.1265ZM86.2014 29.0063C86.2809 28.9109 86.2014 28.7678 86.0901 28.5929L85.8039 28.9374C85.9735 29.107 86.1007 29.1123 86.1749 29.0275L86.2014 29.0063Z" fill="black"/>
</g>
<path d="M134.62 59.2176C129.956 61.7298 122.896 62.0478 119.949 64.5441C118.471 62.034 117.184 59.4153 116.102 56.7107C121.078 55.6507 128.684 55.7196 130.772 51.3789C132.25 53.8913 133.536 56.5117 134.62 59.2176Z" fill="#187259"/>
<path opacity="0.5" d="M134.62 59.2176C129.956 61.7298 122.896 62.0478 119.949 64.5441C118.471 62.034 117.184 59.4153 116.102 56.7107C121.078 55.6507 128.684 55.7196 130.772 51.3789C132.25 53.8913 133.536 56.5117 134.62 59.2176Z" fill="white"/>
<path opacity="0.2" d="M131.476 53.301C131.168 53.7038 130.628 53.5077 130.326 52.9141C127.676 55.7337 121.973 56.0411 117.659 56.8467C117.705 56.9634 117.726 57.089 117.719 57.2146C117.712 57.3401 117.677 57.4626 117.617 57.5733C117.558 57.6841 117.475 57.7803 117.374 57.8553C117.273 57.9303 117.156 57.9822 117.033 58.0074C117.669 59.5126 118.411 61.092 119.323 62.7774C119.736 62.5707 120.335 62.894 120.648 63.5035C123.679 61.781 129.08 61.2616 133.214 59.4967C133.136 59.2313 133.145 58.9478 133.241 58.6882C133.336 58.4286 133.513 58.2066 133.744 58.0551C133.113 56.5552 132.377 54.9811 131.476 53.2851V53.301ZM126.006 60.3129C125.449 60.4667 124.854 60.4129 124.334 60.1614C123.813 59.9098 123.402 59.4777 123.176 58.9455C122.821 57.9173 123.595 56.9315 124.845 56.6612C126.096 56.3909 127.326 56.9368 127.66 57.9544C127.994 58.972 127.236 60.032 126.006 60.3129Z" fill="black"/>
<g opacity="0.2">
<path d="M125.97 59.4024C126.002 59.4925 126.028 59.5826 126.055 59.6727L125.811 59.731C125.811 59.6409 125.753 59.5508 125.726 59.4607C125.462 59.5109 125.189 59.4963 124.931 59.4183C124.931 59.3229 124.968 59.2328 124.99 59.1427C125.199 59.215 125.423 59.2332 125.641 59.1957C125.594 59.0367 125.541 58.8777 125.488 58.7134C125.138 58.7134 124.751 58.7134 124.645 58.3689C124.565 58.1251 124.719 57.8654 125.175 57.7276C125.143 57.6375 125.117 57.5474 125.085 57.4573L125.334 57.4043C125.334 57.4944 125.387 57.5845 125.419 57.6746C125.634 57.6296 125.856 57.6296 126.071 57.6746L126.023 57.9449C125.848 57.9152 125.668 57.9152 125.493 57.9449C125.546 58.1039 125.599 58.2682 125.647 58.4325C126.002 58.4325 126.389 58.4325 126.495 58.7611C126.585 58.9943 126.426 59.2593 125.97 59.4024ZM125.398 58.4219C125.35 58.2788 125.307 58.1357 125.26 57.9926C125.058 58.0668 124.995 58.1728 125.027 58.2788C125.058 58.3848 125.212 58.4166 125.398 58.4219ZM126.129 58.8565C126.092 58.7399 125.944 58.7134 125.753 58.7134C125.795 58.8565 125.843 58.9996 125.885 59.1374C126.097 59.0632 126.14 58.9625 126.14 58.8565H126.129Z" fill="black"/>
</g>
<path d="M172.74 25.8231C167.239 27.6781 161.828 29.973 157.731 33.5505C156.279 31.3987 154.784 29.2098 153.422 26.9149C158.006 23.4116 163.354 21.2015 168.431 19.1875C169.884 21.3393 171.378 23.5282 172.74 25.8231Z" fill="#187259"/>
<path opacity="0.5" d="M172.74 25.8231C167.239 27.6781 161.828 29.973 157.731 33.5505C156.279 31.3987 154.784 29.2098 153.422 26.9149C158.006 23.4116 163.354 21.2015 168.431 19.1875C169.884 21.3393 171.378 23.5282 172.74 25.8231Z" fill="white"/>
<path opacity="0.2" d="M168.86 20.5595C168.579 20.663 168.271 20.6719 167.984 20.5849C167.697 20.4979 167.447 20.3196 167.27 20.0771C163.062 21.7784 158.737 23.66 154.879 26.3576C155.023 26.6188 155.068 26.9228 155.007 27.2146C154.946 27.5063 154.782 27.7664 154.545 27.9476C155.414 29.3521 156.32 30.7195 157.227 32.071C157.33 31.9825 157.451 31.9173 157.582 31.88C157.713 31.8426 157.85 31.8339 157.984 31.8546C158.119 31.8752 158.247 31.9247 158.36 31.9995C158.474 32.0744 158.57 32.1729 158.642 32.2883C162.214 29.5323 166.592 27.5925 171.044 25.9866C170.971 25.8723 170.926 25.7424 170.913 25.6075C170.899 25.4725 170.918 25.3363 170.967 25.2099C171.016 25.0835 171.094 24.9704 171.195 24.8797C171.296 24.7891 171.416 24.7235 171.547 24.6881C170.678 23.2889 169.767 21.9215 168.866 20.57L168.86 20.5595ZM163.687 27.5289C163.163 27.808 162.555 27.8844 161.978 27.7437C161.402 27.6029 160.897 27.2548 160.56 26.7657C160.414 26.5218 160.321 26.2497 160.288 25.9673C160.254 25.6848 160.281 25.3985 160.366 25.1271C160.451 24.8558 160.593 24.6055 160.781 24.3928C160.97 24.1801 161.202 24.0098 161.461 23.8931C162.005 23.6253 162.627 23.5642 163.212 23.7212C163.797 23.8782 164.305 24.2426 164.641 24.7464C164.784 24.9872 164.872 25.2559 164.9 25.534C164.929 25.8121 164.896 26.0931 164.806 26.3575C164.715 26.622 164.568 26.8637 164.375 27.0659C164.182 27.2681 163.947 27.4261 163.687 27.5289Z" fill="black"/>
<g opacity="0.2">
<path d="M163.377 26.5748L163.541 26.8451L163.318 26.9511L163.154 26.6861C162.911 26.7994 162.642 26.8452 162.375 26.8186C162.375 26.7179 162.375 26.6119 162.348 26.5112C162.568 26.5394 162.79 26.5102 162.995 26.4264C162.9 26.2621 162.799 26.1031 162.698 25.9441C162.359 26.0289 161.988 26.1031 161.787 25.7692C161.633 25.5254 161.702 25.2074 162.099 24.9636L161.93 24.688L162.152 24.582L162.317 24.847C162.517 24.7609 162.735 24.721 162.953 24.7304C162.953 24.8258 162.979 24.9265 162.995 25.0272C162.815 25.0205 162.635 25.0475 162.465 25.1067L162.762 25.5943C163.101 25.5148 163.483 25.4406 163.689 25.7745C163.848 26.0183 163.769 26.3257 163.377 26.5748ZM162.523 25.6526L162.258 25.2233C162.083 25.3452 162.057 25.4724 162.121 25.5784C162.184 25.6844 162.338 25.6897 162.523 25.6526ZM163.366 25.96C163.292 25.8434 163.138 25.8487 162.953 25.8858L163.212 26.3098C163.393 26.1879 163.43 26.066 163.366 25.9706V25.96Z" fill="black"/>
</g>
<path d="M75.8847 82.3245C71.8779 78.1481 65.3642 78.5403 61.3574 74.3745C62.6188 72.0708 63.882 69.7653 65.1469 67.458C69.1537 71.6344 75.6674 71.2475 79.6742 75.408C78.4128 77.7153 77.1497 80.0208 75.8847 82.3245Z" fill="#187259"/>
<path opacity="0.5" d="M75.8847 82.3245C71.8779 78.1481 65.3642 78.5403 61.3574 74.3745C62.6188 72.0708 63.882 69.7653 65.1469 67.458C69.1537 71.6344 75.6674 71.2475 79.6742 75.408C78.4128 77.7153 77.1497 80.0208 75.8847 82.3245Z" fill="white"/>
<path opacity="0.2" d="M78.6513 76.4048C78.4284 76.1982 78.2774 75.9259 78.2202 75.6275C78.163 75.3291 78.2026 75.0202 78.3333 74.7459C74.7081 71.9369 69.7049 71.6454 66.0797 68.8311C66.0229 68.9528 65.9372 69.059 65.8302 69.1402C65.7231 69.2214 65.5979 69.2754 65.4653 69.2973C65.3327 69.3192 65.1968 69.3085 65.0692 69.266C64.9417 69.2236 64.8265 69.1507 64.7335 69.0537L62.375 73.3679C62.5958 73.5746 62.7451 73.8463 62.8014 74.1436C62.8576 74.4409 62.8178 74.7483 62.6877 75.0215C66.3129 77.8358 71.3161 78.1273 74.9413 80.9416C74.9976 80.8194 75.0828 80.7128 75.1896 80.631C75.2965 80.5492 75.4216 80.4947 75.5542 80.4723C75.6869 80.4498 75.823 80.4601 75.9508 80.5021C76.0786 80.5442 76.1941 80.6168 76.2875 80.7136L78.646 76.4048H78.6513ZM69.4293 76.6698C69.1652 76.5844 68.9236 76.4408 68.7225 76.2494C68.5215 76.058 68.366 75.8239 68.2678 75.5642C68.1696 75.3046 68.131 75.0262 68.155 74.7497C68.179 74.4732 68.2649 74.2056 68.4064 73.9668C68.7188 73.4437 69.202 73.0443 69.7744 72.8358C70.3469 72.6273 70.9737 72.6224 71.5493 72.822C71.8136 72.9053 72.0556 73.0474 72.2573 73.2375C72.459 73.4276 72.6151 73.6608 72.714 73.9197C72.8129 74.1786 72.8519 74.4565 72.8283 74.7327C72.8047 75.0088 72.7189 75.276 72.5775 75.5144C72.2665 76.0404 71.7831 76.4428 71.2094 76.6534C70.6357 76.8639 70.0068 76.8697 69.4293 76.6698Z" fill="black"/>
<g opacity="0.2">
<path d="M70.1452 75.8472C70.0975 75.9426 70.0445 76.038 69.9915 76.1334L69.7636 76.0486L69.9173 75.7677C69.6857 75.6805 69.4885 75.5206 69.3555 75.3119L69.6205 75.0999C69.7275 75.2732 69.8846 75.41 70.071 75.4921C70.1611 75.3225 70.2565 75.1529 70.3519 74.9621C70.0816 74.7819 69.8219 74.5699 69.9968 74.2148C70.0925 74.0664 70.237 73.9561 70.4053 73.9029C70.5737 73.8496 70.7554 73.8569 70.919 73.9233L71.078 73.6318L71.3059 73.7166L71.1469 73.9975C71.3364 74.0707 71.5017 74.1956 71.6239 74.3579L71.3695 74.5699C71.2687 74.4453 71.1422 74.3441 70.9985 74.2731L70.7176 74.8031C70.9879 74.9833 71.2476 75.1953 71.078 75.5504C70.9805 75.6998 70.8344 75.811 70.6645 75.8651C70.4945 75.9192 70.311 75.9129 70.1452 75.8472ZM70.5162 74.6759L70.7653 74.2201C70.5533 74.1777 70.4208 74.2201 70.3625 74.3526C70.3042 74.4851 70.3837 74.5699 70.5162 74.6759ZM70.7123 75.4497C70.7812 75.3225 70.7123 75.2218 70.548 75.1158L70.2989 75.5663C70.5162 75.614 70.6487 75.5557 70.7123 75.4497Z" fill="black"/>
</g>
<path d="M206.979 61.0769C203.195 65.6455 196.676 63.1969 192.892 66.8486C191.509 64.3417 190.125 61.9302 188.742 59.6936C192.526 55.125 199.045 57.5736 202.83 53.9219C204.213 56.4288 205.596 58.8297 206.979 61.0769Z" fill="#187259"/>
<path opacity="0.5" d="M206.979 61.0769C203.195 65.6455 196.676 63.1969 192.892 66.8486C191.509 64.3417 190.125 61.9302 188.742 59.6936C192.526 55.125 199.045 57.5736 202.83 53.9219C204.213 56.4288 205.596 58.8297 206.979 61.0769Z" fill="white"/>
<path opacity="0.2" d="M203.319 55.6022C202.9 55.9785 202.259 55.7506 201.962 55.1729C198.491 57.4095 193.509 56.1958 190.042 59.0154C190.187 59.2799 190.242 59.5837 190.201 59.8823C190.16 60.1808 190.025 60.4584 189.814 60.6742C190.673 62.1211 191.537 63.6263 192.401 65.1739C192.82 64.7976 193.461 65.0255 193.758 65.5979C197.224 63.3613 202.206 64.575 205.677 61.7607C205.532 61.4974 205.475 61.1941 205.516 60.8961C205.557 60.598 205.694 60.3213 205.905 60.1071C205.041 58.6655 204.177 57.155 203.319 55.6074V55.6022ZM198.862 62.4603C197.727 62.614 196.312 61.7925 195.682 60.6C195.051 59.4075 195.427 58.2469 196.556 58.0879C197.685 57.9289 199.111 58.7609 199.736 59.9534C200.361 61.1459 199.996 62.3013 198.862 62.4603Z" fill="black"/>
<g opacity="0.2">
<path d="M198.539 61.4058L198.708 61.7291L198.491 61.7609L198.316 61.4376C198.045 61.4602 197.772 61.4108 197.526 61.2945L197.494 60.9818C197.698 61.0835 197.924 61.1326 198.152 61.1249L197.85 60.5472C197.664 60.5531 197.48 60.5101 197.317 60.4227C197.153 60.3353 197.015 60.2064 196.917 60.049C196.871 59.9877 196.843 59.9153 196.835 59.8393C196.826 59.7634 196.838 59.6866 196.87 59.6169C196.901 59.5472 196.95 59.4872 197.013 59.4429C197.075 59.3987 197.148 59.3719 197.224 59.3653L197.049 59.0367L197.272 59.0049L197.441 59.3282C197.661 59.3126 197.882 59.3451 198.088 59.4236C198.088 59.5296 198.115 59.6303 198.13 59.731C197.961 59.6675 197.781 59.6369 197.6 59.6409L197.913 60.2239C198.098 60.2174 198.282 60.2596 198.445 60.346C198.609 60.4325 198.747 60.5603 198.846 60.7168C198.891 60.7786 198.919 60.8513 198.927 60.9274C198.935 61.0036 198.923 61.0805 198.892 61.1504C198.861 61.2204 198.812 61.2808 198.75 61.3257C198.688 61.3705 198.615 61.3981 198.539 61.4058ZM197.691 60.1974L197.415 59.6674C197.24 59.731 197.214 59.8476 197.282 59.9748C197.327 60.0426 197.387 60.0984 197.459 60.1372C197.53 60.176 197.609 60.1967 197.691 60.1974ZM198.549 60.791C198.501 60.7249 198.438 60.6709 198.365 60.6332C198.293 60.5955 198.212 60.5751 198.13 60.5737L198.401 61.1037C198.554 61.0295 198.586 60.9182 198.523 60.791H198.549Z" fill="black"/>
</g>
<path d="M183.911 96.7335C168.781 125.912 148.712 152.25 124.593 174.58L87.541 146.341C111.676 124.017 131.76 97.6783 146.901 68.4951L183.911 96.7335Z" fill="#187259"/>
<path opacity="0.2" d="M183.911 96.7335C182.667 99.1397 181.385 101.525 180.063 103.889C165.436 130.243 146.712 154.104 124.593 174.58L87.541 146.341C111.676 124.017 131.76 97.6783 146.901 68.4951L183.911 96.7335Z" fill="white"/>
<path opacity="0.2" d="M152.692 76.037C152.339 76.7507 151.83 77.3757 151.202 77.8656C150.574 78.3555 149.844 78.6977 149.066 78.8667C148.288 79.0358 147.482 79.0274 146.708 78.8421C145.933 78.6568 145.211 78.2995 144.593 77.7966C131.456 101.302 115.05 122.825 95.8652 141.72C96.5177 142.178 97.0576 142.778 97.4443 143.475C97.8311 144.173 98.0545 144.948 98.0979 145.744C98.1413 146.541 98.0034 147.336 97.6947 148.071C97.386 148.806 96.9145 149.461 96.3157 149.988L119.408 167.589C120.706 166.406 122.37 165.704 124.123 165.598C125.876 165.492 127.612 165.989 129.043 167.006C148.23 148.112 164.636 126.59 177.771 103.083C174.989 100.963 174.136 96.7546 175.784 93.6382L175.81 93.5905L152.713 75.9893L152.692 76.037ZM148.452 131.968C144.09 137.676 135.689 138.593 130.003 134.257C124.316 129.922 123.468 121.961 127.835 116.237C132.202 110.513 140.115 109.241 145.812 113.587C151.51 117.933 152.846 126.26 148.473 131.968H148.452Z" fill="black"/>
<g opacity="0.2">
<path d="M144.49 127.2L146.021 128.366L145.163 129.489L143.631 128.318C142.523 129.601 141.076 130.555 139.921 130.788L139.02 129.129C140.235 128.8 141.33 128.129 142.174 127.194L139.439 125.112C137.912 126.352 136.147 127.592 134.25 126.14C132.856 125.08 132.437 123.156 133.868 120.866L132.326 119.69C132.612 119.319 132.899 118.942 133.179 118.566L134.695 119.721C135.481 118.771 136.487 118.027 137.626 117.554L138.585 119.176C137.675 119.559 136.853 120.127 136.174 120.845L138.93 122.965C140.456 121.72 142.174 120.405 144.071 121.852C145.46 122.896 145.905 124.857 144.49 127.2ZM137.801 123.855L135.368 122C134.775 123.087 134.944 123.871 135.549 124.327C136.153 124.783 136.948 124.47 137.801 123.855ZM142.889 123.702C142.221 123.172 141.453 123.559 140.594 124.232L143.011 126.076C143.631 124.931 143.467 124.152 142.878 123.702H142.889Z" fill="black"/>
</g>
<path opacity="0.2" d="M180.077 103.879C165.446 130.238 146.717 154.103 124.591 174.581C124.591 174.581 108.893 150.63 102.379 146.178C102.379 146.178 152.951 127.411 180.077 103.879Z" fill="black"/>
<path d="M219.293 135.716C194.645 157.465 166.417 174.782 135.86 186.898L111.48 147.191C142.036 135.076 170.263 117.759 194.908 96.0088C203.041 109.248 211.17 122.484 219.293 135.716Z" fill="#187259"/>
<path opacity="0.3" d="M219.293 135.715C194.646 157.464 166.418 174.78 135.861 186.897L125.33 169.736C120.736 162.227 116.127 154.714 111.502 147.195C142.058 135.08 170.284 117.763 194.929 96.0127C203.049 109.249 211.17 122.483 219.293 135.715Z" fill="white"/>
<path opacity="0.2" d="M197.634 105.14C197.051 105.684 196.353 106.089 195.591 106.324C194.829 106.559 194.024 106.618 193.236 106.496C192.448 106.375 191.698 106.076 191.043 105.623C190.387 105.169 189.843 104.573 189.451 103.879C168.714 121.058 145.644 135.209 120.932 145.908C121.376 146.57 121.663 147.325 121.772 148.115C121.882 148.904 121.81 149.709 121.563 150.467C121.316 151.225 120.9 151.917 120.346 152.49C119.793 153.064 119.116 153.504 118.367 153.778L133.562 178.508C135.2 177.874 137.005 177.82 138.678 178.354C140.351 178.888 141.791 179.979 142.758 181.444C167.472 170.749 190.542 156.598 211.276 139.415C209.442 136.437 210.168 132.202 212.829 129.875L212.871 129.838L197.692 105.103L197.634 105.14ZM173.519 155.777C167.387 159.529 159.209 157.367 155.499 151.256C151.789 145.145 153.845 137.428 159.977 133.681C166.11 129.934 173.954 131.561 177.701 137.693C181.448 143.825 179.672 152.035 173.519 155.777Z" fill="black"/>
<g opacity="0.2">
<path d="M171.523 149.876L172.53 151.519L171.322 152.256C170.993 151.726 170.659 151.196 170.325 150.634C168.831 151.424 167.145 151.795 165.963 151.593C165.884 150.968 165.804 150.342 165.72 149.717C166.97 149.848 168.233 149.616 169.355 149.049C168.758 148.074 168.161 147.099 167.564 146.124C165.688 146.728 163.6 147.242 162.349 145.207C161.432 143.712 161.734 141.767 163.896 140.15L162.884 138.497L164.087 137.755L165.084 139.382C166.159 138.78 167.365 138.449 168.597 138.417C168.703 139.037 168.804 139.658 168.91 140.272C167.921 140.306 166.949 140.541 166.053 140.961L167.866 143.919C169.742 143.309 171.815 142.705 173.06 144.735C173.977 146.23 173.68 148.217 171.523 149.876ZM166.477 144.353C165.944 143.484 165.414 142.615 164.887 141.746C163.939 142.546 163.827 143.336 164.214 143.982C164.601 144.629 165.47 144.624 166.477 144.353ZM171.274 146.049C170.834 145.329 169.986 145.397 168.953 145.689L170.543 148.281C171.518 147.459 171.661 146.675 171.274 146.049Z" fill="black"/>
</g>
<path opacity="0.2" d="M219.293 135.714C194.645 157.463 166.417 174.779 135.86 186.896L125.329 169.735L123.49 143.144C123.49 143.144 181.949 147.363 219.293 135.714Z" fill="black"/>
<path d="M226.361 187.178C194.366 194.717 161.307 196.658 128.65 192.918C127.745 177.418 126.837 161.915 125.926 146.411C158.59 150.159 191.657 148.217 223.658 140.671C224.552 156.175 225.453 171.678 226.361 187.178Z" fill="#187259"/>
<path opacity="0.4" d="M226.361 187.178C194.366 194.717 161.307 196.658 128.65 192.918C127.745 177.418 126.837 161.915 125.926 146.411C158.59 150.159 191.657 148.217 223.658 140.671C224.552 156.175 225.453 171.678 226.361 187.178Z" fill="white"/>
<path opacity="0.2" d="M221.708 149.988C220.937 150.185 220.131 150.206 219.351 150.048C218.571 149.891 217.836 149.56 217.201 149.08C216.566 148.6 216.047 147.983 215.683 147.275C215.32 146.567 215.12 145.786 215.099 144.99C188.709 150.343 161.692 151.923 134.857 149.681C134.935 150.474 134.831 151.275 134.555 152.023C134.278 152.77 133.835 153.445 133.259 153.997C132.684 154.549 131.99 154.962 131.232 155.207C130.473 155.452 129.668 155.521 128.879 155.41C129.448 165.074 130.013 174.737 130.575 184.401C132.318 184.613 133.936 185.416 135.159 186.677C136.382 187.938 137.136 189.579 137.295 191.328C164.13 193.57 191.147 191.991 217.537 186.638C217.331 183.145 219.97 179.748 223.41 178.974H223.463L221.761 149.988H221.708ZM176.542 183.246C169.366 183.654 163.196 177.882 162.762 170.743C162.327 163.604 167.834 157.774 175.01 157.366C182.186 156.958 188.318 162.136 188.737 169.275C189.156 176.414 183.713 182.848 176.542 183.246Z" fill="black"/>
<g opacity="0.2">
<path d="M177.551 177.103L177.662 179.022L176.253 179.107L176.141 177.204C174.617 177.247 173.115 176.823 171.838 175.99C172.066 175.402 172.288 174.814 172.511 174.225C173.553 174.929 174.773 175.32 176.03 175.354C175.966 174.209 175.899 173.066 175.829 171.925C173.894 171.57 171.806 171.04 171.668 168.655C171.567 166.906 172.755 165.337 175.42 164.945L175.309 163.011L176.719 162.926L176.83 164.828C178.063 164.8 179.283 165.078 180.381 165.639L179.777 167.42C178.891 166.981 177.924 166.729 176.936 166.678L177.143 170.144C179.077 170.489 181.192 170.934 181.335 173.324C181.457 175.047 180.259 176.663 177.551 177.103ZM175.712 169.848C175.648 168.834 175.588 167.818 175.532 166.8C174.318 167.054 173.841 167.696 173.883 168.454C173.926 169.212 174.716 169.598 175.733 169.848H175.712ZM179.141 173.611C179.093 172.773 178.314 172.429 177.265 172.201L177.44 175.238C178.706 174.967 179.205 174.368 179.141 173.611Z" fill="black"/>
</g>
<path d="M150.222 187.228C150.36 188.814 150.524 190.427 150.715 192.067H39.2559C42.7433 162.604 39.2559 149.831 39.2559 149.831C76.5043 147.027 150.715 149.831 150.715 149.831C150.715 149.831 148.473 164.024 149.983 184.35C150.054 185.293 150.134 186.253 150.222 187.228Z" fill="#187259"/>
<path opacity="0.2" d="M150.715 149.831C145.834 152.11 121.957 152.433 108.219 151.58C94.4819 150.727 76.5043 153.329 76.5043 153.329C66.0951 149.736 39.2559 149.831 39.2559 149.831C76.5043 147.027 150.715 149.831 150.715 149.831Z" fill="white"/>
<path opacity="0.2" d="M39.2559 192.067C42.7433 162.604 39.2559 149.831 39.2559 149.831C39.2559 149.831 61.3516 149.349 76.5043 153.329C76.5043 153.329 77.0343 157.823 76.5043 160.134C76.5043 160.134 94.731 157.177 110.954 157.569C110.954 157.569 85.8429 160.457 76.5043 162.604C76.5043 162.604 61.4841 160.261 51.9812 160.134C51.9812 160.134 71.7396 162.705 76.5043 164.242C76.5043 164.242 82.1541 163.213 85.1115 163.213C85.1115 163.213 78.036 164.501 76.5043 165.651V173.792C76.5043 173.792 60.7315 174.105 52.8186 172.976C56.5763 173.564 71.8986 175.923 76.5043 175.923C76.5043 175.923 93.9095 175.281 104.017 175.923C104.017 175.923 80.9881 177.248 76.5043 178.318H56.7353L76.5043 179.977V181.626H84.9843L76.5043 183.088C76.5043 183.088 51.9812 181.53 44.9269 183.088C44.9269 183.088 73.8702 184.403 76.4725 185.426L76.5043 187.864C76.5043 187.864 108.961 183.576 137.666 187.265C137.666 187.265 95.7486 185.601 76.5043 190.265C76.5043 190.265 136.718 188.955 150.704 192.067H39.2559Z" fill="black"/>
<path d="M39.9063 153.33L36.9648 154.358C36.9648 154.358 54.6827 154.968 66.1148 156.717C66.1042 156.717 48.4923 153.584 39.9063 153.33Z" fill="#187259"/>
<path opacity="0.2" d="M79.0879 156.716L83.5717 157.569C83.5717 157.569 104.448 155.301 129.125 155.025C129.125 155.025 93.4827 153.298 79.0879 156.716Z" fill="white"/>
<path opacity="0.2" d="M93.2305 161.51C93.2305 161.51 105.749 158.097 116.725 158.267C127.702 158.436 148.594 156.714 148.594 156.714L149.416 158.267C149.416 158.267 133.033 159.226 119.513 159.115C110.699 159.132 101.903 159.933 93.2305 161.51Z" fill="white"/>
<path opacity="0.2" d="M80.8086 166.616C80.8086 166.616 95.7334 163.436 110.367 163.728C125 164.019 143.428 165.164 143.428 165.164C143.428 165.164 103.434 165.164 93.2318 167.284L80.8086 166.616Z" fill="white"/>
<path d="M106.623 161.995C106.623 161.995 119.476 160.935 130.568 161.513C141.661 162.091 153.311 162.61 153.311 162.61L149.415 163.713C149.415 163.713 122.709 161.036 106.623 161.995Z" fill="#187259"/>
<path opacity="0.2" d="M106.623 161.995C106.623 161.995 119.476 160.935 130.568 161.513C141.661 162.091 153.311 162.61 153.311 162.61L149.415 163.713C149.415 163.713 122.709 161.036 106.623 161.995Z" fill="black"/>
<path opacity="0.2" d="M81.291 169.314C81.291 169.314 103.551 169.038 114.273 168.503C124.995 167.968 139.374 170.941 139.374 170.941C139.374 170.941 121.635 170.565 116.144 171.434L81.291 169.314Z" fill="black"/>
<path opacity="0.2" d="M79.0879 172.685L93.2336 171.435L123.369 172.685L92.8467 173.936L79.0879 172.685Z" fill="white"/>
<path opacity="0.2" d="M89.666 179.326C89.666 179.326 110.235 177.408 118.249 177.307C126.263 177.206 147.828 175.765 147.828 175.765L145.433 178.945C145.433 178.945 104.882 178.081 89.666 179.326Z" fill="white"/>
<path d="M141.822 168.504L149.417 169.219L151.484 168.504C148.271 168.203 145.036 168.203 141.822 168.504Z" fill="#187259"/>
<path d="M150.377 152.472L153.313 152.943L150.159 154.592L131.609 154.199C131.609 154.199 145.517 154.014 150.377 152.472Z" fill="#187259"/>
<path opacity="0.2" d="M141.822 168.504L149.417 169.219L151.484 168.504C148.271 168.203 145.036 168.203 141.822 168.504Z" fill="white"/>
<path opacity="0.2" d="M150.377 152.472L153.313 152.943L150.159 154.592L131.609 154.199C131.609 154.199 145.517 154.014 150.377 152.472Z" fill="black"/>
<path opacity="0.2" d="M150.221 187.228C145.239 186.905 110.328 182.517 110.328 182.517C112.655 182.246 143.13 184.048 149.983 184.351C150.053 185.294 150.133 186.253 150.221 187.228Z" fill="black"/>
<path d="M97.6582 181.917C97.6582 181.917 130.301 181.833 139.64 182.506C148.978 183.179 149.816 181.917 149.816 181.917L154.469 184.159C154.469 184.159 154.707 186.385 142.459 184.832C130.211 183.28 97.6582 181.917 97.6582 181.917Z" fill="#187259"/>
<path d="M70.9876 165.502C70.9876 165.502 51.8705 162.471 40.7246 163.245C42.3998 163.625 43.9603 164.399 45.2773 165.502H70.9876Z" fill="#187259"/>
<path d="M40.7032 173.792C41.1378 173.744 55.0132 175.573 60.3132 175.764L38.7422 176.633L40.7032 173.792Z" fill="#187259"/>
<path d="M39.9169 185.781L60.8731 186.523L36.9648 188.293L39.9169 185.781Z" fill="#187259"/>
<path d="M78.101 148.4C78.101 148.4 107.866 153.488 125.128 133.12L157.649 141.468C157.649 141.468 151.665 153.88 106.721 152.232C61.777 150.584 78.101 148.4 78.101 148.4Z" fill="#187259"/>
<path opacity="0.5" d="M78.101 148.4C78.101 148.4 107.866 153.488 125.128 133.12L157.649 141.468C157.649 141.468 151.665 153.88 106.721 152.232C61.777 150.584 78.101 148.4 78.101 148.4Z" fill="white"/>
<path opacity="0.2" d="M95.0977 149.496C95.0977 149.496 113.293 148.537 123.58 136.898C124.524 137.19 125.534 137.192 126.479 136.903C127.425 136.614 128.261 136.047 128.88 135.276L152.619 141.567C152.619 141.567 150.064 142.463 150.96 145.421C150.938 145.421 119.78 158.045 95.0977 149.496Z" fill="black"/>
<path d="M122.255 90.4652L122.811 87.5131C122.811 87.5131 121.661 86.4213 121.794 85.3931C121.926 84.3649 127.046 82.7431 127.952 82.653C128.859 82.5629 128.514 86.2729 128.239 86.946C127.963 87.6191 124.889 88.43 124.889 88.43L124.502 91.5411L122.255 90.4652Z" fill="#EBB376"/>
<path d="M63.2282 104.978L61.1983 102.763C61.1983 102.763 61.5958 101.231 60.9492 100.446C60.3026 99.6621 55.0821 100.95 54.2765 101.369C53.4709 101.787 55.7075 104.739 56.3011 105.163C56.8947 105.587 59.9263 104.633 59.9263 104.633L61.8979 107.077L63.2282 104.978Z" fill="#EBB376"/>
<path d="M103.598 100.218C109.306 99.8995 114.479 101.092 117.134 100.218C119.789 99.343 122.365 88.2979 122.365 88.2979L125.158 89.2413C125.158 89.2413 124.098 100.737 119.508 103.816C114.918 106.896 104.281 106.869 104.281 106.869L103.598 100.218Z" fill="#187259"/>
<path opacity="0.7" d="M125.158 89.2413C125.158 89.2413 124.098 100.737 119.508 103.816C116.858 105.565 112.316 106.313 108.866 106.636C106.253 106.874 104.281 106.869 104.281 106.869L103.963 103.763L103.598 100.218C109.306 99.8995 114.479 101.092 117.134 100.218C119.789 99.343 122.365 88.2979 122.365 88.2979L125.158 89.2413Z" fill="white"/>
<path opacity="0.2" d="M108.863 106.635C106.251 106.874 104.279 106.869 104.279 106.869L103.961 103.763C105.738 104.453 107.393 105.423 108.863 106.635Z" fill="black"/>
<path d="M140.087 189.503L143.781 188.49L143.118 179.47L139.43 180.487L140.087 189.503Z" fill="#B97964"/>
<path d="M144.011 187.997L139.718 188.294C139.646 188.296 139.578 188.327 139.528 188.38C139.479 188.432 139.452 188.502 139.453 188.575L139.48 191.982C139.492 192.161 139.574 192.327 139.708 192.445C139.842 192.563 140.017 192.623 140.195 192.613C141.69 192.486 142.4 192.348 144.287 192.205C145.97 192.148 147.648 191.971 149.306 191.675C150.896 191.309 150.472 189.772 149.772 189.788C147.965 189.691 146.214 189.126 144.69 188.151C144.486 188.027 144.248 187.973 144.011 187.997Z" fill="#263238"/>
<path d="M145.408 188.551C145.064 188.567 144.72 188.546 144.38 188.488C144.363 188.485 144.347 188.478 144.334 188.467C144.321 188.456 144.311 188.441 144.306 188.424C144.304 188.407 144.305 188.39 144.309 188.374C144.314 188.357 144.322 188.342 144.333 188.329C144.449 188.233 145.483 187.422 145.965 187.571C146.019 187.588 146.068 187.619 146.107 187.661C146.146 187.703 146.174 187.754 146.188 187.809C146.225 187.892 146.237 187.983 146.224 188.072C146.211 188.161 146.173 188.245 146.113 188.313C145.915 188.475 145.664 188.56 145.408 188.551ZM145.912 187.756C145.658 187.677 145.043 188.043 144.619 188.355C145.313 188.44 145.811 188.387 145.981 188.196C146.015 188.15 146.037 188.097 146.044 188.04C146.052 187.983 146.044 187.926 146.023 187.873C146.015 187.846 146 187.822 145.981 187.802C145.962 187.782 145.938 187.766 145.912 187.756Z" fill="#263238"/>
<path d="M144.4 188.489C144.394 188.492 144.387 188.494 144.381 188.494C144.375 188.494 144.368 188.492 144.362 188.489C144.35 188.483 144.339 188.474 144.329 188.463C144.32 188.452 144.314 188.439 144.309 188.426C144.309 188.389 144.145 187.286 144.5 186.884C144.547 186.833 144.605 186.794 144.669 186.768C144.733 186.742 144.802 186.731 144.871 186.735C144.947 186.733 145.022 186.755 145.084 186.799C145.147 186.843 145.193 186.906 145.216 186.979C145.327 187.392 144.813 188.23 144.453 188.479C144.445 188.484 144.436 188.488 144.427 188.49C144.418 188.492 144.409 188.492 144.4 188.489ZM144.824 186.931C144.788 186.933 144.752 186.942 144.72 186.959C144.688 186.975 144.66 186.998 144.638 187.027C144.452 187.406 144.394 187.836 144.474 188.251C144.805 187.934 145.007 187.505 145.041 187.048C145.041 186.995 144.993 186.937 144.866 186.931H144.824Z" fill="#263238"/>
<path opacity="0.2" d="M139.43 180.487L143.124 179.475L143.5 184.631L139.785 185.458L139.43 180.487Z" fill="black"/>
<path d="M135.256 189.369L131.763 190.965L130.878 187.212L129.686 182.167L133.162 180.571L134.36 185.612L135.256 189.369Z" fill="#B97964"/>
<path opacity="0.2" d="M134.36 185.612L130.878 187.212L129.686 182.167L133.162 180.571L134.36 185.612Z" fill="black"/>
<path d="M135.399 188.85L131.212 189.83C131.141 189.843 131.079 189.883 131.039 189.942C130.998 190.001 130.982 190.073 130.994 190.143L131.567 193.509C131.584 193.596 131.618 193.68 131.668 193.754C131.717 193.828 131.781 193.892 131.856 193.941C131.93 193.991 132.014 194.025 132.102 194.041C132.189 194.058 132.28 194.057 132.367 194.039C133.825 193.673 134.487 193.424 136.342 192.979C137.996 192.665 139.626 192.233 141.218 191.685C142.707 191.076 142.066 189.624 141.382 189.751C139.761 190.042 137.333 189.512 136.082 188.935C135.87 188.831 135.63 188.801 135.399 188.85Z" fill="#263238"/>
<path d="M136.871 189.179C136.533 189.248 136.188 189.28 135.843 189.274C135.825 189.277 135.808 189.274 135.792 189.265C135.777 189.256 135.765 189.243 135.758 189.227C135.75 189.212 135.746 189.196 135.746 189.179C135.746 189.162 135.75 189.146 135.758 189.131C135.859 189.02 136.744 188.071 137.247 188.119C137.303 188.129 137.356 188.152 137.4 188.187C137.445 188.222 137.48 188.268 137.502 188.32C137.554 188.399 137.582 188.491 137.582 188.585C137.582 188.68 137.554 188.772 137.502 188.85C137.336 189.029 137.113 189.145 136.871 189.179ZM137.242 188.315C136.972 188.273 136.426 188.734 136.055 189.11C136.755 189.084 137.242 188.951 137.375 188.739C137.405 188.689 137.42 188.633 137.42 188.575C137.42 188.517 137.405 188.46 137.375 188.41C137.365 188.385 137.349 188.362 137.327 188.346C137.306 188.329 137.28 188.318 137.253 188.315H137.242Z" fill="#263238"/>
<path d="M135.86 189.274C135.855 189.277 135.849 189.278 135.844 189.278C135.838 189.278 135.833 189.277 135.828 189.274C135.813 189.27 135.8 189.262 135.789 189.252C135.778 189.242 135.77 189.23 135.764 189.216C135.764 189.184 135.414 188.114 135.706 187.663C135.744 187.606 135.794 187.558 135.852 187.522C135.911 187.486 135.977 187.464 136.045 187.456C136.121 187.441 136.2 187.451 136.269 187.486C136.338 187.52 136.394 187.577 136.427 187.647C136.602 188.034 136.231 188.946 135.897 189.237C135.895 189.246 135.89 189.255 135.884 189.261C135.877 189.268 135.869 189.272 135.86 189.274ZM136.029 187.684C135.959 187.702 135.899 187.746 135.86 187.806C135.738 188.212 135.749 188.647 135.891 189.046C136.168 188.68 136.302 188.226 136.268 187.769C136.268 187.716 136.199 187.663 136.072 187.679L136.029 187.684Z" fill="#263238"/>
<path d="M109.373 138.146L108.244 125.681L87.4312 126.168C87.4312 126.168 84.9667 143.536 86.7581 146.727C89.9381 152.424 110.937 149.191 115.845 149.674C117.848 150.734 128.565 186.281 128.565 186.281L134.569 183.859C134.569 183.859 128.114 153.866 126.619 148.216C124.6 140.362 116.268 140.499 109.373 138.146Z" fill="#263238"/>
<path d="M143.868 183.242L138.568 183.73C138.568 183.73 132.075 150.663 131.572 150.52C130.671 150.26 128.037 149.964 126.622 149.593C116.795 147.038 92.5957 142.337 92.5957 142.337L101.521 133.74C101.521 133.74 141.981 138.595 142.861 148.093C143.311 152.64 143.868 183.242 143.868 183.242Z" fill="#263238"/>
<path opacity="0.2" d="M130.144 150.547C129.238 150.287 128.024 149.969 126.62 149.598C127.012 149.805 125.878 144.658 124.743 143.328C122.491 140.678 113.449 139.236 110.211 138.717C107.497 138.282 98.4023 137.482 98.4023 137.482C98.4023 137.482 114.461 136.094 126.561 139.417C132.545 141.06 131.48 146.9 130.144 150.547Z" fill="black"/>
<path d="M84.6562 103.245C84.6562 103.245 92.336 99.1692 103.598 100.219C103.598 100.219 107.505 110.151 108.247 125.659L87.3063 127.111C87.3063 127.111 87.6826 113.818 84.6562 103.245Z" fill="#187259"/>
<path opacity="0.7" d="M87.3063 127.132C87.3599 123.513 87.2254 119.893 86.9035 116.288C86.718 114.168 86.4529 111.937 86.0713 109.663C85.7207 107.499 85.2483 105.356 84.6562 103.245C84.6562 103.245 92.336 99.1692 103.598 100.219C103.598 100.219 107.505 110.151 108.247 125.659L87.3063 127.132Z" fill="white"/>
<path opacity="0.2" d="M86.92 116.287C86.7345 114.167 86.4695 111.935 86.0879 109.662C86.4598 109.284 86.9078 108.989 87.4023 108.798L87.4288 108.564C87.4129 108.819 88.51 112.736 86.92 116.287Z" fill="black"/>
<path d="M90.459 101.803C92.3776 103.547 97.0734 102.9 97.0734 102.9C97.0734 102.9 100.004 102.1 99.3895 101.183C97.6617 100.897 96.8296 100.091 96.4798 99.0627C96.2942 98.4213 96.2348 97.7499 96.3049 97.0858C96.3049 96.7254 96.3897 96.3544 96.4533 95.9887L90.6286 91.6904C91.4077 94.5259 92.3405 99.7464 90.459 101.803Z" fill="#EBB376"/>
<path opacity="0.2" d="M91.9844 94.4189C92.2176 97.901 95.0796 98.8656 96.4788 99.0617C96.2932 98.4203 96.2338 97.7489 96.3039 97.0848L91.9844 94.4189Z" fill="black"/>
<path d="M95.6694 79.7439C97.8265 80.3269 99.6232 85.3036 98.0067 88.5949C96.3902 91.8862 91.5195 82.6801 91.5195 82.6801C91.5195 82.6801 94.2755 79.3729 95.6694 79.7439Z" fill="#263238"/>
<path d="M100.169 91.1598C100.179 91.361 100.179 91.5627 100.169 91.764C100.132 93.2003 99.5522 94.5693 98.547 95.5959C97.6486 96.5317 96.4334 97.0986 95.1391 97.1859C94.2183 97.2315 93.3024 97.0263 92.4891 96.5923C89.9133 95.2832 89.219 93.0148 87.7191 89.273C87.3455 88.4023 87.2032 87.4499 87.3058 86.508C87.4084 85.5661 87.7526 84.6668 88.3049 83.897C88.8572 83.1271 89.5989 82.513 90.4583 82.1141C91.3176 81.7151 92.2654 81.5448 93.2099 81.6198C97.4499 81.9325 99.8402 87.4498 100.169 91.1598Z" fill="#EBB376"/>
<path d="M93.8741 88.3992C93.9536 88.7119 94.2186 88.9292 94.4041 88.8391C94.5896 88.749 94.6903 88.4628 94.5896 88.1554C94.4889 87.848 94.2345 87.6254 94.0596 87.7155C93.8847 87.8056 93.7734 88.0812 93.8741 88.3992Z" fill="#263238"/>
<path d="M97.3883 87.2422C97.4678 87.5549 97.7381 87.7457 97.9183 87.6821C98.0985 87.6185 98.2045 87.3058 98.1038 86.9931C98.0031 86.6804 97.754 86.4896 97.5738 86.5532C97.3936 86.6168 97.2929 86.9454 97.3883 87.2422Z" fill="#263238"/>
<path d="M96.3223 87.7627C97.0057 88.5911 97.7992 89.3222 98.6808 89.9357C98.5173 90.1589 98.3068 90.3435 98.0641 90.4763C97.8213 90.6091 97.5524 90.6869 97.2763 90.7042L96.3223 87.7627Z" fill="#D58745"/>
<path d="M98.1988 85.3296C98.1732 85.3543 98.142 85.3725 98.1079 85.3827C98.0738 85.3928 98.0377 85.3946 98.0027 85.3879C97.7708 85.3245 97.5272 85.3165 97.2915 85.3643C97.0559 85.4122 96.8348 85.5147 96.6459 85.6635C96.6094 85.6987 96.5604 85.7179 96.5097 85.7169C96.459 85.7159 96.4108 85.6948 96.3756 85.6582C96.3405 85.6217 96.3213 85.5727 96.3223 85.522C96.3233 85.4713 96.3444 85.4231 96.3809 85.3879C96.6163 85.1947 96.8944 85.0602 97.1921 84.9957C97.4898 84.9312 97.7985 84.9385 98.0928 85.0169C98.1176 85.022 98.1412 85.0319 98.1621 85.0461C98.1831 85.0604 98.201 85.0786 98.2148 85.0998C98.2286 85.121 98.238 85.1448 98.2426 85.1697C98.2471 85.1946 98.2467 85.2201 98.2412 85.2448C98.2303 85.2746 98.2161 85.303 98.1988 85.3296Z" fill="#263238"/>
<path d="M92.7134 87.2227C92.6775 87.2361 92.638 87.2361 92.6021 87.2227C92.5587 87.1973 92.5271 87.1557 92.5142 87.107C92.5013 87.0584 92.5081 87.0066 92.5332 86.963C92.6878 86.6991 92.903 86.4759 93.1611 86.3118C93.4192 86.1478 93.7127 86.0476 94.0172 86.0196C94.0423 86.0189 94.0672 86.0231 94.0906 86.0321C94.1141 86.041 94.1355 86.0545 94.1537 86.0717C94.1719 86.0889 94.1865 86.1096 94.1968 86.1325C94.207 86.1554 94.2126 86.18 94.2133 86.2051C94.2134 86.2553 94.1942 86.3037 94.1597 86.3401C94.1252 86.3766 94.078 86.3985 94.0278 86.4012C93.7879 86.4302 93.558 86.5147 93.3565 86.6481C93.155 86.7815 92.9874 86.9601 92.8671 87.1697C92.8466 87.1887 92.8223 87.2033 92.7958 87.2124C92.7694 87.2215 92.7413 87.225 92.7134 87.2227Z" fill="#263238"/>
<path d="M88.9628 83.5498L89.7949 85.1398C89.5696 85.3836 89.4444 85.7035 89.4444 86.0355C89.4444 86.3675 89.5696 86.6874 89.7949 86.9312C90.8549 88.1184 90.8973 90.5776 90.1553 91.8496C90.1553 91.8496 89.8956 91.2613 89.4398 91.5952C88.984 91.9291 90.3302 95.019 91.8937 96.1373C91.8937 96.1373 89.8744 95.3582 87.765 92.3849C85.8146 89.6395 84.744 87.1326 84.9189 85.7122L88.9628 83.5498Z" fill="#263238"/>
<path d="M87.0874 92.915C87.7928 93.6404 88.7574 94.056 89.7692 94.0704C91.1154 94.0704 91.4334 92.7931 90.7656 91.7066C90.1667 90.7473 88.741 89.5548 87.5379 90.0795C86.3348 90.6042 86.2288 92.014 87.0874 92.915Z" fill="#EBB376"/>
<path d="M97.6864 92.0349C97.4423 92.5689 97.2368 93.1197 97.0716 93.6832L96.7642 93.6461C95.3756 93.4606 94.7873 92.9147 94.5647 92.3635C94.4613 92.0936 94.4232 91.803 94.4534 91.5155C94.4642 91.3503 94.4999 91.1877 94.5594 91.0332C95.3653 91.5312 96.2693 91.8494 97.2094 91.966C97.5168 92.019 97.6864 92.0349 97.6864 92.0349Z" fill="#263238"/>
<path d="M97.2144 91.966L97.0183 92.4483C95.7092 92.2681 94.8082 91.966 94.4531 91.5155C94.4639 91.3503 94.4996 91.1877 94.5591 91.0332C95.3666 91.5319 96.2724 91.8501 97.2144 91.966Z" fill="white"/>
<path d="M96.764 93.6449C95.3754 93.4594 94.7871 92.9135 94.5645 92.3623C95.0931 92.4503 95.6025 92.6296 96.0697 92.8923C96.3733 93.0654 96.6159 93.3283 96.764 93.6449Z" fill="#DE5753"/>
<path d="M92.5039 83.825C92.5039 83.825 92.1329 81.2916 93.7335 81.7845C95.3341 82.2774 95.4454 81.3128 94.9684 79.3571C94.4914 77.4014 89.9016 76.7071 87.3046 79.9136C84.7076 83.1201 83.8013 85.8072 85.0574 87.2276C86.3135 88.648 91.0994 84.4557 91.0994 84.4557C91.2299 83.7396 91.5338 83.0663 91.9845 82.4947C92.0139 82.9817 92.1956 83.447 92.5039 83.825Z" fill="#263238"/>
<path d="M94.9824 102.699L97.5211 104.941C97.5211 104.941 98.915 114.375 102.339 118.498H104.459L104.878 117.035C101.693 113.48 99.4063 109.212 98.2101 104.591V101.586L94.9824 102.699Z" fill="#263238"/>
<path d="M91.1061 99.7621L96.3213 101.718L96.7665 99.0625L99.4748 100.043L100.169 103.398L96.4803 102.486L94.6518 104.935L89.3359 101.495L91.1061 99.7621Z" fill="#187259"/>
<path opacity="0.5" d="M91.1061 99.7621L96.3213 101.718L96.7665 99.0625L99.4748 100.043L100.169 103.398L96.4803 102.486L94.6518 104.935L89.3359 101.495L91.1061 99.7621Z" fill="white"/>
<path d="M87.0059 126.782L108.487 124.741L108.534 127.349L87.0165 129.108L87.0059 126.782Z" fill="black"/>
<path d="M103.942 125.277C103.845 125.189 103.731 125.123 103.607 125.083C103.483 125.043 103.351 125.029 103.222 125.043L101.319 125.24C101.084 125.263 100.866 125.375 100.709 125.551C100.552 125.728 100.467 125.957 100.471 126.194V127.413C100.476 127.663 100.581 127.902 100.762 128.075C100.942 128.249 101.185 128.344 101.435 128.34H101.515L103.418 128.139C103.652 128.115 103.869 128.003 104.026 127.826C104.182 127.65 104.266 127.421 104.26 127.185V125.971C104.26 125.839 104.231 125.709 104.176 125.59C104.121 125.47 104.042 125.363 103.942 125.277ZM103.386 127.651L101.488 127.852C101.423 127.861 101.357 127.857 101.294 127.838C101.231 127.82 101.173 127.788 101.123 127.746C101.073 127.703 101.032 127.651 101.004 127.591C100.976 127.532 100.96 127.468 100.958 127.402V126.188C100.956 126.073 100.998 125.961 101.074 125.875C101.151 125.788 101.257 125.734 101.372 125.722L103.269 125.526H103.312C103.432 125.526 103.548 125.573 103.634 125.657C103.72 125.741 103.77 125.856 103.773 125.976V126.141H103.699L103.169 126.188C103.126 126.192 103.085 126.204 103.047 126.224C103.009 126.244 102.976 126.271 102.948 126.304C102.921 126.336 102.901 126.374 102.888 126.415C102.875 126.455 102.871 126.498 102.874 126.541C102.878 126.583 102.89 126.624 102.91 126.662C102.93 126.7 102.957 126.733 102.99 126.761C103.022 126.788 103.06 126.809 103.101 126.821C103.142 126.834 103.184 126.839 103.227 126.835L103.757 126.782H103.783V127.201C103.783 127.311 103.742 127.418 103.669 127.501C103.596 127.583 103.495 127.637 103.386 127.651Z" fill="white"/>
<path d="M84.6557 103.244C81.0729 105.364 75.9001 112.344 74.0822 112.201C72.2643 112.058 62.4593 103.35 62.4593 103.35L60.2227 105.772C60.2227 105.772 69.2804 116.59 73.4992 117.406C77.718 118.222 87.0089 110.399 87.0089 110.399C87.5343 109.051 87.5343 107.555 87.0089 106.207C86.5324 105.01 85.7139 103.979 84.6557 103.244Z" fill="#187259"/>
<path opacity="0.7" d="M84.6557 103.244C81.0729 105.364 75.9001 112.344 74.0822 112.201C72.2643 112.058 62.4593 103.35 62.4593 103.35L60.2227 105.772C60.2227 105.772 69.2804 116.59 73.4992 117.406C77.718 118.222 87.0089 110.399 87.0089 110.399C87.5343 109.051 87.5343 107.555 87.0089 106.207C86.5324 105.01 85.7139 103.979 84.6557 103.244Z" fill="white"/>
<path d="M117.452 152.515C117.452 152.515 46.3211 153.007 41.9062 143.017L73.5843 140.717C79.8711 143.354 86.3055 145.624 92.8551 147.517C100.169 149.653 108.84 151.677 117.452 152.515Z" fill="#187259"/>
<path opacity="0.2" d="M117.454 152.513C117.454 152.513 115.223 152.513 111.513 152.513C96.2965 151.453 78.5309 143.896 78.5309 143.896C72.1179 145.305 67.7083 142.777 67.7083 142.777L50.4197 143.768C50.5128 144.194 50.5088 144.635 50.4078 145.059C50.3069 145.483 50.1117 145.879 49.8367 146.217C58.799 148.734 68.4609 150.266 76.3367 151.194C59.7 149.948 43.9113 147.574 41.8867 143.032L73.5648 140.731C73.5648 140.731 95.6923 150.393 117.454 152.513Z" fill="white"/>
<path opacity="0.2" d="M117.452 152.511C117.452 152.511 46.3211 153.004 41.9062 143.014C41.9062 143.014 65.9417 153.396 92.8551 147.513C100.169 149.649 108.84 151.674 117.452 152.511Z" fill="black"/>
</svg>
