<svg width="273" height="202" viewBox="0 0 273 202" fill="none" xmlns="http://www.w3.org/2000/svg">
<path d="M133.534 201.842C191.854 201.842 239.132 199.082 239.132 195.677C239.132 192.272 191.854 189.512 133.534 189.512C75.2135 189.512 27.9355 192.272 27.9355 195.677C27.9355 199.082 75.2135 201.842 133.534 201.842Z" fill="#F5F5F5"/>
<path d="M191.024 133.659H84.1133V139.329H191.024V133.659Z" fill="#263238"/>
<path d="M191.024 133.659H84.1133V139.329H191.024V133.659Z" fill="#263238"/>
<path d="M191.024 137.607H84.1133V139.328H191.024V137.607Z" fill="black"/>
<path d="M169.13 172.416H106.002L107.325 166.577H167.807L169.13 172.416Z" fill="#263238"/>
<path d="M165.16 166.577L166.484 172.416H169.131L167.807 166.577H165.16Z" fill="black"/>
<path d="M107.325 166.577L106.002 172.416H108.654L109.978 166.577H107.325Z" fill="black"/>
<path d="M101.519 193.829C100.675 193.829 100.065 192.784 100.305 191.738L112.194 139.328H114.841L102.75 192.647C102.71 192.955 102.566 193.24 102.343 193.455C102.119 193.67 101.828 193.802 101.519 193.829Z" fill="#263238"/>
<path d="M111.535 142.166H114.188L114.83 139.328H112.178L111.535 142.166Z" fill="black"/>
<path d="M173.614 193.829C174.464 193.829 175.074 192.784 174.834 191.738L162.956 139.328H160.309L172.394 192.647C172.434 192.953 172.577 193.236 172.798 193.451C173.02 193.665 173.307 193.799 173.614 193.829Z" fill="#263238"/>
<path d="M162.956 139.328H160.309L160.951 142.166H163.598L162.956 139.328Z" fill="black"/>
<path d="M186.51 62.8848H88.6289V136.78H186.51V62.8848Z" fill="#187259"/>
<path opacity="0.7" d="M186.51 62.8848H88.6289V136.78H186.51V62.8848Z" fill="white"/>
<path opacity="0.7" d="M159.034 111.542C159.034 112.39 158.866 113.23 158.542 114.014C158.217 114.798 157.741 115.51 157.142 116.109C156.542 116.709 155.83 117.185 155.046 117.51C154.262 117.834 153.422 118.001 152.574 118.001V111.542H159.034Z" fill="white"/>
<path d="M116.209 86.6195V85.9551H102.975V86.6195H109.265V106.471H102.975V107.13H109.265V126.982H102.975V127.647H116.209V126.982H109.924V107.13H116.209V106.471H109.924V86.6195H116.209Z" fill="#263238"/>
<path d="M117.842 98.8574H114.34V94.2281H117.842C118.258 94.2281 118.657 94.3933 118.951 94.6875C119.245 94.9816 119.41 95.3806 119.41 95.7966V97.2889C119.41 97.7049 119.245 98.1038 118.951 98.398C118.657 98.6922 118.258 98.8574 117.842 98.8574Z" fill="#263238"/>
<path d="M117.842 119.373H114.34V114.738H117.842C118.258 114.738 118.657 114.903 118.951 115.198C119.245 115.492 119.41 115.891 119.41 116.307V117.799C119.411 118.005 119.371 118.21 119.292 118.401C119.214 118.592 119.098 118.765 118.953 118.912C118.807 119.058 118.634 119.174 118.443 119.253C118.252 119.332 118.048 119.373 117.842 119.373Z" fill="#263238"/>
<path d="M101.344 114.738H104.846V119.373H101.344C100.928 119.373 100.529 119.208 100.235 118.914C99.9407 118.62 99.7754 118.221 99.7754 117.805V116.312C99.7747 116.106 99.8147 115.901 99.8932 115.71C99.9717 115.519 100.087 115.346 100.233 115.2C100.379 115.053 100.552 114.937 100.742 114.858C100.933 114.779 101.137 114.738 101.344 114.738Z" fill="#263238"/>
<path d="M101.344 94.2285H104.846V98.8579H101.344C100.928 98.8579 100.529 98.6926 100.235 98.3985C99.9406 98.1043 99.7754 97.7053 99.7754 97.2893V95.7971C99.7754 95.3811 99.9406 94.9821 100.235 94.6879C100.529 94.3938 100.928 94.2285 101.344 94.2285Z" fill="#263238"/>
<path d="M103.553 70.5146H107.055V75.1494H103.553C103.137 75.1494 102.738 74.9842 102.444 74.69C102.15 74.3959 101.984 73.9969 101.984 73.5809V72.0886C101.984 71.8822 102.024 71.6776 102.102 71.4867C102.181 71.2958 102.296 71.1222 102.442 70.976C102.588 70.8298 102.761 70.7137 102.951 70.6346C103.142 70.5554 103.346 70.5146 103.553 70.5146Z" fill="#263238"/>
<path d="M165.004 123.43V119.929H169.639V123.43C169.639 123.846 169.473 124.245 169.179 124.54C168.885 124.834 168.486 124.999 168.07 124.999H166.578C166.371 125 166.167 124.96 165.976 124.881C165.785 124.803 165.611 124.687 165.465 124.542C165.319 124.396 165.203 124.223 165.124 124.032C165.045 123.841 165.004 123.637 165.004 123.43Z" fill="#263238"/>
<path d="M142.385 86.6195V85.9551H129.15V86.6195H135.441V106.471H129.15V107.13H135.441V126.982H129.15V127.647H142.385V126.982H136.1V107.13H142.385V106.471H136.1V86.6195H142.385Z" fill="#263238"/>
<path d="M144.019 98.8574H140.517V94.2281H144.019C144.435 94.2281 144.834 94.3933 145.128 94.6875C145.423 94.9816 145.588 95.3806 145.588 95.7966V97.2889C145.588 97.7049 145.423 98.1038 145.128 98.398C144.834 98.6922 144.435 98.8574 144.019 98.8574Z" fill="#263238"/>
<path d="M160.258 92.9053H163.76V97.5346H160.258C159.842 97.5346 159.443 97.3694 159.149 97.0752C158.855 96.7811 158.689 96.3821 158.689 95.9661V94.4738C158.689 94.0578 158.855 93.6588 159.149 93.3647C159.443 93.0705 159.842 92.9053 160.258 92.9053Z" fill="#263238"/>
<path d="M160.258 81.9199H163.76V86.5384H160.258C159.842 86.5384 159.443 86.3731 159.149 86.079C158.855 85.7848 158.689 85.3858 158.689 84.9698V83.4885C158.689 83.0724 158.855 82.6735 159.149 82.3793C159.443 82.0852 159.842 81.9199 160.258 81.9199Z" fill="#263238"/>
<path d="M172.195 97.535H168.715V92.9057H172.217C172.633 92.9057 173.032 93.0709 173.326 93.3651C173.62 93.6592 173.785 94.0582 173.785 94.4742V95.9665C173.785 96.1743 173.744 96.3801 173.664 96.5718C173.584 96.7635 173.466 96.9374 173.318 97.0834C173.17 97.2293 172.995 97.3444 172.802 97.4219C172.609 97.4994 172.403 97.5379 172.195 97.535Z" fill="#263238"/>
<path d="M164.188 103.906V100.404H168.822V103.906C168.822 104.322 168.657 104.721 168.363 105.015C168.069 105.309 167.67 105.475 167.254 105.475H165.761C165.555 105.475 165.35 105.435 165.16 105.357C164.969 105.278 164.795 105.163 164.649 105.017C164.503 104.871 164.387 104.698 164.307 104.508C164.228 104.317 164.187 104.113 164.188 103.906Z" fill="#263238"/>
<path d="M172.195 86.5477H168.715V81.9292H172.217C172.633 81.9292 173.032 82.0945 173.326 82.3887C173.62 82.6828 173.785 83.0818 173.785 83.4978V84.9792C173.785 85.187 173.744 85.3928 173.664 85.5845C173.584 85.7762 173.466 85.9501 173.318 86.0961C173.17 86.242 172.995 86.3571 172.802 86.4346C172.609 86.5121 172.403 86.5506 172.195 86.5477Z" fill="#263238"/>
<path d="M144.019 119.373H140.517V114.738H144.019C144.435 114.738 144.834 114.903 145.128 115.198C145.423 115.492 145.588 115.891 145.588 116.307V117.799C145.589 118.005 145.549 118.21 145.47 118.401C145.392 118.592 145.276 118.765 145.13 118.912C144.985 119.058 144.812 119.174 144.621 119.253C144.43 119.332 144.226 119.373 144.019 119.373Z" fill="#263238"/>
<path d="M127.522 114.738H131.024V119.373H127.522C127.106 119.373 126.707 119.208 126.413 118.914C126.118 118.62 125.953 118.221 125.953 117.805V116.312C125.952 116.106 125.992 115.901 126.071 115.71C126.149 115.519 126.265 115.346 126.411 115.2C126.556 115.053 126.729 114.937 126.92 114.858C127.111 114.779 127.315 114.738 127.522 114.738Z" fill="#263238"/>
<path d="M127.522 94.2285H131.024V98.8579H127.522C127.106 98.8579 126.707 98.6926 126.413 98.3985C126.118 98.1043 125.953 97.7053 125.953 97.2893V95.7971C125.953 95.3811 126.118 94.9821 126.413 94.6879C126.707 94.3938 127.106 94.2285 127.522 94.2285Z" fill="#263238"/>
<path opacity="0.7" d="M122.666 66.9639C122.666 67.8119 122.499 68.6515 122.175 69.4349C121.85 70.2183 121.374 70.93 120.774 71.5294C120.174 72.1287 119.462 72.604 118.678 72.928C117.895 73.252 117.055 73.4185 116.207 73.4177V66.9639H122.666Z" fill="white"/>
<path opacity="0.7" d="M122.666 66.9639C122.666 67.8119 122.833 68.6515 123.158 69.4349C123.482 70.2183 123.958 70.93 124.558 71.5294C125.158 72.1287 125.87 72.604 126.654 72.928C127.438 73.252 128.277 73.4185 129.125 73.4177V66.9639H122.666Z" fill="white"/>
<path d="M158.687 67.8301H174.127V66.1036H158.687V67.8301Z" fill="#187259"/>
<path opacity="0.7" d="M151.713 78.6888C150 78.6888 148.357 78.0083 147.146 76.7969C145.934 75.5856 145.254 73.9426 145.254 72.2295H151.713V78.6888Z" fill="white"/>
<path opacity="0.7" d="M151.713 78.6904C150.001 78.6904 148.359 79.3702 147.148 80.5804C145.937 81.7906 145.255 83.4321 145.254 85.1443H151.713V78.6904Z" fill="white"/>
<path d="M116.65 102.06V91.0312H112.016V102.06H116.65Z" fill="#187259"/>
<path d="M116.652 122.576V111.547H112.018V122.576H116.652Z" fill="#187259"/>
<path d="M102.533 111.542V122.57H107.168V111.542H102.533Z" fill="#187259"/>
<path d="M102.533 91.0308V102.06H107.168V91.0308H102.533Z" fill="#187259"/>
<path d="M104.742 67.3174V76.3582H98.3477V80.993H109.376V67.3174H104.742Z" fill="#187259"/>
<path d="M142.828 102.06V91.0312H138.193V102.06H142.828Z" fill="#187259"/>
<path d="M142.83 122.576V111.547H138.195V122.576H142.83Z" fill="#187259"/>
<path d="M128.709 111.542V122.57H133.338V111.542H128.709Z" fill="#187259"/>
<path d="M128.709 91.0308V102.06H133.338V91.0308H128.709Z" fill="#187259"/>
<path d="M158.215 117.609V128.638H162.85V122.239H171.782V128.638H176.416V117.609H158.215Z" fill="#187259"/>
<path d="M161.779 76.4021V102.06H171.234V76.4021H161.779Z" fill="#187259"/>
<g opacity="0.3">
<path d="M116.652 102.06V91.0312H112.018V102.06H116.652Z" fill="white"/>
<path d="M116.66 122.576V111.547H112.025V122.576H116.66Z" fill="white"/>
<path d="M102.535 111.542V122.57H107.17V111.542H102.535Z" fill="white"/>
<path d="M102.535 91.0318V102.061H107.17V91.0318H102.535Z" fill="white"/>
<path d="M104.744 67.3174V76.3582H98.3496V80.993H109.378V67.3174H104.744Z" fill="white"/>
<path d="M142.83 102.06V91.0312H138.195V102.06H142.83Z" fill="white"/>
<path d="M142.832 122.576V111.547H138.197V122.576H142.832Z" fill="white"/>
<path d="M128.713 111.542V122.57H133.342V111.542H128.713Z" fill="white"/>
<path d="M128.713 91.0318V102.061H133.342V91.0318H128.713Z" fill="white"/>
<path d="M158.223 117.609V128.638H162.857V122.239H171.789V128.638H176.424V117.609H158.223Z" fill="white"/>
<path d="M161.781 76.403V102.061H171.236V76.403H161.781Z" fill="white"/>
</g>
<path d="M129.374 65.0137H115.992V67.1813H129.374V65.0137Z" fill="#263238"/>
<path d="M153.656 72.0127H151.488V85.3942H153.656V72.0127Z" fill="#263238"/>
<path d="M159.253 110.458H152.342V112.626H159.253V110.458Z" fill="#263238"/>
<path d="M94.5918 65.4395V134.558H180.175V65.4395H94.5918ZM178.852 110.883H153.254V66.7684H178.852V110.883ZM95.9153 66.7684H151.914V133.235H95.9153V66.7684ZM153.238 133.235V112.207H178.835V133.235H153.238Z" fill="#263238"/>
<path d="M172.877 74.7844L174.582 69.9917C173.826 68.4955 173.629 66.7788 174.025 65.1502C174.422 63.5215 175.386 62.0878 176.745 61.1067C178.105 60.1256 179.769 59.6615 181.44 59.7977C183.11 59.934 184.678 60.6618 185.86 61.8502C187.042 63.0386 187.761 64.6097 187.889 66.2811C188.016 67.9525 187.543 69.6145 186.555 70.9684C185.567 72.3223 184.128 73.2793 182.497 73.6673C180.867 74.0553 179.151 73.8489 177.659 73.0852L172.877 74.7844Z" fill="#187259"/>
<path opacity="0.2" d="M172.877 74.7844L174.582 69.9917C173.826 68.4955 173.629 66.7788 174.025 65.1502C174.422 63.5215 175.386 62.0878 176.745 61.1067C178.105 60.1256 179.769 59.6615 181.44 59.7977C183.11 59.934 184.678 60.6618 185.86 61.8502C187.042 63.0386 187.761 64.6097 187.889 66.2811C188.016 67.9525 187.543 69.6145 186.555 70.9684C185.567 72.3223 184.128 73.2793 182.497 73.6673C180.867 74.0553 179.151 73.8489 177.659 73.0852L172.877 74.7844Z" fill="black"/>
<path d="M180.095 66.3865C179.887 66.1712 179.728 65.914 179.629 65.6321C179.529 65.3503 179.491 65.0504 179.517 64.7526C179.517 63.7123 179.915 62.8682 180.83 62.8682C181.745 62.8682 182.148 63.7123 182.148 64.7526C182.173 65.0508 182.135 65.3509 182.034 65.6328C181.933 65.9147 181.774 66.1717 181.565 66.3865C183.199 66.5608 184.463 67.3505 184.463 68.9245H177.197C177.197 67.3559 178.444 66.5662 180.095 66.3865Z" fill="white"/>
<path d="M118.379 88.2043L120.084 83.4116C119.321 81.9077 119.119 80.1809 119.516 78.5418C119.913 76.9028 120.882 75.4593 122.249 74.4711C123.615 73.4828 125.289 73.0148 126.97 73.1511C128.651 73.2875 130.228 74.0194 131.417 75.215C132.607 76.4106 133.33 77.9914 133.458 79.673C133.585 81.3545 133.108 83.0263 132.113 84.3876C131.117 85.7488 129.669 86.71 128.027 87.0982C126.386 87.4864 124.661 87.2761 123.161 86.5051L118.379 88.2043Z" fill="#187259"/>
<path opacity="0.2" d="M118.379 88.2043L120.084 83.4116C119.321 81.9077 119.119 80.1809 119.516 78.5418C119.913 76.9028 120.882 75.4593 122.249 74.4711C123.615 73.4828 125.289 73.0148 126.97 73.1511C128.651 73.2875 130.228 74.0194 131.417 75.215C132.607 76.4106 133.33 77.9914 133.458 79.673C133.585 81.3545 133.108 83.0263 132.113 84.3876C131.117 85.7488 129.669 86.71 128.027 87.0982C126.386 87.4864 124.661 87.2761 123.161 86.5051L118.379 88.2043Z" fill="black"/>
<path d="M125.603 79.8167C125.394 79.6019 125.234 79.3449 125.134 79.063C125.033 78.7812 124.994 78.481 125.02 78.1828C125.02 77.1371 125.423 76.293 126.338 76.293C127.253 76.293 127.65 77.1371 127.65 78.1828C127.676 78.4806 127.638 78.7805 127.539 79.0624C127.439 79.3442 127.28 79.6015 127.073 79.8167C128.707 79.9856 129.97 80.7753 129.97 82.3493H122.705C122.705 80.7753 123.947 80.0019 125.603 79.8167Z" fill="white"/>
<path d="M156.062 120.136L154.363 115.343C155.054 113.975 155.28 112.418 155.006 110.909C154.732 109.4 153.973 108.022 152.844 106.984C151.715 105.946 150.278 105.305 148.752 105.158C147.226 105.011 145.693 105.367 144.387 106.17C143.081 106.974 142.073 108.182 141.516 109.61C140.959 111.039 140.884 112.61 141.301 114.086C141.719 115.561 142.607 116.86 143.83 117.785C145.053 118.71 146.544 119.21 148.078 119.21C149.192 119.21 150.289 118.945 151.28 118.437L156.062 120.136Z" fill="#263238"/>
<path opacity="0.5" d="M156.062 120.136L154.363 115.343C155.054 113.975 155.28 112.418 155.006 110.909C154.732 109.4 153.973 108.022 152.844 106.984C151.715 105.946 150.278 105.305 148.752 105.158C147.226 105.011 145.693 105.367 144.387 106.17C143.081 106.974 142.073 108.182 141.516 109.61C140.959 111.039 140.884 112.61 141.301 114.086C141.719 115.561 142.607 116.86 143.83 117.785C145.053 118.71 146.544 119.21 148.078 119.21C149.192 119.21 150.289 118.945 151.28 118.437L156.062 120.136Z" fill="white"/>
<path d="M148.841 111.743C149.049 111.529 149.209 111.272 149.31 110.99C149.41 110.708 149.449 110.408 149.424 110.11C149.424 109.069 149.026 108.22 148.106 108.22C147.185 108.22 146.793 109.069 146.793 110.11C146.767 110.407 146.805 110.707 146.905 110.989C147.004 111.271 147.163 111.528 147.37 111.743C145.737 111.918 144.479 112.702 144.479 114.276H151.738C151.738 112.68 150.497 111.918 148.841 111.743Z" fill="white"/>
<path d="M212.99 79.584H196.749C195.929 79.584 195.142 79.9099 194.562 80.49C193.982 81.0702 193.656 81.857 193.656 82.6775V82.9008L191.025 84.6926L193.656 86.4844V86.7132C193.656 87.5336 193.982 88.3205 194.562 88.9006C195.142 89.4808 195.929 89.8067 196.749 89.8067H212.99C213.811 89.8067 214.598 89.4808 215.178 88.9006C215.758 88.3205 216.084 87.5336 216.084 86.7132V82.6775C216.084 81.857 215.758 81.0702 215.178 80.49C214.598 79.9099 213.811 79.584 212.99 79.584Z" fill="#187259"/>
<path d="M209.241 82.8618H205.021C204.834 82.8618 204.654 82.7879 204.522 82.6563C204.389 82.5247 204.314 82.346 204.312 82.1592C204.312 82.0662 204.331 81.9741 204.366 81.8882C204.402 81.8023 204.454 81.7243 204.52 81.6585C204.586 81.5928 204.664 81.5406 204.75 81.5051C204.835 81.4695 204.928 81.4512 205.021 81.4512H209.241C209.428 81.4526 209.607 81.5278 209.739 81.6605C209.87 81.7931 209.944 81.9724 209.944 82.1592C209.944 82.3455 209.87 82.5242 209.738 82.656C209.606 82.7877 209.428 82.8618 209.241 82.8618Z" fill="#263238"/>
<path d="M211.954 85.2588H205.021C204.833 85.2588 204.653 85.1842 204.52 85.0514C204.387 84.9187 204.313 84.7386 204.313 84.5508C204.312 84.363 204.387 84.1829 204.52 84.0501C204.653 83.9174 204.833 83.8428 205.021 83.8428H211.954C212.141 83.8428 212.322 83.9174 212.454 84.0501C212.587 84.1829 212.662 84.363 212.662 84.5508C212.662 84.7386 212.587 84.9187 212.454 85.0514C212.322 85.1842 212.141 85.2588 211.954 85.2588Z" fill="#263238"/>
<path d="M210.298 87.6284H205.021C204.833 87.6284 204.653 87.5538 204.52 87.421C204.387 87.2882 204.312 87.1081 204.312 86.9203C204.314 86.7335 204.389 86.5548 204.522 86.4232C204.654 86.2916 204.834 86.2178 205.021 86.2178H210.298C210.485 86.2178 210.664 86.2916 210.797 86.4232C210.929 86.5548 211.005 86.7335 211.006 86.9203C211.006 87.0133 210.988 87.1054 210.952 87.1913C210.917 87.2772 210.864 87.3552 210.799 87.421C210.733 87.4867 210.655 87.5389 210.569 87.5745C210.483 87.6101 210.391 87.6284 210.298 87.6284Z" fill="#263238"/>
<g opacity="0.8">
<path d="M197.848 87.0841C197.899 87.2771 198.012 87.4478 198.17 87.5695C198.328 87.6913 198.522 87.7574 198.722 87.7574C198.921 87.7574 199.115 87.6913 199.273 87.5695C199.432 87.4478 199.545 87.2771 199.596 87.0841C199.014 87.0514 198.43 87.0514 197.848 87.0841Z" fill="white"/>
<path d="M201.377 86.4999C201.159 85.6666 200.832 84.4412 200.783 83.8857C200.756 83.41 200.576 82.9557 200.27 82.5907C199.964 82.2256 199.548 81.9692 199.084 81.8596C199.084 81.8596 199.084 81.8596 199.084 81.8215C199.084 81.7233 199.045 81.6291 198.976 81.5596C198.906 81.4902 198.812 81.4512 198.714 81.4512C198.616 81.4512 198.521 81.4902 198.452 81.5596C198.382 81.6291 198.343 81.7233 198.343 81.8215C198.342 81.8342 198.342 81.847 198.343 81.8596C197.879 81.969 197.462 82.2252 197.155 82.5902C196.848 82.9552 196.667 83.4095 196.639 83.8857C196.486 84.7668 196.288 85.6394 196.045 86.4999C196.028 86.5644 196.027 86.6324 196.042 86.6974C196.058 86.7624 196.09 86.8223 196.135 86.8718C196.18 86.9212 196.237 86.9584 196.3 86.98C196.364 87.0017 196.431 87.007 196.497 86.9955C197.961 86.7922 199.445 86.7922 200.909 86.9955C200.976 87.0103 201.045 87.0074 201.111 86.9873C201.177 86.9671 201.236 86.9302 201.283 86.8803C201.33 86.8304 201.364 86.7691 201.38 86.7025C201.397 86.6358 201.396 86.566 201.377 86.4999Z" fill="white"/>
</g>
<path d="M71.0816 26.4063H47.1179C46.5162 26.4048 45.9203 26.5224 45.3642 26.7521C44.8081 26.9818 44.303 27.3193 43.8778 27.7449C43.4526 28.1706 43.1158 28.6762 42.8867 29.2325C42.6577 29.7888 42.5408 30.385 42.543 30.9866V36.9449C42.543 38.1553 43.0238 39.3162 43.8798 40.1721C44.7357 41.028 45.8965 41.5089 47.107 41.5089H58.6423L61.3654 45.5391L64.1158 41.5089H71.0598C72.2703 41.5089 73.4311 41.028 74.2871 40.1721C75.143 39.3162 75.6238 38.1553 75.6238 36.9449V30.9866C75.6282 29.7771 75.1522 28.6153 74.3005 27.7565C73.4489 26.8977 72.2911 26.412 71.0816 26.4063Z" fill="#187259"/>
<path d="M55.7972 33.7365C55.7972 34.8718 55.4605 35.9817 54.8298 36.9257C54.199 37.8697 53.3025 38.6055 52.2536 39.0399C51.2046 39.4744 50.0504 39.5881 48.9369 39.3666C47.8234 39.1451 46.8005 38.5984 45.9977 37.7956C45.1949 36.9928 44.6482 35.9699 44.4267 34.8564C44.2052 33.7429 44.3189 32.5887 44.7534 31.5397C45.1878 30.4908 45.9236 29.5943 46.8676 28.9635C47.8116 28.3328 48.9215 27.9961 50.0568 27.9961C50.8107 27.9961 51.5571 28.1446 52.2536 28.4331C52.95 28.7215 53.5828 29.1444 54.1159 29.6774C54.6489 30.2105 55.0718 30.8433 55.3602 31.5397C55.6487 32.2362 55.7972 32.9827 55.7972 33.7365Z" fill="#187259"/>
<path opacity="0.9" d="M55.7972 33.7365C55.7972 34.8718 55.4605 35.9817 54.8298 36.9257C54.199 37.8697 53.3025 38.6055 52.2536 39.0399C51.2046 39.4744 50.0504 39.5881 48.9369 39.3666C47.8234 39.1451 46.8005 38.5984 45.9977 37.7956C45.1949 36.9928 44.6482 35.9699 44.4267 34.8564C44.2052 33.7429 44.3189 32.5887 44.7534 31.5397C45.1878 30.4908 45.9236 29.5943 46.8676 28.9635C47.8116 28.3328 48.9215 27.9961 50.0568 27.9961C50.8107 27.9961 51.5571 28.1446 52.2536 28.4331C52.95 28.7215 53.5828 29.1444 54.1159 29.6774C54.6489 30.2105 55.0718 30.8433 55.3602 31.5397C55.6487 32.2362 55.7972 32.9827 55.7972 33.7365Z" fill="white"/>
<path d="M54.6264 33.737C54.6263 34.6421 54.3579 35.5268 53.855 36.2792C53.352 37.0317 52.6372 37.6181 51.8009 37.9642C50.9647 38.3103 50.0445 38.4006 49.1569 38.2236C48.2693 38.0466 47.4542 37.6104 46.8146 36.97C46.175 36.3297 45.7397 35.514 45.5638 34.6262C45.3879 33.7384 45.4793 32.8183 45.8264 31.9825C46.1735 31.1466 46.7607 30.4325 47.5137 29.9305C48.2668 29.4284 49.1518 29.161 50.0569 29.1621C50.6574 29.1621 51.2521 29.2805 51.8068 29.5105C52.3616 29.7404 52.8655 30.0775 53.2899 30.5024C53.7143 30.9273 54.0508 31.4317 54.2801 31.9867C54.5094 32.5417 54.6271 33.1365 54.6264 33.737Z" fill="#187259"/>
<path opacity="0.5" d="M54.6264 33.737C54.6263 34.6421 54.3579 35.5268 53.855 36.2792C53.352 37.0317 52.6372 37.6181 51.8009 37.9642C50.9647 38.3103 50.0445 38.4006 49.1569 38.2236C48.2693 38.0466 47.4542 37.6104 46.8146 36.97C46.175 36.3297 45.7397 35.514 45.5638 34.6262C45.3879 33.7384 45.4793 32.8183 45.8264 31.9825C46.1735 31.1466 46.7607 30.4325 47.5137 29.9305C48.2668 29.4284 49.1518 29.161 50.0569 29.1621C50.6574 29.1621 51.2521 29.2805 51.8068 29.5105C52.3616 29.7404 52.8655 30.0775 53.2899 30.5024C53.7143 30.9273 54.0508 31.4317 54.2801 31.9867C54.5094 32.5417 54.6271 33.1365 54.6264 33.737Z" fill="white"/>
<path d="M52.9997 33.9871H49.8027V30.1094H50.3092V33.4806H52.9997V33.9871Z" fill="#263238"/>
<path d="M65.5477 31.248H59.3117C59.0363 31.2466 58.7725 31.1366 58.5777 30.9418C58.383 30.747 58.2729 30.4832 58.2715 30.2078C58.2715 29.9314 58.3809 29.6663 58.5758 29.4703C58.7708 29.2744 59.0353 29.1635 59.3117 29.1621H65.5477C65.8241 29.1635 66.0887 29.2744 66.2836 29.4703C66.4786 29.6663 66.588 29.9314 66.588 30.2078C66.5866 30.4832 66.4765 30.747 66.2817 30.9418C66.087 31.1366 65.8232 31.2466 65.5477 31.248Z" fill="#263238"/>
<path d="M69.5508 34.7993H59.3117C59.0358 34.7993 58.7712 34.6897 58.5762 34.4946C58.3811 34.2995 58.2715 34.0349 58.2715 33.759C58.2715 33.4831 58.3811 33.2185 58.5762 33.0234C58.7712 32.8284 59.0358 32.7188 59.3117 32.7188H69.5508C69.6878 32.718 69.8237 32.7444 69.9505 32.7964C70.0774 32.8483 70.1927 32.9248 70.2899 33.0215C70.387 33.1182 70.4641 33.2331 70.5168 33.3597C70.5694 33.4862 70.5965 33.6219 70.5965 33.759C70.5965 33.8961 70.5694 34.0318 70.5168 34.1584C70.4641 34.2849 70.387 34.3998 70.2899 34.4965C70.1927 34.5932 70.0774 34.6697 69.9505 34.7216C69.8237 34.7736 69.6878 34.8 69.5508 34.7993Z" fill="#263238"/>
<path d="M67.1054 38.3115H59.3117C59.0353 38.3101 58.7708 38.1993 58.5758 38.0033C58.3809 37.8074 58.2715 37.5422 58.2715 37.2658C58.2729 36.9904 58.383 36.7266 58.5777 36.5318C58.7725 36.3371 59.0363 36.227 59.3117 36.2256H67.1054C67.3813 36.2256 67.6459 36.3352 67.841 36.5303C68.036 36.7253 68.1456 36.9899 68.1456 37.2658C68.1463 37.4029 68.12 37.5387 68.068 37.6656C68.0161 37.7924 67.9396 37.9077 67.8429 38.0049C67.7462 38.1021 67.6313 38.1792 67.5047 38.2318C67.3782 38.2844 67.2425 38.3115 67.1054 38.3115Z" fill="#263238"/>
<path d="M54.3003 67.4765C54.3003 67.4765 50.4116 66.8666 50.9889 62.5749C50.9889 62.5749 49.7744 63.0106 49.5348 61.2569C49.2951 59.5032 50.624 57.6514 50.624 57.6514C50.624 57.6514 50.123 53.839 53.3853 53.1038C55.4985 52.6299 55.4059 53.5613 55.4059 53.5613C55.4059 53.5613 56.2773 49.7815 60.6888 50.6475C62.8673 51.0669 62.4425 52.3358 62.4425 52.3358C62.4425 52.3358 64.3215 51.5679 65.9336 53.6647C67.159 55.2659 65.2201 55.2986 65.2201 55.2986C65.2201 55.2986 68.7602 59.8299 65.8029 60.5543C62.8455 61.2787 60.0189 55.4348 60.0189 55.4348L55.9886 58.8823C55.9886 58.8823 54.3003 62.4224 54.3547 62.5749C54.4092 62.7274 54.3003 67.4765 54.3003 67.4765Z" fill="#263238"/>
<path d="M77.7025 184.185L70.4698 183.618L70.252 192.196L76.2973 192.681L77.7025 184.185Z" fill="#FFBF9D"/>
<path opacity="0.2" d="M77.6982 184.19L70.4655 183.618L70.3457 188.422L76.9139 188.945L77.6982 184.19Z" fill="black"/>
<path d="M69.2855 152.721C65.5112 142.133 59.1717 131.399 62.3796 120.414L82.4437 117.69C82.4437 117.69 84.0776 141.752 84.6767 151.899C85.3248 162.448 77.8525 187.528 77.8525 187.528L69.5796 186.826C69.5796 186.826 68.9641 164.632 69.2855 152.721Z" fill="#263238"/>
<path opacity="0.4" d="M68.9175 151.715C66.6464 145.598 63.6618 139.428 62.2676 133.197C68.7814 123.895 70.0503 140.953 68.9175 151.715Z" fill="black"/>
<path d="M52.9406 185.351L45.6807 185.421L45.3594 193.983L51.4266 193.934L52.9406 185.351Z" fill="#FFBF9D"/>
<path opacity="0.2" d="M52.9392 185.351L45.6739 185.421L45.4941 190.22L52.0896 190.16L52.9392 185.351Z" fill="black"/>
<path d="M45.041 152.002C44.4528 141.012 43.6577 124.569 47.3394 119.515L69.9524 119.009C69.9524 119.009 63.6674 143.076 61.32 153.217C58.8801 163.761 52.9 188.683 52.9 188.683H45.0465C45.0465 188.683 42.0891 164.551 45.041 152.002Z" fill="#263238"/>
<path d="M100.757 75.4445C100.264 74.9609 99.5989 74.6922 98.908 74.6973C98.2171 74.7024 97.5563 74.9808 97.07 75.4717L96.8249 75.7222C96.4981 76.049 96.1278 76.4738 95.7792 76.8496C95.4307 77.2254 95.0712 77.623 94.7227 77.9988C94.0146 78.7504 93.3121 79.4802 92.604 80.1392C91.9441 80.7739 91.2437 81.3652 90.5072 81.9092C90.3166 82.0454 90.1314 82.1707 89.9626 82.2905C89.3022 82.2166 88.646 82.1093 87.9965 81.9692C87.0951 81.7559 86.2105 81.4774 85.3496 81.1359C84.4794 80.7875 83.6334 80.3818 82.817 79.9213C82.4031 79.6926 82.0055 79.4421 81.6189 79.197C81.4282 79.0772 81.2431 78.9465 81.0742 78.8266L80.8237 78.6578L80.7202 78.5816H80.6766C80.6766 78.5816 80.6766 78.5816 80.6766 78.6142C80.1699 78.1615 79.579 77.813 78.9376 77.5887C78.2961 77.3643 77.6168 77.2685 76.9384 77.3067C76.2599 77.3449 75.5956 77.5163 74.9835 77.8112C74.3713 78.1061 73.8232 78.5187 73.3704 79.0254C72.9177 79.5322 72.5692 80.1231 72.3449 80.7645C72.1205 81.4059 72.0247 82.0853 72.0629 82.7637C72.101 83.4421 72.2725 84.1064 72.5674 84.7186C72.8623 85.3308 73.2749 85.8789 73.7816 86.3316L74.1193 86.6312L74.3753 86.8436L74.86 87.2303C75.1813 87.4754 75.5027 87.7041 75.824 87.922C76.4621 88.3533 77.1219 88.7514 77.801 89.1147C79.1507 89.838 80.5681 90.4272 82.0328 90.8739C82.768 91.0972 83.5196 91.2823 84.2767 91.4185C85.0337 91.5546 85.8016 91.669 86.575 91.7453C88.1229 91.8931 89.6821 91.8749 91.2261 91.6908L91.8034 91.6254C92.3294 91.5612 92.833 91.3747 93.2739 91.0808C94.5389 90.2447 95.67 89.2219 96.6289 88.0472C97.4648 87.0271 98.2068 85.9334 98.8455 84.7794C99.4438 83.6951 99.9661 82.5704 100.409 81.4136C100.626 80.869 100.817 80.2699 101.002 79.6872C101.187 79.1044 101.318 78.5434 101.471 77.8681C101.566 77.4367 101.55 76.9883 101.425 76.5646C101.301 76.1409 101.071 75.7556 100.757 75.4445Z" fill="#FFBF9D"/>
<path d="M100.077 79.0279L97.9637 76.8167C96.7165 73.8539 100.796 72.9062 100.796 72.9062L103.345 71.0545C103.674 70.8563 104.062 70.7804 104.442 70.8402C104.821 70.9 105.167 71.0915 105.42 71.3812L106.906 72.9171C107.23 73.2148 107.425 73.6268 107.451 74.0659C107.476 74.505 107.33 74.9368 107.043 75.2699L104.919 77.2033C104.526 77.5901 104.043 77.8728 103.513 78.0257L100.077 79.0279Z" fill="#FFBF9D"/>
<path d="M71.349 74.2841C76.2506 73.9955 83.4398 79.6379 83.4398 79.6379C84.1206 81.5168 82.4485 88.499 79.4476 91.5489C79.4476 91.5489 76.0001 92.3713 72.9829 88.7332C69.7151 84.7737 66.1423 74.5837 71.349 74.2841Z" fill="#187259"/>
<path d="M70.3641 74.1264C63.6558 73.4883 56.8974 73.596 50.2128 74.4478C49.2973 74.5835 48.419 74.9047 47.6319 75.3917C46.8448 75.8786 46.1653 76.5211 45.6351 77.2797C45.1048 78.0384 44.735 78.8972 44.5482 79.8038C44.3614 80.7103 44.3615 81.6454 44.5487 82.5519C47.6857 98.3461 45.3384 115.987 47.3699 119.516C47.3699 119.516 69.7487 119.908 82.7708 119.009C86.3436 101.864 79.3179 91.364 75.7886 77.9715C75.1623 75.6841 72.7169 74.3715 70.3641 74.1264Z" fill="#187259"/>
<path d="M67.1878 75.2857C66.7433 74.4348 66.026 73.7578 65.1509 73.3631C64.8217 72.5118 64.7967 71.5729 65.0801 70.7053L55.1406 67.541C55.9412 70.8088 56.573 73.423 55.353 75.0188C57.3028 76.2115 60.8865 78.3574 64.7915 78.243C68.6965 78.1286 67.8251 76.6636 67.1878 75.2857Z" fill="#FFBF9D"/>
<path opacity="0.2" d="M65.0024 71.0163L57.541 70.5752C59.872 73.0696 63.4067 74.0064 65.0242 72.9934C64.8499 72.3468 64.8424 71.6666 65.0024 71.0163Z" fill="black"/>
<path d="M65.0233 78.2324L63.3895 76.8926L61.2109 77.9818C61.2109 77.9818 62.6324 79.2781 65.0233 78.2324Z" fill="#187259"/>
<path opacity="0.3" d="M65.0233 78.2324L63.3895 76.8926L61.2109 77.9818C61.2109 77.9818 62.6324 79.2781 65.0233 78.2324Z" fill="black"/>
<path d="M53.2021 62.5102C54.3894 66.791 55.2935 69.672 58.3816 71.05C64.5196 73.7731 67.2645 70.8811 67.4823 66.3661C67.673 62.3032 65.7014 55.9855 60.7725 55.0705C55.8436 54.1555 52.0148 58.2185 53.2021 62.5102Z" fill="#FFBF9D"/>
<path d="M67.9493 59.998C67.5463 59.6276 66.664 59.6113 65.9723 59.7256C65.3505 59.7853 64.7624 60.0365 64.2894 60.4445L62.9224 60.6624C62.3445 60.4257 61.7086 60.3687 61.0979 60.499C60.4062 60.6079 59.5729 60.8966 59.3006 61.3759C59.1618 61.7819 59.1813 62.2253 59.3551 62.6176C59.5194 63.207 59.8882 63.7186 60.3953 64.0609C60.8104 64.1872 61.2508 64.206 61.6752 64.1154C62.1056 64.0689 62.5175 63.9153 62.8734 63.6688C63.2533 63.1862 63.4466 62.583 63.418 61.9695C63.4307 61.6653 63.3826 61.3617 63.2764 61.0763L64.0879 60.9456C64.0779 61.2519 64.1279 61.5571 64.2349 61.8442C64.3989 62.4338 64.7677 62.9456 65.2752 63.2875C65.6097 63.468 65.9877 63.5524 66.3673 63.5313C66.7469 63.5101 67.1132 63.3843 67.4256 63.1677C67.738 62.9512 67.9844 62.6523 68.1374 62.3043C68.2904 61.9563 68.3441 61.5728 68.2924 61.1961C68.3318 60.7679 68.2094 60.3405 67.9493 59.998ZM63.1076 61.9641C63.1341 62.4896 62.9804 63.0084 62.6719 63.4346C62.0161 63.8229 61.2367 63.9456 60.4933 63.7777C60.0689 63.4689 59.7617 63.0254 59.6219 62.5196C59.4784 62.2088 59.4532 61.8564 59.5511 61.5284C59.9668 61.0986 60.5283 60.8402 61.1251 60.804C61.7036 60.6509 62.3187 60.7229 62.8461 61.0055C62.882 61.04 62.9115 61.0806 62.9333 61.1253C63.0575 61.387 63.1173 61.6746 63.1076 61.9641ZM67.9766 61.1907C68.003 61.7137 67.8513 62.2301 67.5463 62.6557C66.8919 63.0478 66.111 63.1708 65.3678 62.9989C64.9438 62.6908 64.6382 62.2468 64.5018 61.7408C64.3935 61.4734 64.3523 61.1835 64.382 60.8966C64.3867 60.8493 64.3996 60.8033 64.4201 60.7604C64.8343 60.3278 65.3963 60.0672 65.9941 60.0306C66.5746 59.881 67.1901 59.9528 67.7206 60.2321C67.921 60.5092 68.0122 60.8506 67.9766 61.1907Z" fill="#187259"/>
<path d="M61.5436 61.9423C61.6144 62.3235 61.8758 62.5958 62.1264 62.5468C62.3769 62.4978 62.5185 62.1492 62.4477 61.768C62.3769 61.3867 62.1155 61.1199 61.8649 61.1689C61.6144 61.2179 61.4674 61.561 61.5436 61.9423Z" fill="#263238"/>
<path d="M65.4967 61.311C65.5675 61.6922 65.829 61.9591 66.074 61.9101C66.3191 61.8611 66.4716 61.5125 66.3954 61.1313C66.3191 60.75 66.0686 60.4832 65.8181 60.5322C65.5675 60.5812 65.4259 60.9406 65.4967 61.311Z" fill="#263238"/>
<path d="M64.2656 61.8555L64.8375 65.0633C65.2211 65.0722 65.6037 65.0188 65.9703 64.9054C66.0431 64.8787 66.1071 64.8325 66.1556 64.772C66.204 64.7115 66.2349 64.6388 66.245 64.562C66.2551 64.4851 66.244 64.407 66.2129 64.336C66.1817 64.265 66.1317 64.2039 66.0683 64.1593C65.3234 63.5158 64.711 62.7333 64.2656 61.8555Z" fill="#FFBF9D"/>
<path d="M59.3113 61.2342C59.2739 61.2446 59.2344 61.2446 59.197 61.2342C59.143 61.2073 59.1018 61.1601 59.0824 61.103C59.0631 61.0459 59.067 60.9834 59.0935 60.9292C59.246 60.6024 59.4734 60.3162 59.7573 60.0938C60.0412 59.8714 60.3736 59.7191 60.7274 59.6493C60.7567 59.6455 60.7865 59.6476 60.8151 59.6554C60.8436 59.6632 60.8704 59.6767 60.8937 59.6949C60.917 59.7132 60.9364 59.7359 60.9509 59.7617C60.9653 59.7875 60.9745 59.816 60.9779 59.8454C60.9856 59.9053 60.9694 59.9658 60.9326 60.0138C60.8959 60.0617 60.8417 60.0932 60.7818 60.1014C60.4999 60.1586 60.2355 60.2817 60.0103 60.4606C59.785 60.6395 59.6052 60.8691 59.4856 61.1307C59.4665 61.1602 59.4408 61.1849 59.4106 61.2028C59.3803 61.2207 59.3464 61.2315 59.3113 61.2342Z" fill="#263238"/>
<path d="M66.8217 59.9872C66.7849 59.9932 66.7471 59.9898 66.7119 59.9774C66.6767 59.9651 66.6452 59.9441 66.6202 59.9164C66.4309 59.7027 66.1932 59.5373 65.927 59.434C65.6608 59.3307 65.3737 59.2926 65.0898 59.3227C65.0306 59.3322 64.9701 59.3182 64.9212 59.2836C64.8724 59.2489 64.839 59.1965 64.8284 59.1376C64.8202 59.0786 64.8349 59.0188 64.8693 58.9702C64.9037 58.9217 64.9552 58.888 65.0135 58.8761C65.3716 58.8335 65.7346 58.8775 66.072 59.0045C66.4094 59.1316 66.7114 59.3378 66.9524 59.6059C66.974 59.6268 66.9912 59.6517 67.0029 59.6793C67.0146 59.7069 67.0206 59.7366 67.0206 59.7666C67.0206 59.7966 67.0146 59.8263 67.0029 59.8539C66.9912 59.8815 66.974 59.9065 66.9524 59.9273C66.9171 59.9618 66.8709 59.983 66.8217 59.9872Z" fill="#263238"/>
<path d="M65.0234 78.2325L66.8479 76.5986L69.1681 77.2794C69.1681 77.2794 67.4198 79.2782 65.0234 78.2325Z" fill="#187259"/>
<path opacity="0.3" d="M65.0234 78.2325L66.8479 76.5986L69.1681 77.2794C69.1681 77.2794 67.4198 79.2782 65.0234 78.2325Z" fill="black"/>
<path d="M97.179 76.1366C96.4819 73.6041 98.2683 72.0355 99.2268 70.3962C99.3956 70.1184 100.245 70.2709 100.289 70.8537C100.346 71.2119 100.33 71.578 100.242 71.9299C100.154 72.2818 99.9959 72.6123 99.7769 72.9015C100.289 73.5442 101.051 75.7935 99.2323 77.2585C98.4343 77.1464 97.7044 76.7476 97.179 76.1366Z" fill="#FFBF9D"/>
<path d="M66.666 66.2446C66.666 66.2446 65.0321 66.1138 60.5117 66.7892C61.2415 68.0636 62.3852 69.0222 64.6836 68.6573C64.9768 68.6413 65.2634 68.5646 65.5254 68.4319C65.7874 68.2993 66.0189 68.1137 66.2053 67.8868C66.3917 67.6599 66.5289 67.3968 66.6082 67.1141C66.6875 66.8314 66.7072 66.5353 66.666 66.2446Z" fill="#263238"/>
<path d="M63.4565 67.7489C64.3337 67.5665 65.246 67.6637 66.0652 68.0267C65.6836 68.3749 65.201 68.5924 64.6873 68.6475C63.8121 68.8351 62.8999 68.7378 62.084 68.3698C62.4647 68.0236 62.945 67.8063 63.4565 67.7489Z" fill="#FFBF9D"/>
<path d="M66.4448 66.2402C66.4254 66.4124 66.3586 66.5759 66.2519 66.7124C66.1452 66.849 66.0027 66.9532 65.8402 67.0136C64.5065 67.2129 63.1582 67.2985 61.81 67.2696C61.6001 67.2816 61.3907 67.241 61.2005 67.1516C61.0103 67.0622 60.8454 66.9268 60.7207 66.7576C62.6126 66.4381 64.5263 66.2651 66.4448 66.2402Z" fill="white"/>
<path d="M56.0044 66.24C56.2922 66.176 56.5634 66.0521 56.8002 65.8765C57.037 65.7009 57.2343 65.4774 57.3791 65.2206C57.5239 64.9638 57.6131 64.6794 57.6409 64.3859C57.6687 64.0923 57.6344 63.7962 57.5403 63.5168C56.9957 61.2512 56.805 60.5214 56.805 60.5214L60.9987 56.5837C60.9987 56.5837 60.4976 58.5171 61.4398 58.3919C62.382 58.2666 62.5944 56.5837 62.5944 56.5837C62.5944 56.5837 64.1739 58.4627 65.1488 58.0052C66.1237 57.5477 64.2447 55.9192 64.2447 55.9192C64.2447 55.9192 63.858 53.1416 59.5282 54.1056C55.1984 55.0696 48.4395 60.4124 54.5557 66.7356L56.0044 66.24Z" fill="#263238"/>
<path d="M52.3174 67.5191C52.721 67.9531 53.2064 68.303 53.7457 68.5489C54.285 68.7947 54.8676 68.9315 55.4599 68.9515C57.0503 68.995 57.4696 67.4755 56.7126 66.1739C56.0372 65.0083 54.3925 63.576 52.9492 64.1587C51.5059 64.7415 51.3316 66.4407 52.3174 67.5191Z" fill="#FFBF9D"/>
<path d="M69.5873 95.1544C68.836 90.2665 67.6717 85.4511 66.1071 80.7598C66.1516 80.708 66.1833 80.6464 66.1997 80.5801L66.2433 80.3677L69.2006 78.2491V77.2905L67.643 76.4082L66.679 77.9767C66.6422 77.9002 66.5788 77.8397 66.5005 77.8066C66.4223 77.7735 66.3347 77.7701 66.2541 77.797C65.4317 78.0498 64.5588 78.091 63.7162 77.9168C63.653 77.9044 63.5875 77.9113 63.5283 77.9365C63.469 77.9618 63.4188 78.0043 63.3839 78.0584L62.0877 77.2088L60.7207 78.8427L63.9286 80.3949L63.983 80.5964C64.0044 80.6631 64.0405 80.7241 64.0885 80.775C64.1366 80.8259 64.1955 80.8654 64.2608 80.8905V81.0702C64.2499 81.1734 64.2499 81.2775 64.2608 81.3807C64.4732 83.1017 66.3522 99.1792 65.1812 115.605L68.2911 117.048L71.0523 115.605C71.0523 115.605 71.036 104.124 69.5873 95.1544Z" fill="#187259"/>
<path opacity="0.5" d="M69.5873 95.1544C68.836 90.2665 67.6717 85.4511 66.1071 80.7598C66.1516 80.708 66.1833 80.6464 66.1997 80.5801L66.2433 80.3677L69.2006 78.2491V77.2905L67.643 76.4082L66.679 77.9767C66.6422 77.9002 66.5788 77.8397 66.5005 77.8066C66.4223 77.7735 66.3347 77.7701 66.2541 77.797C65.4317 78.0498 64.5588 78.091 63.7162 77.9168C63.653 77.9044 63.5875 77.9113 63.5283 77.9365C63.469 77.9618 63.4188 78.0043 63.3839 78.0584L62.0877 77.2088L60.7207 78.8427L63.9286 80.3949L63.983 80.5964C64.0044 80.6631 64.0405 80.7241 64.0885 80.775C64.1366 80.8259 64.1955 80.8654 64.2608 80.8905V81.0702C64.2499 81.1734 64.2499 81.2775 64.2608 81.3807C64.4732 83.1017 66.3522 99.1792 65.1812 115.605L68.2911 117.048L71.0523 115.605C71.0523 115.605 71.036 104.124 69.5873 95.1544Z" fill="black"/>
<path d="M76.7776 96.0908H64.5779L58.3691 111.03L58.7504 111.362H70.9555L77.1643 96.423L76.7776 96.0908Z" fill="#263238"/>
<path opacity="0.4" d="M76.7776 96.0908H64.5779L58.3691 111.03L58.7504 111.362H70.9555L77.1643 96.423L76.7776 96.0908Z" fill="white"/>
<path d="M70.9552 111.362H58.75L64.9588 96.4229H77.1639L70.9552 111.362Z" fill="#263238"/>
<path d="M73.6209 95.873H68.9752L68.2617 97.5886L68.4197 97.7248H73.0708L73.7843 96.0092L73.6209 95.873Z" fill="#187259"/>
<path opacity="0.5" d="M73.6209 95.873H68.9752L68.2617 97.5886L68.4197 97.7248H73.0708L73.7843 96.0092L73.6209 95.873Z" fill="black"/>
<path d="M73.0691 97.7244L73.7826 96.0088H69.1314L68.418 97.7244H73.0691Z" fill="#187259"/>
<path opacity="0.2" d="M73.0691 97.7244L73.7826 96.0088H69.1314L68.418 97.7244H73.0691Z" fill="white"/>
<path d="M55.1496 105.465L54.8555 108.509C55.6942 111.608 59.4957 109.838 59.4957 109.838L61.6742 109.724C62.0554 109.677 62.4079 109.498 62.6699 109.217C62.9318 108.936 63.0864 108.572 63.1066 108.188L63.3299 106.064C63.4019 105.629 63.3017 105.184 63.0505 104.822C62.7994 104.46 62.417 104.21 61.9847 104.125L60.1003 103.913C59.5455 103.85 58.9839 103.927 58.4664 104.136L55.1496 105.465Z" fill="#FFBF9D"/>
<path d="M56.0979 105.284L55.8855 105.241L53.854 104.794C53.1623 104.641 52.4815 104.473 51.8062 104.298C50.5139 103.973 49.241 103.575 47.9938 103.106C46.9137 102.723 45.8855 102.207 44.933 101.57C44.741 101.428 44.559 101.273 44.3883 101.107C44.4816 100.219 44.664 99.3435 44.933 98.4926C45.1247 97.8558 45.352 97.2303 45.6138 96.619C45.8697 95.9818 46.1584 95.3392 46.4852 94.6965C47.1333 93.4112 47.8631 92.1095 48.6637 90.8351C49.0558 90.1924 49.4806 89.5606 49.8945 88.9343L50.5318 88.0084L51.1145 87.1752L51.3106 86.8974C52.1318 85.7989 52.4829 84.4192 52.2868 83.0618C52.0907 81.7043 51.3634 80.4804 50.2649 79.6593C49.1664 78.8381 47.7867 78.4869 46.4293 78.683C45.0718 78.8791 43.8479 79.6064 43.0268 80.705L42.4821 81.3258L42.041 81.8705C41.7578 82.2517 41.4963 82.6329 41.2186 83.0142C40.674 83.7767 40.1838 84.5664 39.6991 85.367C38.7129 86.9899 37.8429 88.6807 37.0957 90.4266C36.2942 92.2689 35.6847 94.1889 35.2767 96.1561C34.7987 98.3647 34.7231 100.641 35.0534 102.877L35.1024 103.204C35.1645 103.605 35.2914 103.993 35.4782 104.353C36.1013 105.542 36.9591 106.593 37.9998 107.441C38.8688 108.153 39.8262 108.75 40.8482 109.216C41.7252 109.616 42.6367 109.935 43.5714 110.169C44.4325 110.391 45.3052 110.563 46.1856 110.687C47.8396 110.898 49.5082 110.973 51.1744 110.91C51.9914 110.883 52.8083 110.818 53.598 110.736C54.3877 110.654 55.1666 110.529 56.038 110.36C56.6231 110.247 57.1514 109.936 57.534 109.479C57.9165 109.022 58.1299 108.447 58.1382 107.851C58.1465 107.255 57.9492 106.674 57.5796 106.207C57.21 105.739 56.6905 105.413 56.1088 105.284H56.0979Z" fill="#FFBF9D"/>
<path d="M48.4723 74.9326C43.843 76.5665 39.4805 84.4255 39.4805 84.4255C39.6983 87.2794 44.2133 93.7387 47.4321 95.1329C49.6745 93.2099 51.3362 90.6995 52.2303 87.8839C53.6681 82.9605 50.8251 75.6461 48.4723 74.9326Z" fill="#187259"/>
<path d="M56.0307 72.8077C56.0307 72.8077 59.2331 76.6909 63.405 76.8924C60.9759 78.0416 60.5674 80.7702 60.5674 80.7702C60.5674 80.7702 55.3608 79.1853 54.375 73.641C54.5648 73.3804 54.814 73.1688 55.102 73.0239C55.3899 72.879 55.7083 72.8048 56.0307 72.8077Z" fill="white"/>
<path d="M65.1504 73.3637C65.1504 73.3637 66.7843 75.2427 66.8496 76.5988C68.8049 77.1434 69.7416 80.0136 69.7416 80.0136C69.7416 80.0136 70.1011 75.918 67.0185 73.7123C66.4441 73.4136 65.7939 73.2923 65.1504 73.3637Z" fill="white"/>
<path d="M57.1174 195.737L56.9159 194.647C56.8937 194.529 56.8401 194.418 56.7606 194.327C56.681 194.236 56.5786 194.168 56.4638 194.13L51.7092 192.572C49.5862 193.148 47.3563 193.205 45.2063 192.741L44.2042 195.644C44.1656 195.748 44.1533 195.86 44.1684 195.97C44.1834 196.08 44.2254 196.185 44.2906 196.275C44.3557 196.365 44.4421 196.437 44.542 196.486C44.6419 196.535 44.7522 196.558 44.8632 196.554H56.4529C56.5543 196.555 56.6547 196.534 56.7467 196.491C56.8386 196.448 56.9196 196.385 56.9835 196.306C57.0475 196.228 57.0928 196.136 57.116 196.037C57.1392 195.938 57.1396 195.835 57.1174 195.737Z" fill="#263238"/>
<path d="M53.2051 193.095C52.6797 193.081 52.1574 193.01 51.6475 192.883C51.6224 192.877 51.5998 192.863 51.5832 192.844C51.5665 192.824 51.5566 192.8 51.5549 192.774C51.5535 192.748 51.5588 192.721 51.5702 192.697C51.5817 192.674 51.5988 192.653 51.6202 192.638C51.8218 192.507 53.5973 191.363 54.2944 191.646C54.3727 191.678 54.4407 191.731 54.4907 191.8C54.5407 191.868 54.5708 191.949 54.5776 192.033C54.6045 192.168 54.5972 192.307 54.5563 192.439C54.5154 192.57 54.4422 192.689 54.3434 192.785C54.0118 193.018 53.6091 193.128 53.2051 193.095ZM52.0451 192.681C53.0853 192.894 53.8641 192.861 54.1637 192.589C54.2264 192.524 54.2721 192.445 54.2968 192.359C54.3215 192.272 54.3244 192.181 54.3053 192.093C54.3031 192.052 54.2891 192.012 54.265 191.978C54.2409 191.944 54.2076 191.918 54.1691 191.902C53.7933 191.75 52.7694 192.246 52.0451 192.681Z" fill="#187259"/>
<path d="M51.68 192.888C51.6604 192.893 51.6396 192.893 51.6201 192.888C51.6001 192.877 51.5833 192.862 51.5718 192.842C51.5602 192.823 51.5543 192.801 51.5547 192.779C51.5547 192.702 51.5547 191.003 52.2137 190.431C52.2939 190.356 52.3898 190.3 52.4944 190.267C52.599 190.234 52.7096 190.225 52.8182 190.241C52.9323 190.242 53.0419 190.285 53.127 190.361C53.212 190.437 53.2668 190.541 53.2812 190.655C53.3574 191.297 52.3716 192.534 51.7508 192.882C51.7283 192.891 51.7036 192.893 51.68 192.888ZM52.6984 190.491C52.5835 190.49 52.4725 190.533 52.388 190.611C52.0013 190.954 51.8434 191.929 51.8434 192.49C52.388 192.054 53.0633 191.117 53.0089 190.698C53.0089 190.616 52.9653 190.518 52.7638 190.497L52.6984 190.491Z" fill="#187259"/>
<path d="M81.9746 195.262L81.8712 194.173C81.8533 194.054 81.8054 193.942 81.732 193.847C81.6586 193.751 81.5622 193.676 81.4518 193.629L76.7407 191.613C74.5245 191.998 72.2487 191.848 70.1017 191.178L68.8218 194.059C68.7787 194.158 68.7591 194.265 68.7646 194.373C68.77 194.48 68.8002 194.585 68.853 194.679C68.9058 194.773 68.9796 194.853 69.0687 194.914C69.1578 194.975 69.2597 195.014 69.3664 195.028L81.2013 196.063C81.3088 196.079 81.4186 196.068 81.5214 196.033C81.6243 195.998 81.7173 195.939 81.7928 195.861C81.8683 195.782 81.9242 195.687 81.9558 195.583C81.9874 195.479 81.9939 195.369 81.9746 195.262Z" fill="#263238"/>
<path d="M78.2202 192.196C77.6856 192.138 77.1594 192.019 76.6517 191.842C76.6258 191.835 76.6032 191.819 76.5874 191.797C76.5716 191.776 76.5635 191.749 76.5645 191.722C76.5653 191.695 76.5733 191.669 76.5877 191.646C76.602 191.623 76.6222 191.604 76.6462 191.592C76.8641 191.472 78.7757 190.464 79.462 190.818C79.5393 190.858 79.6042 190.918 79.6494 190.992C79.6946 191.066 79.7183 191.151 79.7179 191.238C79.7348 191.378 79.7151 191.521 79.6607 191.651C79.6063 191.782 79.5191 191.897 79.4075 191.984C79.0498 192.194 78.6286 192.269 78.2202 192.196ZM77.071 191.651C78.1167 191.962 78.9173 192 79.2496 191.744C79.3201 191.685 79.3746 191.609 79.408 191.523C79.4413 191.438 79.4524 191.345 79.4402 191.254C79.4426 191.211 79.4325 191.169 79.4112 191.132C79.3899 191.096 79.3583 191.066 79.3204 191.047C78.9718 190.894 77.8499 191.308 77.071 191.69V191.651Z" fill="#187259"/>
<path d="M76.6854 191.864C76.6642 191.871 76.6413 191.871 76.6201 191.864C76.6007 191.852 76.5853 191.835 76.5756 191.815C76.5659 191.795 76.5624 191.772 76.5656 191.749C76.5656 191.673 76.7399 189.941 77.4534 189.413C77.5416 189.344 77.6441 189.296 77.7533 189.271C77.8626 189.247 77.9759 189.247 78.0851 189.271C78.2013 189.283 78.3094 189.336 78.3895 189.421C78.4695 189.507 78.5162 189.618 78.5208 189.734C78.5208 190.404 77.4316 191.57 76.7562 191.875C76.7321 191.879 76.7071 191.875 76.6854 191.864ZM77.9381 189.511C77.8206 189.5 77.7035 189.535 77.6113 189.609C77.1865 189.925 76.9632 190.905 76.8815 191.477C77.4806 191.08 78.2485 190.186 78.2322 189.751C78.2322 189.664 78.1995 189.566 78.0034 189.522L77.9381 189.511Z" fill="#187259"/>
<path d="M102.937 71.7025C102.937 71.7025 102.464 69.6711 102.289 68.658C102.246 68.3912 102.153 68.2223 102.017 68.1733C101.881 68.1243 101.527 68.2931 101.527 68.2931L101.391 68.1134C101.49 68.0355 101.606 67.9814 101.73 67.9549C101.853 67.9285 101.981 67.9306 102.104 67.9609C102.224 68.0255 102.324 68.1204 102.396 68.236C102.468 68.3516 102.508 68.484 102.513 68.6199C102.681 69.622 103.155 71.6263 103.161 71.6481L102.937 71.7025Z" fill="#263238"/>
<path d="M100.944 66.5978L100.582 66.6748L100.972 68.5074L101.334 68.4304L100.944 66.5978Z" fill="#263238"/>
<path d="M103.028 73.5212C103.78 77.0667 104.047 80.0077 103.627 80.1003C103.208 80.1929 102.249 77.3772 101.492 73.848C100.735 70.3188 100.474 67.3614 100.899 67.2688C101.323 67.1762 102.277 69.9811 103.028 73.5212Z" fill="#187259"/>
<path opacity="0.5" d="M103.028 73.5212C103.78 77.0667 104.047 80.0077 103.627 80.1003C103.208 80.1929 102.249 77.3772 101.492 73.848C100.735 70.3188 100.474 67.3614 100.899 67.2688C101.323 67.1762 102.277 69.9811 103.028 73.5212Z" fill="black"/>
<path opacity="0.5" d="M100.92 70.646L102.249 70.3628C102.2 70.194 102.157 70.0306 102.108 69.8672L100.85 70.1341C100.871 70.3029 100.893 70.4717 100.92 70.646Z" fill="white"/>
<path d="M231.411 93.2917L233.59 93.6367L233.935 91.4581L231.756 91.1131L231.411 93.2917Z" fill="#263238"/>
<path opacity="0.5" d="M231.411 93.2917L233.59 93.6367L233.935 91.4581L231.756 91.1131L231.411 93.2917Z" fill="white"/>
<path opacity="0.3" d="M231.758 91.108L231.568 92.3076L233.747 92.6527L233.937 91.4531L231.758 91.108Z" fill="black"/>
<path d="M231.396 91.678L234.108 92.1074C234.411 92.1554 234.695 91.9487 234.743 91.6457L234.906 90.6182C234.954 90.3152 234.747 90.0306 234.444 89.9826L231.733 89.5532C231.43 89.5052 231.145 89.712 231.097 90.015L230.935 91.0424C230.887 91.3455 231.093 91.63 231.396 91.678Z" fill="#263238"/>
<path opacity="0.5" d="M231.396 91.678L234.108 92.1074C234.411 92.1554 234.695 91.9487 234.743 91.6457L234.906 90.6182C234.954 90.3152 234.747 90.0306 234.444 89.9826L231.733 89.5532C231.43 89.5052 231.145 89.712 231.097 90.015L230.935 91.0424C230.887 91.3455 231.093 91.63 231.396 91.678Z" fill="white"/>
<path d="M226.669 94.5694L228.58 94.0215L228.032 92.1106L226.121 92.6585L226.669 94.5694Z" fill="#263238"/>
<path opacity="0.5" d="M226.669 94.5694L228.58 94.0215L228.032 92.1106L226.121 92.6585L226.669 94.5694Z" fill="white"/>
<path opacity="0.3" d="M228.036 92.1249L226.125 92.6729L226.427 93.7251L228.338 93.1772L228.036 92.1249Z" fill="black"/>
<path d="M226.103 93.2524L228.37 92.6023C228.665 92.5178 228.836 92.2101 228.751 91.9152L228.523 91.1194C228.438 90.8245 228.131 90.654 227.836 90.7386L225.569 91.3886C225.274 91.4732 225.104 91.7808 225.188 92.0757L225.416 92.8715C225.501 93.1664 225.808 93.3369 226.103 93.2524Z" fill="#263238"/>
<path opacity="0.5" d="M226.103 93.2524L228.37 92.6023C228.665 92.5178 228.836 92.2101 228.751 91.9152L228.523 91.1194C228.438 90.8245 228.131 90.654 227.836 90.7386L225.569 91.3886C225.274 91.4732 225.104 91.7808 225.188 92.0757L225.416 92.8715C225.501 93.1664 225.808 93.3369 226.103 93.2524Z" fill="white"/>
<path d="M238.754 94.6624L237.105 93.5508L235.994 95.1988L237.642 96.3105L238.754 94.6624Z" fill="#263238"/>
<path opacity="0.5" d="M238.754 94.6624L237.105 93.5508L235.994 95.1988L237.642 96.3105L238.754 94.6624Z" fill="white"/>
<path opacity="0.3" d="M237.108 93.5553L236.496 94.4629L238.144 95.5745L238.756 94.667L237.108 93.5553Z" fill="black"/>
<path d="M239.677 93.6176L237.722 92.2989C237.468 92.1274 237.123 92.1945 236.951 92.4488L236.488 93.1351C236.317 93.3895 236.384 93.7348 236.638 93.9063L238.593 95.225C238.847 95.3966 239.193 95.3295 239.364 95.0751L239.827 94.3888C239.999 94.1345 239.932 93.7892 239.677 93.6176Z" fill="#263238"/>
<path opacity="0.5" d="M239.677 93.6176L237.722 92.2989C237.468 92.1274 237.123 92.1945 236.951 92.4488L236.488 93.1351C236.317 93.3895 236.384 93.7348 236.638 93.9063L238.593 95.225C238.847 95.3966 239.193 95.3295 239.364 95.0751L239.827 94.3888C239.999 94.1345 239.932 93.7892 239.677 93.6176Z" fill="white"/>
<path d="M232.456 109.464C236.955 108.8 240.065 104.615 239.401 100.116C238.738 95.6164 234.552 92.5069 230.053 93.1705C225.554 93.8341 222.444 98.0195 223.108 102.519C223.771 107.018 227.957 110.127 232.456 109.464Z" fill="#187259"/>
<path d="M237.82 101.447C237.895 97.8234 235.018 94.8253 231.394 94.7506C227.77 94.676 224.772 97.5531 224.698 101.177C224.623 104.801 227.5 107.799 231.124 107.873C234.748 107.948 237.746 105.071 237.82 101.447Z" fill="#187259"/>
<path opacity="0.5" d="M237.82 101.447C237.895 97.8234 235.018 94.8253 231.394 94.7506C227.77 94.676 224.772 97.5531 224.698 101.177C224.623 104.801 227.5 107.799 231.124 107.873C234.748 107.948 237.746 105.071 237.82 101.447Z" fill="white"/>
<path d="M227.397 101.063L231.563 101.723L232.375 96.5757C232.389 96.4813 232.366 96.385 232.31 96.3076C232.254 96.2302 232.169 96.1779 232.075 96.1618C232.028 96.1533 231.979 96.1546 231.932 96.1655C231.886 96.1764 231.841 96.1967 231.803 96.2253C231.764 96.2538 231.731 96.2899 231.707 96.3315C231.683 96.373 231.667 96.4191 231.661 96.4668L230.959 100.889L227.511 100.345C227.416 100.329 227.318 100.352 227.24 100.408C227.161 100.464 227.108 100.549 227.092 100.644C227.078 100.74 227.102 100.838 227.159 100.916C227.216 100.995 227.301 101.047 227.397 101.063Z" fill="#263238"/>
<path d="M234.396 108.923L234.849 110.709H236.096V107.752L234.396 108.77V108.923Z" fill="#187259"/>
<path d="M228.205 108.923L227.753 110.709H226.506V107.752L228.205 108.77V108.923Z" fill="#187259"/>
<path d="M233.677 110.709H199.115V179.414H233.677V110.709Z" fill="#187259"/>
<path opacity="0.4" d="M233.677 110.709H199.115V179.414H233.677V110.709Z" fill="white"/>
<path d="M240.268 110.709H233.678V179.414H240.268V110.709Z" fill="#187259"/>
<path opacity="0.4" d="M231.43 115.807H201.535V132.489H231.43V115.807Z" fill="white"/>
<path d="M212.588 115.807L212.719 118.029C212.762 118.764 213.171 119.325 213.666 119.325H219.303C219.799 119.325 220.207 118.78 220.251 118.029L220.382 115.807H212.588Z" fill="#187259"/>
<path opacity="0.4" d="M231.43 134.313H201.535V150.995H231.43V134.313Z" fill="white"/>
<path d="M212.588 134.313L212.719 136.536C212.762 137.271 213.171 137.832 213.666 137.832H219.303C219.799 137.832 220.207 137.287 220.251 136.536L220.382 134.313H212.588Z" fill="#187259"/>
<path opacity="0.4" d="M231.43 152.82H201.535V169.502H231.43V152.82Z" fill="white"/>
<path d="M212.588 152.821L212.719 155.043C212.762 155.779 213.171 156.34 213.666 156.34H219.303C219.799 156.34 220.207 155.795 220.251 155.043L220.382 152.821H212.588Z" fill="#187259"/>
</svg>
