<svg width="24" height="24" viewBox="0 0 24 24" fill="none" xmlns="http://www.w3.org/2000/svg">
<path d="M11.1429 17.6491H12.8571V10.0637H11.1429V17.6491ZM12 7.94767C12.2994 7.94767 12.5503 7.8685 12.7526 7.71016C12.9537 7.55183 13.0543 7.35592 13.0543 7.12244C13.0543 6.88807 12.9531 6.69171 12.7509 6.53338C12.5486 6.37504 12.2983 6.29632 12 6.29722C11.7017 6.29811 11.4514 6.37728 11.2491 6.53472C11.0469 6.69216 10.9457 6.88852 10.9457 7.12378C10.9457 7.35905 11.0469 7.55496 11.2491 7.71151C11.4514 7.86805 11.7017 7.94677 12 7.94767ZM12 23.9987C8.55543 23.198 5.69429 21.565 3.41657 19.0996C1.13886 16.6342 0 13.8562 0 10.7655V3.50889L12 0L24 3.50889V10.7655C24 13.8553 22.8611 16.6329 20.5834 19.0983C18.3057 21.5637 15.4446 23.1962 12 23.9987ZM12 22.575C14.9714 21.837 17.4286 20.361 19.3714 18.1469C21.3143 15.9329 22.2857 13.4729 22.2857 10.7669V4.42536L12 1.43308L1.71429 4.42536V10.7655C1.71429 13.4715 2.68571 15.9316 4.62857 18.1456C6.57143 20.3596 9.02857 21.837 12 22.575Z" fill="#187259"/>
</svg>
