<svg width="20" height="20" viewBox="0 0 20 20" fill="none" xmlns="http://www.w3.org/2000/svg">
<path d="M2.50879 9.34961V13.0913C2.50879 16.8329 4.00879 18.3329 7.75046 18.3329H12.2421C15.9838 18.3329 17.4838 16.8329 17.4838 13.0913V9.34961" stroke="white" stroke-width="1.5" stroke-linecap="round" stroke-linejoin="round"/>
<path d="M9.99975 10.0003C11.5247 10.0003 12.6497 8.75866 12.4997 7.23366L11.9497 1.66699H8.05808L7.49975 7.23366C7.34975 8.75866 8.47475 10.0003 9.99975 10.0003Z" stroke="white" stroke-width="1.5" stroke-linecap="round" stroke-linejoin="round"/>
<path d="M15.2587 10.0003C16.942 10.0003 18.1753 8.63366 18.0087 6.95866L17.7753 4.66699C17.4753 2.50033 16.642 1.66699 14.4587 1.66699H11.917L12.5003 7.50866C12.642 8.88366 13.8837 10.0003 15.2587 10.0003Z" stroke="white" stroke-width="1.5" stroke-linecap="round" stroke-linejoin="round"/>
<path d="M4.69966 10.0003C6.07466 10.0003 7.31632 8.88366 7.44966 7.50866L7.63299 5.66699L8.03299 1.66699H5.49133C3.30799 1.66699 2.47466 2.50033 2.17466 4.66699L1.94966 6.95866C1.78299 8.63366 3.01632 10.0003 4.69966 10.0003Z" stroke="white" stroke-width="1.5" stroke-linecap="round" stroke-linejoin="round"/>
<path d="M10.0003 14.167C8.60866 14.167 7.91699 14.8587 7.91699 16.2503V18.3337H12.0837V16.2503C12.0837 14.8587 11.392 14.167 10.0003 14.167Z" stroke="white" stroke-width="1.5" stroke-linecap="round" stroke-linejoin="round"/>
</svg>
