<svg width="70" height="64" viewBox="0 0 70 64" fill="none" xmlns="http://www.w3.org/2000/svg">
<path fill-rule="evenodd" clip-rule="evenodd" d="M31.7188 11.435H31.9922C31.9617 11.435 31.9313 11.4348 31.9009 11.4347C31.8401 11.4345 31.7794 11.4342 31.7188 11.435Z" fill="black"/>
<path fill-rule="evenodd" clip-rule="evenodd" d="M31.9922 11.435C31.9617 11.435 31.9313 11.4348 31.9009 11.4347C31.8401 11.4345 31.7794 11.4342 31.7188 11.435H31.9922Z" fill="black"/>
<path d="M56.7383 49.8919C56.7383 46.6966 54.1368 44.1063 50.9277 44.1063C49.6426 44.1063 48.4548 44.5218 47.4926 45.2252C47.0503 45.7331 46.5833 46.219 46.0934 46.6811C42.418 50.1478 37.4545 52.2742 31.9922 52.2742C20.666 52.2742 11.4844 43.132 11.4844 31.8546C11.4844 20.5771 20.666 11.435 31.9922 11.435H31.7188C31.7794 11.4342 31.8401 11.4345 31.9009 11.4347C31.9313 11.4348 31.9617 11.435 31.9922 11.435H56.7484H64.2578C67.4291 11.435 70 8.87517 70 5.71749C70 2.55981 67.4291 0 64.2578 0H32.1289C31.992 0 31.8553 0.000852786 31.7188 0.00255334C14.1635 0.221236 0 14.4591 0 31.9907C0 49.6587 14.4922 64.2537 32.1289 63.9814C49.7656 63.7092 56.7484 66.4318 56.7383 49.8919Z" fill="black"/>
<path d="M43.75 28.8597C43.75 33.2203 40.1998 36.7553 35.8203 36.7553C31.4409 36.7553 27.8906 33.2203 27.8906 28.8597C27.8906 24.4991 31.4409 20.9641 35.8203 20.9641C40.1998 20.9641 43.75 24.4991 43.75 28.8597Z" fill="#187259"/>
<path d="M52.106 35.8579C53.2047 36.4311 54.4549 36.7553 55.7812 36.7553C60.1607 36.7553 63.7109 33.2203 63.7109 28.8597C63.7109 24.4991 60.1607 20.9641 55.7812 20.9641C53.7401 20.9641 51.8791 21.732 50.4737 22.9935C48.8637 24.4386 47.8516 26.5315 47.8516 28.8597C47.8516 31.8997 49.577 34.5384 52.106 35.8579Z" fill="#187259"/>
</svg>
