<svg width="24" height="24" viewBox="0 0 24 24" fill="none" xmlns="http://www.w3.org/2000/svg">
<path d="M3.75783 0H11.2735C12.2701 0 13.2259 0.399247 13.9307 1.10991C14.6354 1.82058 15.0313 2.78444 15.0313 3.78947V8.8421H13.7787V3.78947C13.7787 3.11945 13.5148 2.47687 13.0449 2.0031C12.5751 1.52932 11.9379 1.26316 11.2735 1.26316H3.75783C3.0934 1.26316 2.45619 1.52932 1.98637 2.0031C1.51655 2.47687 1.25261 3.11945 1.25261 3.78947V20.2105C1.25261 20.8805 1.51655 21.5231 1.98637 21.9969C2.45619 22.4707 3.0934 22.7368 3.75783 22.7368H11.2735C11.9379 22.7368 12.5751 22.4707 13.0449 21.9969C13.5148 21.5231 13.7787 20.8805 13.7787 20.2105V15.1579H15.0313V20.2105C15.0313 21.2156 14.6354 22.1794 13.9307 22.8901C13.2259 23.6008 12.2701 24 11.2735 24H3.75783C2.76119 24 1.80537 23.6008 1.10064 22.8901C0.395913 22.1794 0 21.2156 0 20.2105V3.78947C0 2.78444 0.395913 1.82058 1.10064 1.10991C1.80537 0.399247 2.76119 0 3.75783 0ZM7.51566 11.3684H21.6075L17.5365 7.26316L18.3633 6.31579L24 12L18.3633 17.6842L17.5365 16.7368L21.6075 12.6316H7.51566V11.3684Z" fill="#187259"/>
</svg>
