<svg width="20" height="20" viewBox="0 0 20 20" fill="none" xmlns="http://www.w3.org/2000/svg">
<path d="M9.99935 1.66699C5.39935 1.66699 1.66602 5.40033 1.66602 10.0003C1.66602 14.6003 5.39935 18.3337 9.99935 18.3337C14.5993 18.3337 18.3327 14.6003 18.3327 10.0003C18.3327 5.40033 14.5993 1.66699 9.99935 1.66699ZM9.99935 16.667C6.32435 16.667 3.33268 13.6753 3.33268 10.0003C3.33268 6.32533 6.32435 3.33366 9.99935 3.33366C13.6743 3.33366 16.666 6.32533 16.666 10.0003C16.666 13.6753 13.6743 16.667 9.99935 16.667ZM13.4743 12.3003L12.5577 11.3837C13.1493 10.2753 12.9993 8.87533 12.066 7.94199C11.7956 7.66917 11.4736 7.4528 11.1188 7.30545C10.764 7.1581 10.3835 7.08271 9.99935 7.08366C9.97435 7.08366 9.94935 7.09199 9.92435 7.09199L10.8327 8.00033L9.94935 8.88366L7.59102 6.52533L9.94935 4.16699L10.8327 5.05033L10.0327 5.85033C11.091 5.85866 12.141 6.25033 12.9493 7.05033C14.366 8.47533 14.541 10.6837 13.4743 12.3003ZM12.4077 13.4753L10.0493 15.8337L9.16602 14.9503L9.95768 14.1587C8.86865 14.1502 7.82679 13.7131 7.05768 12.942C6.37938 12.263 5.95596 11.3708 5.85881 10.416C5.76165 9.46117 5.99671 8.50204 6.52435 7.70033L7.44102 8.61699C6.84935 9.72533 6.99935 11.1253 7.93268 12.0587C8.51602 12.642 9.29102 12.9253 10.066 12.9003L9.16602 12.0003L10.0493 11.117L12.4077 13.4753Z" fill="#8A8A8A"/>
</svg>
