<svg width="24" height="24" viewBox="0 0 24 24" fill="none" xmlns="http://www.w3.org/2000/svg">
<path d="M13.8038 24H10.1992C9.97799 24 9.76457 23.9182 9.60008 23.7703C9.4356 23.6224 9.33169 23.4188 9.30839 23.1988L9.0415 20.686C8.66892 20.5592 8.30494 20.4084 7.95183 20.2346L5.98806 21.8227C5.81618 21.9611 5.59925 22.0312 5.37887 22.0195C5.15849 22.0078 4.95019 21.9152 4.79391 21.7594L2.245 19.2107C2.08918 19.0545 1.99654 18.8462 1.98486 18.6258C1.97318 18.4055 2.04328 18.1886 2.18171 18.0167L3.77052 16.0507C3.59641 15.6977 3.44543 15.3338 3.31854 14.9612L0.801274 14.6925C0.581374 14.6692 0.377865 14.5654 0.229931 14.4011C0.0819967 14.2367 9.66296e-05 14.0235 0 13.8024V10.1976C9.66296e-05 9.9765 0.0819967 9.76325 0.229931 9.59891C0.377865 9.43456 0.581374 9.33075 0.801274 9.30746L3.31436 9.0406C3.44125 8.668 3.59223 8.30405 3.76634 7.95104L2.17753 5.98507C2.0391 5.81322 1.969 5.59631 1.98068 5.37595C1.99236 5.15559 2.085 4.94731 2.24082 4.79105L4.78973 2.24239C4.94601 2.08658 5.15431 1.99396 5.37469 1.98228C5.59507 1.9706 5.812 2.04069 5.98388 2.17911L7.95004 3.76717C8.30315 3.59337 8.66713 3.44261 9.0397 3.31582L9.3066 0.802987C9.32952 0.582376 9.4335 0.37812 9.5984 0.229775C9.76331 0.0814305 9.9774 -0.000446131 10.1992 1.82846e-06H13.8038C14.025 -4.89821e-05 14.2384 0.0817766 14.4029 0.22971C14.5674 0.377644 14.6713 0.581215 14.6946 0.801196L14.9609 3.31403C15.3337 3.44081 15.6978 3.59158 16.0511 3.76537L18.0167 2.17731C18.1886 2.0389 18.4055 1.96881 18.6259 1.98049C18.8463 1.99217 19.0546 2.08479 19.2109 2.2406L21.7598 4.78925C21.9156 4.94552 22.0082 5.1538 22.0199 5.37416C22.0316 5.59452 21.9615 5.81143 21.8231 5.98328L20.2343 7.94925C20.4081 8.30238 20.5591 8.66631 20.6862 9.03881L23.1993 9.30567C23.4191 9.3291 23.6225 9.43297 23.7703 9.5973C23.9181 9.76163 23.9999 9.9748 24 10.1958V13.8006C24.0004 14.0216 23.9191 14.2349 23.7718 14.3995C23.6244 14.5642 23.4214 14.6685 23.2017 14.6925L20.6886 14.9594C20.5615 15.3319 20.4105 15.6958 20.2366 16.049L21.8255 18.0149C21.9639 18.1868 22.034 18.4037 22.0223 18.624C22.0106 18.8444 21.918 19.0527 21.7622 19.209L19.2133 21.7594C19.057 21.9152 18.8487 22.0078 18.6283 22.0195C18.4079 22.0312 18.191 21.9611 18.0191 21.8227L16.0535 20.2346C15.7002 20.4084 15.3361 20.5592 14.9633 20.686L14.697 23.1988C14.6736 23.4192 14.5694 23.6231 14.4044 23.7711C14.2394 23.9191 14.0254 24.0006 13.8038 24ZM11.0035 22.209H12.9971L13.2413 19.9069C13.2605 19.7267 13.3339 19.5565 13.4518 19.4189C13.5697 19.2813 13.7265 19.1827 13.9017 19.1361C14.5325 18.9679 15.1381 18.7163 15.7025 18.3881C15.8596 18.2965 16.0409 18.255 16.2222 18.2689C16.4035 18.2829 16.5762 18.3517 16.7175 18.4663L18.5183 19.9212L19.928 18.5116L18.4705 16.7164C18.3559 16.5752 18.2871 16.4024 18.2731 16.2211C18.2592 16.0399 18.3007 15.8586 18.3923 15.7015C18.7199 15.1376 18.9707 14.5324 19.138 13.9021C19.1846 13.7269 19.2834 13.57 19.4211 13.4521C19.5588 13.3342 19.7291 13.2608 19.9094 13.2418L22.2112 12.997V11.0036L19.9094 10.7588C19.7291 10.7398 19.5588 10.6664 19.4211 10.5485C19.2834 10.4306 19.1846 10.2737 19.138 10.0985C18.9708 9.46797 18.7199 8.86261 18.3923 8.29851C18.3007 8.1414 18.2592 7.96015 18.2731 7.77885C18.2871 7.59756 18.3559 7.42481 18.4705 7.28358L19.9256 5.48299L18.5159 4.07343L16.7151 5.52836C16.5739 5.64289 16.4011 5.71172 16.2198 5.72569C16.0385 5.73966 15.8572 5.69811 15.7001 5.60657C15.136 5.27921 14.5308 5.02845 13.9005 4.8609C13.7254 4.81431 13.5685 4.7157 13.4506 4.57809C13.3327 4.44048 13.2593 4.27034 13.2401 4.09015L12.9983 1.79105H11.0035L10.7593 4.09314C10.7401 4.2734 10.6666 4.4436 10.5486 4.58122C10.4306 4.71884 10.2736 4.8174 10.0983 4.86388C9.46845 5.0322 8.86386 5.28377 8.30053 5.61194C8.1434 5.70348 7.96213 5.74503 7.78082 5.73106C7.59951 5.71709 7.42674 5.64827 7.2855 5.53373L5.48652 4.07642L4.07742 5.48597L5.53309 7.28657C5.64754 7.42786 5.71627 7.60064 5.73013 7.78193C5.744 7.96322 5.70234 8.14444 5.61071 8.30149C5.28358 8.86565 5.03281 9.47074 4.86496 10.1009C4.81838 10.276 4.71976 10.4329 4.58213 10.5508C4.4445 10.6687 4.27435 10.742 4.09414 10.7612L1.79182 11.006V12.9988L4.09414 13.2436C4.27435 13.2627 4.4445 13.3361 4.58213 13.454C4.71976 13.5719 4.81838 13.7288 4.86496 13.9039C5.03277 14.5334 5.28334 15.1379 5.61011 15.7015C5.70174 15.8585 5.7434 16.0398 5.72953 16.2211C5.71567 16.4023 5.64694 16.5751 5.53249 16.7164L4.07742 18.514L5.48711 19.9236L7.28849 18.4687C7.42973 18.3541 7.60249 18.2853 7.78381 18.2713C7.96512 18.2574 8.14639 18.2989 8.30351 18.3904C8.86734 18.7179 9.47234 18.9687 10.1025 19.1361C10.2777 19.1826 10.4348 19.2812 10.5528 19.4188C10.6708 19.5564 10.7443 19.7266 10.7635 19.9069L11.0035 22.209Z" fill="#187259"/>
<path d="M12.0011 16.8247C10.9223 16.8246 9.86772 16.5046 8.97075 15.9052C8.07378 15.3058 7.37471 14.4539 6.96193 13.4572C6.54916 12.4606 6.44122 11.3639 6.65176 10.3059C6.86231 9.2479 7.38188 8.27608 8.14478 7.51334C8.90768 6.7506 9.87965 6.23119 10.9378 6.02078C11.9959 5.81037 13.0927 5.91842 14.0894 6.33126C15.0861 6.7441 15.938 7.4432 16.5373 8.34015C17.1367 9.23709 17.4566 10.2916 17.4566 11.3703C17.455 12.8165 16.8797 14.203 15.857 15.2256C14.8342 16.2482 13.4475 16.8232 12.0011 16.8247ZM12.0011 7.70706C11.2766 7.70718 10.5683 7.92213 9.9659 8.32473C9.3635 8.72733 8.89401 9.29949 8.61681 9.96888C8.33961 10.6383 8.26714 11.3748 8.40857 12.0854C8.55 12.7959 8.89898 13.4486 9.41137 13.9609C9.92376 14.4731 10.5766 14.822 11.2872 14.9633C11.9979 15.1046 12.7345 15.032 13.4039 14.7547C14.0733 14.4774 14.6455 14.0079 15.048 13.4055C15.4505 12.8031 15.6654 12.0948 15.6654 11.3703C15.6643 10.399 15.2779 9.4678 14.5909 8.78102C13.9039 8.09425 12.9726 7.70801 12.0011 7.70706Z" fill="#187259"/>
</svg>
