<svg width="71" height="71" viewBox="0 0 71 71" fill="none" xmlns="http://www.w3.org/2000/svg">
<path d="M68.5008 35.4994C69.5973 34.2225 70.3657 32.6973 70.7393 31.0562C71.113 29.4151 71.0806 27.7077 70.6449 26.0819C70.2093 24.4562 69.3835 22.9613 68.2393 21.7269C67.0952 20.4926 65.6671 19.556 64.079 18.9985C64.3902 17.3444 64.293 15.6393 63.796 14.0312C63.299 12.4231 62.4171 10.9605 61.2269 9.77045C60.0366 8.58035 58.574 7.69865 56.9658 7.20183C55.3576 6.70501 53.6525 6.60808 51.9984 6.91946C51.4413 5.33101 50.505 3.90255 49.2706 2.7581C48.0362 1.61364 46.5411 0.787783 44.9152 0.352221C43.2892 -0.0833398 41.5815 -0.115436 39.9403 0.258718C38.2991 0.632872 36.7741 1.40197 35.4976 2.49923C34.2207 1.40272 32.6955 0.63432 31.0544 0.260683C29.4133 -0.112955 27.7059 -0.0805414 26.0801 0.355109C24.4544 0.79076 22.9595 1.61649 21.7251 2.76067C20.4908 3.90485 19.5542 5.33292 18.9967 6.92099C17.3427 6.61012 15.6378 6.70748 14.0299 7.20464C12.422 7.70179 10.9597 8.58372 9.76977 9.77393C8.57987 10.9641 7.69831 12.4267 7.20157 14.0347C6.70482 15.6427 6.6079 17.3476 6.91919 19.0016C5.33112 19.5591 3.90304 20.4957 2.75886 21.73C1.61468 22.9644 0.788948 24.4593 0.353297 26.085C-0.0823538 27.7107 -0.114772 29.4182 0.258866 31.0593C0.632503 32.7004 1.40092 34.2255 2.49743 35.5024C1.40059 36.7793 0.631934 38.3046 0.25819 39.9458C-0.115554 41.5871 -0.0831079 43.2948 0.352733 44.9206C0.788575 46.5465 1.61463 48.0415 2.7592 49.2757C3.90377 50.51 5.33229 51.4463 6.92073 52.0033C6.60917 53.6573 6.70598 55.3623 7.20279 56.9704C7.69959 58.5785 8.58137 60.0411 9.77158 61.2311C10.9618 62.4212 12.4244 63.3028 14.0326 63.7994C15.6408 64.296 17.3458 64.3926 18.9998 64.0808C19.5573 65.6689 20.4939 67.097 21.7282 68.2411C22.9626 69.3853 24.4575 70.2111 26.0832 70.6467C27.7089 71.0824 29.4164 71.1148 31.0575 70.7411C32.6986 70.3675 34.2238 69.5991 35.5007 68.5026C36.7775 69.5994 38.3028 70.3681 39.944 70.7418C41.5853 71.1156 43.293 71.0831 44.9188 70.6473C46.5447 70.2114 48.0397 69.3854 49.2739 68.2408C50.5082 67.0962 51.4445 65.6677 52.0015 64.0793C53.6556 64.3907 55.3606 64.2939 56.9688 63.7971C58.5769 63.3003 60.0395 62.4185 61.2296 61.2284C62.4198 60.0382 63.3015 58.5756 63.7984 56.9675C64.2952 55.3593 64.392 53.6543 64.0806 52.0002C65.6688 51.4428 67.097 50.5063 68.2412 49.2719C69.3854 48.0375 70.2111 46.5425 70.6467 44.9167C71.0822 43.2908 71.1144 41.5833 70.7404 39.9422C70.3665 38.3011 69.5977 36.776 68.5008 35.4994Z" fill="#71C173"/>
<path d="M29.1275 49.0508L19.2624 39.1918C18.888 38.8168 18.6777 38.3086 18.6777 37.7787C18.6777 37.2488 18.888 36.7405 19.2624 36.3655L20.461 35.1654C20.836 34.791 21.3442 34.5808 21.8741 34.5808C22.404 34.5808 22.9123 34.791 23.2873 35.1654L30.4584 42.332L47.3469 24.3849C47.7103 23.9993 48.2119 23.7737 48.7415 23.7575C49.2711 23.7414 49.7855 23.936 50.1717 24.2987L51.4025 25.4603C51.7886 25.8238 52.0145 26.3257 52.0307 26.8557C52.0468 27.3856 51.8519 27.9003 51.4887 28.2866L32.0015 49.0061C31.8181 49.2017 31.5971 49.3584 31.3519 49.4668C31.1067 49.5753 30.8421 49.6333 30.574 49.6375C30.3059 49.6416 30.0397 49.5918 29.7912 49.491C29.5427 49.3903 29.317 49.2405 29.1275 49.0508Z" fill="white"/>
</svg>
