<svg width="20" height="20" viewBox="0 0 20 20" fill="none" xmlns="http://www.w3.org/2000/svg">
<path d="M15.2963 5.83395H16.618L16.8468 5.54145C16.9467 5.41366 17.0204 5.26744 17.0638 5.11115C17.1072 4.95486 17.1194 4.79155 17.0996 4.63055C17.0799 4.46956 17.0286 4.31402 16.9488 4.17283C16.8689 4.03165 16.7621 3.90757 16.6343 3.8077L13.163 1.09603C13.0352 0.996127 12.889 0.922376 12.7327 0.878988C12.5764 0.8356 12.4131 0.823425 12.2521 0.843158C12.0911 0.862891 11.9356 0.914145 11.7944 0.993994C11.6532 1.07384 11.5291 1.18072 11.4293 1.30853L11.2763 1.50436L11.2801 1.50728L7.89967 5.83395H9.21551L12.2501 1.9502C12.2817 1.90982 12.328 1.88364 12.3788 1.87739C12.4297 1.87114 12.4809 1.88533 12.5213 1.91686L13.4988 2.6802L11.0351 5.83395H12.3572L14.3197 3.32144L15.9926 4.62853C16.0768 4.69436 16.0918 4.81603 16.0259 4.9002L15.2963 5.83395ZM3.85384 4.16728H8.14426L7.33051 5.20895H3.85384C3.66045 5.20895 3.47499 5.28577 3.33824 5.42251C3.2015 5.55926 3.12467 5.74472 3.12467 5.93811C3.12467 6.1315 3.2015 6.31697 3.33824 6.45371C3.47499 6.59046 3.66045 6.66728 3.85384 6.66728H15.3122C16.0028 6.66728 16.6652 6.94165 17.1536 7.43002C17.642 7.9184 17.9163 8.58078 17.9163 9.27145V14.8964C17.9163 15.5871 17.642 16.2495 17.1536 16.7379C16.6652 17.2262 16.0028 17.5006 15.3122 17.5006H4.68717C3.99651 17.5006 3.33413 17.2262 2.84575 16.7379C2.35737 16.2495 2.08301 15.5871 2.08301 14.8964V5.93811C2.08301 5.46846 2.26958 5.01804 2.60167 4.68594C2.93377 4.35385 3.38419 4.16728 3.85384 4.16728ZM3.12467 14.8964C3.12467 15.3108 3.28929 15.7083 3.58232 16.0013C3.87535 16.2943 4.27277 16.4589 4.68717 16.4589H15.3122C15.7266 16.4589 16.124 16.2943 16.417 16.0013C16.7101 15.7083 16.8747 15.3108 16.8747 14.8964V9.27145C16.8747 8.85704 16.7101 8.45962 16.417 8.16659C16.124 7.87356 15.7266 7.70895 15.3122 7.70895H3.85384C3.60235 7.70972 3.35365 7.65629 3.12467 7.55228V14.8964ZM13.4372 11.6673C13.299 11.6673 13.1666 11.7222 13.0689 11.8198C12.9712 11.9175 12.9163 12.05 12.9163 12.1881C12.9163 12.3262 12.9712 12.4587 13.0689 12.5564C13.1666 12.6541 13.299 12.7089 13.4372 12.7089H15.3122C15.4503 12.7089 15.5828 12.6541 15.6805 12.5564C15.7781 12.4587 15.833 12.3262 15.833 12.1881C15.833 12.05 15.7781 11.9175 15.6805 11.8198C15.5828 11.7222 15.4503 11.6673 15.3122 11.6673H13.4372Z" fill="#1A1A1A"/>
</svg>
