<svg width="24" height="24" viewBox="0 0 24 24" fill="none" xmlns="http://www.w3.org/2000/svg">
<path d="M12 24C10.3484 24 8.79289 23.6844 7.33334 23.0533C5.87378 22.4213 4.60267 21.5635 3.52001 20.48C2.43734 19.3964 1.57956 18.1253 0.946674 16.6667C0.313785 15.208 -0.00177031 13.6524 7.46965e-06 12C7.46965e-06 10.3431 0.315563 8.78622 0.946674 7.32933C1.57867 5.87155 2.43645 4.60178 3.52001 3.52C4.60356 2.43822 5.87467 1.58044 7.33334 0.946666C8.79289 0.315556 10.3484 0 12 0C13.6569 0 15.2138 0.315556 16.6707 0.946666C18.1284 1.57867 19.3987 2.43644 20.4813 3.52C21.564 4.60355 22.4213 5.87333 23.0533 7.32933C23.6844 8.78711 24 10.344 24 12C24 13.6516 23.6844 15.2071 23.0533 16.6667C22.4213 18.1262 21.5636 19.3973 20.48 20.48C19.3964 21.5627 18.1267 22.4204 16.6707 23.0533C15.2147 23.6862 13.6578 24.0018 12 24ZM12 22.6773C12.7822 21.672 13.4276 20.6849 13.936 19.716C14.4436 18.7471 14.8564 17.6627 15.1747 16.4627H8.82534C9.17823 17.7302 9.59956 18.8484 10.0893 19.8173C10.58 20.7862 11.2169 21.7395 12 22.6773ZM10.3027 22.4773C9.68045 21.744 9.11245 20.8373 8.59867 19.7573C8.08489 18.6782 7.70267 17.5795 7.452 16.4613H2.33867C3.10312 18.1191 4.18623 19.4791 5.58801 20.5413C6.99067 21.6027 8.56223 22.248 10.3027 22.4773ZM13.6973 22.4773C15.4378 22.248 17.0093 21.6027 18.412 20.5413C19.8138 19.4791 20.8969 18.1191 21.6613 16.4613H16.5493C16.2116 17.5964 15.7862 18.7035 15.2733 19.7827C14.7596 20.8627 14.2342 21.7618 13.6973 22.4773ZM1.79467 15.1293H7.17467C7.07334 14.5818 7.00223 14.0484 6.96134 13.5293C6.91867 13.0111 6.89734 12.5013 6.89734 12C6.89734 11.4987 6.91823 10.9889 6.96001 10.4707C7.00178 9.95244 7.07289 9.41911 7.17334 8.87066H1.79601C1.65112 9.33289 1.53778 9.83644 1.45601 10.3813C1.37423 10.9253 1.33334 11.4649 1.33334 12C1.33334 12.5351 1.37378 13.0751 1.45467 13.62C1.53556 14.1649 1.6489 14.6676 1.79467 15.128M8.508 15.128H15.492C15.5933 14.5813 15.6644 14.0569 15.7053 13.5547C15.748 13.0533 15.7693 12.5351 15.7693 12C15.7693 11.4649 15.7484 10.9467 15.7067 10.4453C15.6649 9.944 15.5938 9.41955 15.4933 8.872H8.50667C8.40623 9.41866 8.33512 9.94311 8.29334 10.4453C8.25156 10.9467 8.23067 11.4649 8.23067 12C8.23067 12.5351 8.25156 13.0533 8.29334 13.5547C8.33512 14.056 8.40756 14.5804 8.508 15.128ZM16.8267 15.128H22.2053C22.3502 14.6667 22.4636 14.164 22.5453 13.62C22.6262 13.0751 22.6667 12.5351 22.6667 12C22.6667 11.4649 22.6262 10.9249 22.5453 10.38C22.4644 9.83511 22.3511 9.33244 22.2053 8.872H16.8253C16.9267 9.41866 16.9978 9.95155 17.0387 10.4707C17.0813 10.9898 17.1027 11.4996 17.1027 12C17.1027 12.5004 17.0818 13.0102 17.04 13.5293C16.9982 14.0484 16.9271 14.5818 16.8267 15.1293M16.5493 7.53866H21.6613C20.88 5.84622 19.8098 4.48622 18.4507 3.45867C17.0916 2.43111 15.5071 1.77733 13.6973 1.49733C14.3196 2.316 14.8791 3.25244 15.376 4.30667C15.8729 5.36 16.264 6.43733 16.5493 7.53866ZM8.82534 7.53866H15.1747C14.8227 6.28711 14.3884 5.15555 13.872 4.144C13.3556 3.13244 12.7316 2.192 12 1.32267C11.2684 2.19111 10.6444 3.13155 10.128 4.144C9.61156 5.15644 9.17645 6.288 8.82534 7.53866ZM2.34001 7.53866H7.452C7.73734 6.43822 8.12845 5.36089 8.62534 4.30667C9.12223 3.25244 9.68178 2.316 10.304 1.49733C8.47823 1.77822 6.88978 2.436 5.53867 3.47067C4.18756 4.50711 3.1209 5.86266 2.33867 7.53733" fill="#187259"/>
</svg>
